<svg width="22" height="22" viewBox="-1 -1 22 22" fill="none" xmlns="http://www.w3.org/2000/svg">
<path d="M7.13839 5.67857H9.48884C11.029 5.67857 12.0223 6.12277 12.4688 7.01116C12.6339 7.34598 12.7165 7.67857 12.7165 8.00893C12.7165 8.33929 12.6808 8.60268 12.6094 8.79911C12.5424 8.99107 12.4509 9.16741 12.3348 9.32812C12.1161 9.6317 11.8259 9.89063 11.4643 10.1049V10.1317C12.1339 10.3237 12.6272 10.6607 12.9442 11.1429C13.1853 11.5089 13.3058 11.9152 13.3058 12.3616C13.3058 12.808 13.2165 13.1942 13.0379 13.5201C12.8638 13.846 12.6205 14.1183 12.308 14.3371C11.6696 14.779 10.817 15 9.75 15H7.13839V5.67857ZM9.7433 9.7433C10.4621 9.7433 10.9464 9.45982 11.1964 8.89286C11.2812 8.69196 11.3237 8.46875 11.3237 8.22321C11.3237 7.97321 11.2924 7.75893 11.2299 7.58036C11.1674 7.39732 11.067 7.24107 10.9286 7.11161C10.6339 6.83482 10.1897 6.69643 9.59598 6.69643H8.47768V9.7433H9.7433ZM11.9129 12.3884C11.9129 11.3036 11.2612 10.7612 9.95759 10.7612H8.47768V13.9821H9.75C10.7321 13.9821 11.3951 13.6853 11.7388 13.0915C11.8549 12.8906 11.9129 12.6562 11.9129 12.3884Z" fill="white"/>
<path fill-rule="evenodd" clip-rule="evenodd" d="M10 20C15.5228 20 20 15.5228 20 10C20 4.47715 15.5228 0 10 0C4.47715 0 0 4.47715 0 10C0 11.7935 0.472141 13.4767 1.29891 14.9321L0 20L5.2249 18.7884C6.64384 19.561 8.27066 20 10 20ZM10 18.4615C14.6732 18.4615 18.4615 14.6732 18.4615 10C18.4615 5.32682 14.6732 1.53846 10 1.53846C5.32682 1.53846 1.53846 5.32682 1.53846 10C1.53846 11.8043 2.10322 13.4768 3.0656 14.8502L2.30769 17.6923L5.19995 16.9692C6.56383 17.9104 8.21755 18.4615 10 18.4615Z" fill="white"/>
<path d="M7.13839 5.67857H9.48884C11.029 5.67857 12.0223 6.12277 12.4688 7.01116C12.6339 7.34598 12.7165 7.67857 12.7165 8.00893C12.7165 8.33929 12.6808 8.60268 12.6094 8.79911C12.5424 8.99107 12.4509 9.16741 12.3348 9.32812C12.1161 9.6317 11.8259 9.89063 11.4643 10.1049V10.1317C12.1339 10.3237 12.6272 10.6607 12.9442 11.1429C13.1853 11.5089 13.3058 11.9152 13.3058 12.3616C13.3058 12.808 13.2165 13.1942 13.0379 13.5201C12.8638 13.846 12.6205 14.1183 12.308 14.3371C11.6696 14.779 10.817 15 9.75 15H7.13839V5.67857ZM9.7433 9.7433C10.4621 9.7433 10.9464 9.45982 11.1964 8.89286C11.2812 8.69196 11.3237 8.46875 11.3237 8.22321C11.3237 7.97321 11.2924 7.75893 11.2299 7.58036C11.1674 7.39732 11.067 7.24107 10.9286 7.11161C10.6339 6.83482 10.1897 6.69643 9.59598 6.69643H8.47768V9.7433H9.7433ZM11.9129 12.3884C11.9129 11.3036 11.2612 10.7612 9.95759 10.7612H8.47768V13.9821H9.75C10.7321 13.9821 11.3951 13.6853 11.7388 13.0915C11.8549 12.8906 11.9129 12.6562 11.9129 12.3884Z" stroke="white" stroke-width="0.5"/>
<path fill-rule="evenodd" clip-rule="evenodd" d="M10 20C15.5228 20 20 15.5228 20 10C20 4.47715 15.5228 0 10 0C4.47715 0 0 4.47715 0 10C0 11.7935 0.472141 13.4767 1.29891 14.9321L0 20L5.2249 18.7884C6.64384 19.561 8.27066 20 10 20ZM10 18.4615C14.6732 18.4615 18.4615 14.6732 18.4615 10C18.4615 5.32682 14.6732 1.53846 10 1.53846C5.32682 1.53846 1.53846 5.32682 1.53846 10C1.53846 11.8043 2.10322 13.4768 3.0656 14.8502L2.30769 17.6923L5.19995 16.9692C6.56383 17.9104 8.21755 18.4615 10 18.4615Z" stroke="white" stroke-width="0.5"/>
</svg>
