<svg width="540" height="156" viewBox="0 0 540 156" fill="none" xmlns="http://www.w3.org/2000/svg">
<path d="M537 138.009C537 146.323 530.126 153.057 521.623 153.057H18.3973C9.8985 153.057 3 146.323 3 138.009V18.0105C3 9.70097 9.8985 2.94336 18.3973 2.94336H521.619C530.126 2.94336 536.996 9.70097 536.996 18.0105L537 138.009Z" fill="#00500D"/>
<path d="M520 3.12488C529.26 3.12488 536.795 10.4715 536.795 19.5V136.5C536.795 145.529 529.26 152.875 520 152.875H20C10.74 152.875 3.205 145.529 3.205 136.5V19.5C3.205 10.4715 10.74 3.12488 20 3.12488H520ZM520 1.52588e-05H20C9.005 1.52588e-05 0 8.77989 0 19.5V136.5C0 147.22 9.005 156 20 156H520C530.995 156 540 147.22 540 136.5V19.5C540 8.77989 530.995 1.52588e-05 520 1.52588e-05Z" fill="#A6A6A6"/>
<path d="M120.512 77.1576C120.396 64.5879 131.068 58.4727 131.556 58.188C125.512 49.5963 116.144 48.4224 112.852 48.3288C104.984 47.5215 97.3519 52.9191 93.3439 52.9191C89.2559 52.9191 83.0839 48.4068 76.4319 48.5394C67.8719 48.6681 59.8639 53.5002 55.4719 61.0038C46.4079 76.3035 53.1679 98.787 61.8519 111.154C66.1959 117.211 71.2719 123.973 77.9159 123.735C84.4159 123.474 86.8439 119.695 94.6879 119.695C102.46 119.695 104.74 123.735 111.516 123.583C118.492 123.474 122.884 117.499 127.076 111.388C132.096 104.446 134.112 97.6092 134.192 97.2582C134.028 97.2036 120.644 92.2233 120.512 77.1576Z" fill="white"/>
<path d="M107.712 40.1934C111.208 35.9307 113.6 30.1314 112.936 24.2463C107.876 24.4647 101.548 27.6588 97.9039 31.8279C94.6799 35.5017 91.7999 41.5233 92.5439 47.1861C98.2279 47.5995 104.064 44.3898 107.712 40.1934Z" fill="white"/>
<path d="M196.2 39.035C196.2 43.6253 194.788 47.0807 191.968 49.4012C189.356 51.5423 185.644 52.6148 180.836 52.6148C178.452 52.6148 176.412 52.5134 174.704 52.3106V27.2297C176.932 26.8787 179.332 26.6993 181.924 26.6993C186.504 26.6993 189.956 27.6704 192.284 29.6126C194.892 31.8083 196.2 34.9478 196.2 39.035ZM191.78 39.1481C191.78 36.1724 190.972 33.8909 189.356 32.2997C187.74 30.7124 185.38 29.9168 182.272 29.9168C180.952 29.9168 179.828 30.0026 178.896 30.182V49.2491C179.412 49.3271 180.356 49.3622 181.728 49.3622C184.936 49.3622 187.412 48.4925 189.156 46.7531C190.9 45.0137 191.78 42.4787 191.78 39.1481Z" fill="white"/>
<path d="M219.636 43.0442C219.636 45.8717 218.808 48.1883 217.152 50.0057C215.416 51.8738 213.116 52.8059 210.244 52.8059C207.476 52.8059 205.272 51.9128 203.628 50.1188C201.988 48.3287 201.168 46.0706 201.168 43.3484C201.168 40.5014 202.012 38.1653 203.708 36.3518C205.404 34.5383 207.684 33.6296 210.556 33.6296C213.324 33.6296 215.548 34.5227 217.232 36.3128C218.832 38.0522 219.636 40.2986 219.636 43.0442ZM215.288 43.1768C215.288 41.4803 214.912 40.0256 214.164 38.8127C213.284 37.3463 212.032 36.6131 210.404 36.6131C208.72 36.6131 207.44 37.3463 206.56 38.8127C205.808 40.0256 205.436 41.5037 205.436 43.2509C205.436 44.9474 205.812 46.4021 206.56 47.615C207.468 49.0814 208.732 49.8146 210.364 49.8146C211.964 49.8146 213.22 49.0697 214.124 47.576C214.9 46.3397 215.288 44.8733 215.288 43.1768Z" fill="white"/>
<path d="M251.06 34.004L245.16 52.3886H241.32L238.876 44.4053C238.256 42.4124 237.752 40.4312 237.36 38.4656H237.284C236.92 40.4858 236.416 42.4631 235.768 44.4053L233.172 52.3886H229.288L223.74 34.004H228.048L230.18 42.7439C230.696 44.8109 231.12 46.7804 231.46 48.6446H231.536C231.848 47.108 232.364 45.1502 233.092 42.7829L235.768 34.0079H239.184L241.748 42.5957C242.368 44.69 242.872 46.7063 243.26 48.6485H243.376C243.66 46.757 244.088 44.7407 244.656 42.5957L246.944 34.0079H251.06V34.004Z" fill="white"/>
<path d="M272.792 52.3887H268.6V41.8587C268.6 38.6139 267.336 36.9915 264.8 36.9915C263.556 36.9915 262.552 37.4361 261.772 38.3292C261 39.2223 260.608 40.2753 260.608 41.4804V52.3849H256.416V39.2574C256.416 37.6428 256.364 35.8917 256.264 33.9963H259.948L260.144 36.8706H260.26C260.748 35.9775 261.476 35.2404 262.432 34.6515C263.568 33.9651 264.84 33.618 266.232 33.618C267.992 33.618 269.456 34.1718 270.62 35.2833C272.068 36.6444 272.792 38.6763 272.792 41.3751V52.3887V52.3887Z" fill="white"/>
<path d="M284.352 52.3887H280.164V25.5684H284.352V52.3887Z" fill="white"/>
<path d="M309.032 43.0442C309.032 45.8717 308.204 48.1883 306.548 50.0057C304.812 51.8738 302.508 52.8059 299.64 52.8059C296.868 52.8059 294.664 51.9128 293.024 50.1188C291.384 48.3287 290.564 46.0706 290.564 43.3484C290.564 40.5014 291.408 38.1653 293.104 36.3518C294.8 34.5383 297.08 33.6296 299.948 33.6296C302.72 33.6296 304.94 34.5227 306.628 36.3128C308.228 38.0522 309.032 40.2986 309.032 43.0442ZM304.68 43.1768C304.68 41.4803 304.304 40.0256 303.556 38.8127C302.68 37.3463 301.424 36.6131 299.8 36.6131C298.112 36.6131 296.832 37.3463 295.956 38.8127C295.204 40.0256 294.832 41.5037 294.832 43.2509C294.832 44.9474 295.208 46.4021 295.956 47.615C296.864 49.0814 298.128 49.8146 299.76 49.8146C301.36 49.8146 302.612 49.0697 303.516 47.576C304.296 46.3397 304.68 44.8733 304.68 43.1768Z" fill="white"/>
<path d="M329.32 52.3886H325.556L325.244 50.2709H325.128C323.84 51.9596 322.004 52.8059 319.62 52.8059C317.84 52.8059 316.4 52.2482 315.316 51.1406C314.332 50.1344 313.84 48.8825 313.84 47.3966C313.84 45.1502 314.8 43.4381 316.732 42.2525C318.66 41.0669 321.372 40.4858 324.864 40.5131V40.1699C324.864 37.748 323.56 36.539 320.948 36.539C319.088 36.539 317.448 36.9953 316.032 37.9001L315.18 35.2169C316.932 34.16 319.096 33.6296 321.648 33.6296C326.576 33.6296 329.048 36.1646 329.048 41.2346V48.005C329.048 49.8419 329.14 51.3044 329.32 52.3886ZM324.968 46.0706V43.2353C320.344 43.1573 318.032 44.3936 318.032 46.9403C318.032 47.8997 318.296 48.6173 318.836 49.097C319.376 49.5767 320.064 49.8146 320.884 49.8146C321.804 49.8146 322.664 49.5299 323.448 48.9644C324.236 48.395 324.72 47.6735 324.9 46.7882C324.944 46.5893 324.968 46.3475 324.968 46.0706Z" fill="white"/>
<path d="M353.14 52.3887H349.42L349.224 49.4364H349.108C347.92 51.6828 345.896 52.806 343.052 52.806C340.78 52.806 338.888 51.9363 337.388 50.1969C335.888 48.4575 335.14 46.1994 335.14 43.4265C335.14 40.4508 335.952 38.0406 337.584 36.1998C339.164 34.4838 341.1 33.6258 343.404 33.6258C345.936 33.6258 347.708 34.4565 348.716 36.1218H348.796V25.5684H352.992V47.4357C352.992 49.2258 353.04 50.8755 353.14 52.3887ZM348.796 44.6355V41.5701C348.796 41.0397 348.756 40.6107 348.68 40.2831C348.444 39.3003 347.936 38.4735 347.164 37.8066C346.384 37.1397 345.444 36.8043 344.36 36.8043C342.796 36.8043 341.572 37.4088 340.672 38.6217C339.78 39.8346 339.328 41.3829 339.328 43.2744C339.328 45.0918 339.756 46.566 340.616 47.7009C341.524 48.9099 342.748 49.5144 344.28 49.5144C345.656 49.5144 346.756 49.0113 347.592 48.0012C348.4 47.0691 348.796 45.9459 348.796 44.6355Z" fill="white"/>
<path d="M388.992 43.0442C388.992 45.8717 388.164 48.1883 386.508 50.0057C384.772 51.8738 382.476 52.8059 379.6 52.8059C376.836 52.8059 374.632 51.9128 372.984 50.1188C371.344 48.3287 370.524 46.0706 370.524 43.3484C370.524 40.5014 371.368 38.1653 373.064 36.3518C374.76 34.5383 377.04 33.6296 379.916 33.6296C382.68 33.6296 384.908 34.5227 386.588 36.3128C388.188 38.0522 388.992 40.2986 388.992 43.0442ZM384.648 43.1768C384.648 41.4803 384.272 40.0256 383.524 38.8127C382.64 37.3463 381.392 36.6131 379.76 36.6131C378.08 36.6131 376.8 37.3463 375.916 38.8127C375.164 40.0256 374.792 41.5037 374.792 43.2509C374.792 44.9474 375.168 46.4021 375.916 47.615C376.824 49.0814 378.088 49.8146 379.72 49.8146C381.32 49.8146 382.58 49.0697 383.484 47.576C384.256 46.3397 384.648 44.8733 384.648 43.1768Z" fill="white"/>
<path d="M411.532 52.3887H407.344V41.8587C407.344 38.6139 406.08 36.9915 403.54 36.9915C402.296 36.9915 401.292 37.4361 400.516 38.3292C399.74 39.2223 399.352 40.2753 399.352 41.4804V52.3849H395.156V39.2574C395.156 37.6428 395.108 35.8917 395.008 33.9963H398.688L398.884 36.8706H399C399.492 35.9775 400.22 35.2404 401.172 34.6515C402.312 33.9651 403.58 33.618 404.976 33.618C406.732 33.618 408.196 34.1718 409.36 35.2833C410.812 36.6444 411.532 38.6763 411.532 41.3751V52.3887V52.3887Z" fill="white"/>
<path d="M439.744 37.0656H435.128V45.9966C435.128 48.2664 435.948 49.4013 437.572 49.4013C438.324 49.4013 438.948 49.3389 439.44 49.2102L439.548 52.3107C438.72 52.6149 437.632 52.767 436.292 52.767C434.636 52.767 433.348 52.2756 432.416 51.2928C431.48 50.31 431.016 48.6564 431.016 46.3359V37.0656H428.26V34.0041H431.016V30.6345L435.124 29.4255V34.0002H439.74V37.0656H439.744Z" fill="white"/>
<path d="M461.936 52.3887H457.74V41.9367C457.74 38.6412 456.476 36.9915 453.944 36.9915C452 36.9915 450.672 37.947 449.944 39.858C449.82 40.2597 449.748 40.7511 449.748 41.3283V52.3848H445.56V25.5684H449.748V36.6483H449.828C451.148 34.632 453.04 33.6258 455.492 33.6258C457.228 33.6258 458.664 34.1796 459.804 35.2911C461.224 36.6756 461.936 38.7348 461.936 41.457V52.3887V52.3887Z" fill="white"/>
<path d="M484.828 42.3267C484.828 43.0599 484.772 43.6761 484.672 44.1792H472.1C472.156 45.9966 472.756 47.3811 473.92 48.3405C474.984 49.1985 476.356 49.6275 478.036 49.6275C479.896 49.6275 481.592 49.3389 483.12 48.7578L483.776 51.597C481.988 52.3536 479.884 52.7319 477.448 52.7319C474.528 52.7319 472.228 51.8934 470.564 50.2164C468.892 48.5394 468.064 46.2891 468.064 43.4655C468.064 40.6926 468.836 38.3838 470.392 36.543C472.016 34.5774 474.212 33.5946 476.984 33.5946C479.696 33.5946 481.756 34.5774 483.148 36.543C484.272 38.103 484.828 40.0335 484.828 42.3267ZM480.828 41.2698C480.86 40.0569 480.584 39.0117 480.016 38.1303C479.288 36.9954 478.18 36.426 476.68 36.426C475.312 36.426 474.196 36.9798 473.344 38.0913C472.648 38.9766 472.236 40.0335 472.1 41.2698H480.828Z" fill="white"/>
<path d="M214.58 122.865H205.496L200.52 107.62H183.224L178.484 122.865H169.64L186.776 70.9642H197.36L214.58 122.865ZM199.02 101.224L194.52 87.6718C194.044 86.2873 193.152 83.0269 191.836 77.8945H191.676C191.152 80.1019 190.308 83.3623 189.148 87.6718L184.728 101.224H199.02V101.224Z" fill="white"/>
<path d="M258.648 103.693C258.648 110.058 256.884 115.089 253.356 118.782C250.196 122.07 246.272 123.712 241.588 123.712C236.532 123.712 232.9 121.941 230.688 118.4H230.528V138.115H222V97.7612C222 93.7598 221.892 89.6532 221.684 85.4412H229.184L229.66 91.3731H229.82C232.664 86.9037 236.98 84.6729 242.772 84.6729C247.3 84.6729 251.08 86.4161 254.104 89.9066C257.136 93.401 258.648 97.9952 258.648 103.693ZM249.96 103.997C249.96 100.355 249.12 97.3518 247.432 94.9884C245.588 92.5236 243.112 91.2912 240.008 91.2912C237.904 91.2912 235.992 91.9775 234.284 93.3308C232.572 94.6958 231.452 96.4782 230.928 98.6856C230.664 99.7152 230.532 100.558 230.532 101.221V107.461C230.532 110.183 231.388 112.48 233.1 114.356C234.812 116.232 237.036 117.168 239.772 117.168C242.984 117.168 245.484 115.959 247.272 113.548C249.064 111.134 249.96 107.952 249.96 103.997Z" fill="white"/>
<path d="M302.796 103.693C302.796 110.058 301.032 115.089 297.5 118.782C294.344 122.07 290.42 123.712 285.736 123.712C280.68 123.712 277.048 121.941 274.84 118.4H274.68V138.115H266.152V97.7612C266.152 93.7598 266.044 89.6532 265.836 85.4412H273.336L273.812 91.3731H273.972C276.812 86.9037 281.128 84.6729 286.924 84.6729C291.448 84.6729 295.228 86.4161 298.26 89.9066C301.28 93.401 302.796 97.9952 302.796 103.693ZM294.108 103.997C294.108 100.355 293.264 97.3518 291.576 94.9884C289.732 92.5236 287.264 91.2912 284.156 91.2912C282.048 91.2912 280.14 91.9775 278.428 93.3308C276.716 94.6958 275.6 96.4782 275.076 98.6856C274.816 99.7152 274.68 100.558 274.68 101.221V107.461C274.68 110.183 275.536 112.48 277.24 114.356C278.952 116.228 281.176 117.168 283.92 117.168C287.132 117.168 289.632 115.959 291.42 113.548C293.212 111.134 294.108 107.952 294.108 103.997Z" fill="white"/>
<path d="M352.156 108.311C352.156 112.726 350.584 116.317 347.428 119.09C343.96 122.121 339.132 123.634 332.928 123.634C327.2 123.634 322.608 122.557 319.132 120.401L321.108 113.47C324.852 115.678 328.96 116.785 333.436 116.785C336.648 116.785 339.148 116.076 340.944 114.664C342.732 113.252 343.624 111.357 343.624 108.993C343.624 106.887 342.888 105.113 341.412 103.674C339.944 102.235 337.492 100.897 334.068 99.6606C324.748 96.2715 320.092 91.3068 320.092 84.7782C320.092 80.5116 321.724 77.0133 324.992 74.2911C328.248 71.565 332.592 70.2039 338.024 70.2039C342.868 70.2039 346.892 71.0268 350.104 72.6687L347.972 79.4469C344.972 77.8557 341.58 77.0601 337.784 77.0601C334.784 77.0601 332.44 77.7816 330.76 79.2168C329.34 80.4999 328.628 82.0638 328.628 83.9163C328.628 85.9677 329.44 87.6642 331.072 88.998C332.492 90.2304 335.072 91.5642 338.816 93.0033C343.396 94.8012 346.76 96.9033 348.924 99.3135C351.08 101.716 352.156 104.723 352.156 108.311Z" fill="white"/>
<path d="M380.352 91.6811H370.952V109.851C370.952 114.473 372.608 116.782 375.928 116.782C377.452 116.782 378.716 116.653 379.716 116.395L379.952 122.71C378.272 123.322 376.06 123.63 373.32 123.63C369.952 123.63 367.32 122.628 365.42 120.627C363.528 118.622 362.576 115.261 362.576 110.538V91.6733H356.976V85.4333H362.576V78.581L370.952 76.1162V85.4333H380.352V91.6811Z" fill="white"/>
<path d="M422.764 103.845C422.764 109.598 421.076 114.321 417.708 118.014C414.176 121.816 409.488 123.712 403.644 123.712C398.012 123.712 393.528 121.891 390.184 118.248C386.84 114.605 385.168 110.007 385.168 104.465C385.168 98.6661 386.888 93.9159 390.34 90.2226C393.784 86.5254 398.432 84.6768 404.276 84.6768C409.908 84.6768 414.44 86.4981 417.86 90.1446C421.132 93.6819 422.764 98.2488 422.764 103.845ZM413.916 104.114C413.916 100.663 413.16 97.7028 411.628 95.2341C409.84 92.2467 407.284 90.7569 403.972 90.7569C400.544 90.7569 397.94 92.2506 396.152 95.2341C394.62 97.7067 393.864 100.714 393.864 104.27C393.864 107.722 394.62 110.682 396.152 113.147C397.996 116.134 400.572 117.624 403.896 117.624C407.152 117.624 409.708 116.103 411.552 113.069C413.124 110.553 413.916 107.562 413.916 104.114Z" fill="white"/>
<path d="M450.484 92.7537C449.64 92.6016 448.74 92.5236 447.796 92.5236C444.796 92.5236 442.476 93.6272 440.844 95.8385C439.424 97.7885 438.712 100.253 438.712 103.229V122.866H430.188L430.268 97.227C430.268 92.9136 430.16 88.9863 429.948 85.4451H437.376L437.688 92.6055H437.924C438.824 90.1446 440.244 88.1634 442.188 86.6775C444.088 85.3398 446.14 84.6729 448.352 84.6729C449.14 84.6729 449.852 84.7274 450.484 84.8249V92.7537Z" fill="white"/>
<path d="M488.624 102.383C488.624 103.873 488.524 105.128 488.312 106.154H462.728C462.828 109.851 464.064 112.679 466.44 114.629C468.596 116.372 471.384 117.246 474.808 117.246C478.596 117.246 482.052 116.657 485.16 115.475L486.496 121.247C482.864 122.791 478.576 123.56 473.628 123.56C467.676 123.56 463.004 121.852 459.604 118.439C456.212 115.027 454.512 110.444 454.512 104.695C454.512 99.0522 456.092 94.3527 459.256 90.6048C462.568 86.6034 467.044 84.6027 472.676 84.6027C478.208 84.6027 482.396 86.6034 485.24 90.6048C487.492 93.7833 488.624 97.7145 488.624 102.383ZM480.492 100.226C480.548 97.7613 479.992 95.6319 478.836 93.834C477.36 91.5213 475.092 90.3669 472.04 90.3669C469.252 90.3669 466.984 91.494 465.252 93.756C463.832 95.5539 462.988 97.7106 462.728 100.222H480.492V100.226Z" fill="white"/>
</svg>
