<svg width="22" height="23" viewBox="0 0 22 23" fill="none" xmlns="http://www.w3.org/2000/svg">
<mask id="path-1-outside-1_10250_78091" maskUnits="userSpaceOnUse" x="0" y="-0.000976562" width="22" height="23" fill="black">
<rect fill="white" y="-0.000976562" width="22" height="23"/>
<path d="M10.9264 2.1194C10.8954 2.19078 10.8329 2.38896 10.7876 2.55983C10.742 2.7307 10.6676 3.04729 10.6221 3.26277C10.5765 3.47825 10.5159 3.80702 10.4871 3.99276C10.4585 4.17877 10.4353 4.34288 10.4353 4.35775C10.4356 4.37262 10.3981 4.34829 10.3523 4.30368C10.2701 4.22392 10.2682 4.22338 10.2294 4.27664C10.2078 4.30638 10.1652 4.39749 10.1342 4.47941C10.1035 4.56133 10.062 4.7195 10.0418 4.83089C10.0216 4.94255 10.0046 5.0853 10.0041 5.14857C10.0038 5.21183 9.99732 5.26347 9.98978 5.26347C9.98223 5.26347 9.93992 5.23914 9.89544 5.2094C9.85097 5.17966 9.80542 5.15992 9.79437 5.16587C9.78332 5.17155 9.75906 5.2413 9.741 5.32133C9.72268 5.40109 9.69572 5.61846 9.6809 5.8042C9.66634 5.99021 9.66311 6.20623 9.67362 6.28437C9.68845 6.39089 9.68467 6.42658 9.65961 6.42631C9.64101 6.42631 9.56527 6.38359 9.49115 6.33141C9.41703 6.27923 9.33806 6.23678 9.31596 6.23678C9.29386 6.23678 9.2696 6.26409 9.26232 6.29761C9.25531 6.33114 9.24911 6.46172 9.24858 6.58826C9.24831 6.71479 9.26636 6.92459 9.28873 7.05463C9.31111 7.18468 9.35369 7.35825 9.38334 7.4399C9.41299 7.52155 9.43428 7.59401 9.43051 7.6005C9.42673 7.60672 9.33887 7.55778 9.2351 7.49154C9.13133 7.4253 9.02514 7.37123 8.99926 7.37177C8.95775 7.37231 8.95209 7.40286 8.95209 7.62916C8.95209 7.77056 8.97096 7.98036 8.99387 8.09554C9.01705 8.21071 9.06557 8.36888 9.10168 8.44701C9.13807 8.52515 9.16206 8.59814 9.15505 8.60923C9.14831 8.62031 9.07554 8.59003 8.99333 8.54164C8.9114 8.49324 8.81706 8.45674 8.78364 8.46053C8.72758 8.46675 8.72353 8.47945 8.72866 8.62951C8.73189 8.71873 8.76612 8.90122 8.80466 9.03505C8.84294 9.16888 8.92838 9.39085 8.99414 9.52847C9.05991 9.66608 9.10465 9.7845 9.0936 9.79153C9.08255 9.79856 9.00061 9.76233 8.91167 9.71096C8.82272 9.65959 8.72866 9.61742 8.70278 9.61688C8.67071 9.61661 8.65049 9.64445 8.63944 9.7042C8.63028 9.7526 8.63163 9.84669 8.64214 9.91374C8.65238 9.98079 8.68823 10.1084 8.72138 10.1976C8.75453 10.2868 8.82488 10.4269 8.8777 10.5085C8.93026 10.5902 9.00519 10.6908 9.04373 10.7316C9.08228 10.7724 9.10734 10.8151 9.09926 10.8262C9.09144 10.8373 9.01274 10.8314 8.92406 10.8127C8.83566 10.794 8.7513 10.7851 8.73647 10.7924C8.72165 10.7997 8.70925 10.8395 8.70925 10.8803C8.70898 10.9211 8.73432 11.0339 8.76558 11.1304C8.79685 11.2269 8.88202 11.4248 8.95479 11.5697C9.02729 11.7146 9.0812 11.8425 9.07419 11.8536C9.06745 11.8647 9.01894 11.8466 8.96638 11.813C8.91409 11.7795 8.85291 11.7522 8.83081 11.7522C8.80871 11.7522 8.77825 11.7765 8.76343 11.8063C8.74564 11.842 8.74537 11.9085 8.76289 12.0023C8.77744 12.0804 8.82407 12.2294 8.86638 12.3335C8.9087 12.4376 8.97743 12.5774 9.01894 12.6444C9.06071 12.7115 9.12378 12.8026 9.15936 12.8472C9.19467 12.8918 9.21596 12.9345 9.20653 12.9418C9.1971 12.9491 9.13915 12.9616 9.07743 12.9694C8.96961 12.9826 8.96557 12.9867 8.968 13.0775C8.96934 13.1335 9.04239 13.3247 9.14912 13.5501C9.24723 13.7583 9.32809 13.9438 9.32863 13.9624C9.32916 13.9811 9.31111 13.9962 9.289 13.9962C9.2669 13.9962 9.22728 13.9535 9.20141 13.9011C9.17122 13.84 9.13483 13.8056 9.10034 13.8056C9.07069 13.8054 9.02217 13.8302 8.99252 13.8611C8.96288 13.8919 8.93269 13.9165 8.92514 13.9162C8.9176 13.9157 8.89711 13.8392 8.87905 13.7462C8.86126 13.6531 8.79792 13.4798 8.7389 13.3609C8.6796 13.2419 8.60036 13.1111 8.56263 13.0702C8.52489 13.0294 8.46964 12.9959 8.43999 12.9959C8.40307 12.9959 8.38123 13.0191 8.37045 13.0702C8.36183 13.1111 8.3497 13.1597 8.3435 13.1784C8.3373 13.197 8.32302 13.2125 8.31197 13.2127C8.30091 13.2133 8.27531 13.1614 8.25536 13.0978C8.23542 13.0343 8.17693 12.891 8.12572 12.7796C8.07451 12.6679 8.00282 12.5374 7.9667 12.489C7.93058 12.4406 7.88261 12.4011 7.86051 12.4011C7.8384 12.4011 7.78854 12.4589 7.75027 12.5295C7.71092 12.6017 7.67157 12.646 7.66025 12.6309C7.6492 12.616 7.62602 12.5246 7.60877 12.4281C7.59152 12.3316 7.54354 12.1794 7.50203 12.0902C7.46053 12.0009 7.37562 11.8763 7.31336 11.813C7.2511 11.7498 7.17941 11.7011 7.15407 11.7049C7.12793 11.7087 7.09936 11.7468 7.08804 11.7928C7.07699 11.8374 7.06136 11.9074 7.05327 11.9482C7.04518 11.9891 7.02524 12.0196 7.00934 12.0158C6.99316 12.012 6.95301 11.942 6.91985 11.8604C6.8867 11.7787 6.80989 11.6265 6.74951 11.5224C6.68914 11.4183 6.58968 11.2753 6.52904 11.2047C6.46812 11.1342 6.4002 11.0763 6.3781 11.0763C6.35546 11.0763 6.32689 11.115 6.31315 11.1642C6.29967 11.2126 6.28134 11.2856 6.27272 11.3264C6.26409 11.3672 6.24765 11.4013 6.2366 11.4018C6.22555 11.4024 6.17461 11.3202 6.12367 11.2193C6.06033 11.0944 5.95845 10.9622 5.80455 10.8059C5.58838 10.5861 5.57679 10.5786 5.54014 10.6302C5.51912 10.6599 5.49297 10.7543 5.48192 10.84C5.46952 10.9363 5.44877 10.9957 5.42802 10.9955C5.40942 10.9955 5.39432 10.983 5.39432 10.9682C5.39432 10.9533 5.35012 10.8711 5.29622 10.7857C5.24204 10.7002 5.11159 10.5407 5.00647 10.4315C4.90109 10.3223 4.78142 10.216 4.74072 10.1949C4.67441 10.1611 4.66417 10.1619 4.64342 10.2044C4.63048 10.2303 4.61242 10.3063 4.60326 10.3734C4.5941 10.4404 4.58331 10.498 4.57927 10.5015C4.5755 10.5053 4.51458 10.4537 4.44424 10.3866C4.37389 10.3198 4.21622 10.1909 4.09385 10.1C3.97149 10.0092 3.83807 9.91779 3.79737 9.89725C3.75667 9.87643 3.71112 9.86588 3.6963 9.87318C3.68147 9.88048 3.66961 9.91401 3.67015 9.94753C3.67042 9.98106 3.66153 10.0173 3.64994 10.0278C3.63835 10.0386 3.56827 9.99836 3.49415 9.93807C3.42003 9.87778 3.28661 9.79261 3.19767 9.74909C3.10873 9.70529 2.99121 9.66041 2.9365 9.64959C2.83947 9.6304 2.83704 9.63175 2.82869 9.71772L2.82033 9.80559C2.56967 9.6358 2.33922 9.49143 2.14651 9.37544C1.9538 9.25946 1.68077 9.10643 1.54007 9.03559C1.39938 8.96476 1.22338 8.88365 1.14926 8.85526C1.07514 8.82714 1.00856 8.81011 1.00102 8.81741C0.99347 8.82471 1.02878 8.90717 1.07918 9.00045C1.12958 9.09399 1.24413 9.27973 1.33388 9.41356C1.42364 9.54739 1.58832 9.77855 1.69963 9.92726C1.81095 10.076 1.9662 10.2736 2.04463 10.3666C2.12279 10.4596 2.17885 10.5418 2.16888 10.5491C2.15918 10.5567 2.11659 10.5626 2.07455 10.5626C2.00851 10.5626 2.00043 10.5707 2.01525 10.6234C2.02441 10.657 2.05029 10.7208 2.07239 10.7654C2.09476 10.81 2.16457 10.9195 2.22791 11.0087C2.29098 11.0979 2.3748 11.2012 2.41388 11.2385C2.45296 11.2756 2.4845 11.3153 2.48423 11.3264C2.48369 11.3375 2.44703 11.3529 2.40256 11.3602C2.35809 11.3675 2.32143 11.3829 2.3209 11.394C2.32063 11.4051 2.35701 11.4659 2.40175 11.5292C2.44677 11.5924 2.56105 11.7263 2.65592 11.8266C2.75079 11.9269 2.87801 12.0456 2.93838 12.0902C2.99876 12.1348 3.04862 12.1775 3.04943 12.1848C3.04997 12.1921 2.97747 12.2197 2.88825 12.2456C2.79904 12.2716 2.72546 12.3081 2.72492 12.3267C2.72438 12.3454 2.78826 12.4216 2.86642 12.4963C2.94485 12.5709 3.06964 12.6758 3.14376 12.7296C3.21789 12.7831 3.34214 12.8588 3.42003 12.898C3.49792 12.937 3.57959 12.9689 3.60196 12.9689C3.62433 12.9689 3.63943 12.9826 3.63565 12.9994C3.63188 13.0164 3.55021 13.0524 3.45372 13.0797C3.35723 13.107 3.26883 13.1389 3.25697 13.1505C3.24511 13.1622 3.30575 13.2371 3.39173 13.3171C3.47771 13.3968 3.62676 13.5088 3.72325 13.5655C3.81974 13.6223 3.95612 13.6815 4.02647 13.6972C4.09682 13.7129 4.14857 13.738 4.14102 13.7529C4.13347 13.7678 4.05908 13.8013 3.97553 13.8273C3.89224 13.8532 3.81624 13.8897 3.80707 13.9084C3.79818 13.927 3.81489 13.9679 3.84454 13.9989C3.87419 14.0303 4.02566 14.119 4.18145 14.1963C4.33724 14.2736 4.54666 14.3604 4.64719 14.3896C4.74746 14.4185 4.82535 14.4545 4.81996 14.4694C4.81457 14.4842 4.74449 14.5161 4.66417 14.5402C4.5728 14.5678 4.51593 14.6005 4.51162 14.6281C4.50785 14.6524 4.54423 14.7097 4.59248 14.7554C4.64072 14.8014 4.74072 14.8674 4.81484 14.9022C4.88896 14.9371 5.00432 14.9782 5.07089 14.9939C5.13746 15.0096 5.25579 15.0225 5.33368 15.0231C5.42882 15.0234 5.47491 15.0347 5.47464 15.0574C5.47437 15.0761 5.42586 15.1247 5.36683 15.1656C5.30781 15.2064 5.25956 15.2521 5.25956 15.267C5.25956 15.2818 5.29298 15.3172 5.33368 15.3456C5.37438 15.374 5.46251 15.4208 5.52909 15.4497C5.59566 15.4784 5.75684 15.5314 5.88675 15.5671C6.01693 15.6027 6.1234 15.6382 6.1234 15.6455C6.12367 15.6528 6.07488 15.6803 6.01505 15.7063C5.94039 15.7387 5.90858 15.7685 5.91344 15.8009C5.91721 15.8269 5.97489 15.885 6.04146 15.9299C6.10803 15.9748 6.24738 16.0394 6.35115 16.0737C6.45492 16.1078 6.61583 16.144 6.70854 16.1543C6.80126 16.1643 6.877 16.1819 6.877 16.1929C6.87673 16.204 6.85193 16.2468 6.82201 16.2876C6.79183 16.3284 6.76757 16.3711 6.76811 16.3822C6.76838 16.3933 6.8204 16.4257 6.88347 16.4539C6.94654 16.4822 7.11688 16.5398 7.26188 16.5823C7.46646 16.642 7.52899 16.6715 7.54004 16.7134C7.54758 16.7431 7.54731 16.7737 7.53896 16.781C7.5306 16.7883 7.44193 16.7561 7.34166 16.7091C7.24167 16.6623 7.12335 16.6196 7.07887 16.6144C7.00179 16.6058 6.99802 16.6099 6.99802 16.7066C6.99802 16.7623 6.98885 16.808 6.9778 16.808C6.96675 16.808 6.91824 16.7783 6.86999 16.7421C6.82174 16.7058 6.73684 16.6572 6.68132 16.6339C6.6258 16.6107 6.52661 16.5888 6.46112 16.585C6.39562 16.5812 6.33201 16.5874 6.31961 16.5985C6.30722 16.6099 6.3215 16.661 6.35115 16.7123C6.3808 16.7637 6.39589 16.8124 6.38484 16.8205C6.37379 16.8283 6.31907 16.8121 6.26355 16.7837C6.20803 16.7556 6.09591 16.7134 6.01424 16.6899C5.93257 16.6664 5.82153 16.6439 5.76708 16.6399C5.71264 16.6355 5.66089 16.6415 5.65253 16.6526C5.64391 16.6637 5.65523 16.7093 5.67733 16.754C5.69943 16.7986 5.71479 16.8416 5.71102 16.8497C5.70725 16.8578 5.63771 16.8456 5.55604 16.8224C5.47437 16.7994 5.32586 16.7805 5.22587 16.7807C5.09811 16.781 5.04421 16.791 5.04448 16.8148C5.04475 16.8334 5.06873 16.8789 5.09784 16.9162C5.12695 16.9532 5.15094 16.9989 5.15121 17.0176C5.15148 17.0432 5.12156 17.0414 5.02372 17.0092C4.95338 16.9859 4.79058 16.9646 4.66229 16.9619C4.53372 16.9589 4.4216 16.9659 4.41297 16.977C4.40408 16.9881 4.42106 17.0368 4.45017 17.0852C4.47928 17.1335 4.50353 17.1822 4.50407 17.1933C4.50461 17.2044 4.48359 17.2074 4.45771 17.2001C4.43184 17.1925 4.29519 17.1979 4.1545 17.2122C4.0138 17.2263 3.87715 17.2447 3.85128 17.2528C3.81785 17.2633 3.80842 17.2855 3.8192 17.3285C3.83268 17.3836 3.8219 17.3912 3.70465 17.4088C3.63323 17.4193 3.53242 17.4401 3.48067 17.4553C3.42893 17.4702 3.36208 17.4996 3.33243 17.5207C3.28904 17.5518 3.285 17.5661 3.31195 17.5959C3.33055 17.6161 3.33756 17.6418 3.32785 17.6529C3.31788 17.664 3.28176 17.6732 3.24699 17.6732C3.21249 17.6732 3.01143 17.711 2.80012 17.7573C2.58881 17.8035 2.33114 17.8708 2.22737 17.9065C2.1236 17.9425 2.03277 17.9776 2.02522 17.9852C2.01768 17.9925 2.02388 18.0103 2.0387 18.0247C2.05352 18.0387 2.18101 18.0801 2.3217 18.1163C2.4624 18.1526 2.7454 18.2107 2.94997 18.2453C3.27745 18.301 3.32058 18.3142 3.3071 18.3559C3.29578 18.3916 3.32004 18.4159 3.40655 18.4556C3.46962 18.4846 3.60142 18.5181 3.6998 18.53C3.87607 18.5516 3.87796 18.5527 3.8413 18.6127C3.80573 18.6708 3.80869 18.6744 3.90518 18.693C3.9607 18.7038 4.12458 18.713 4.26904 18.7133C4.42591 18.7138 4.53156 18.7249 4.53103 18.7411C4.53076 18.756 4.50704 18.7985 4.47793 18.8358C4.44882 18.8728 4.42483 18.9125 4.42456 18.9236C4.42429 18.9347 4.53022 18.9436 4.65986 18.9431C4.80729 18.9426 4.94879 18.9247 5.03774 18.8958C5.1159 18.8701 5.18571 18.8523 5.19272 18.856C5.19973 18.8598 5.17223 18.9125 5.13153 18.9731C5.0682 19.0672 5.06334 19.0869 5.09784 19.1088C5.12021 19.1229 5.21105 19.1269 5.29999 19.1175C5.38893 19.1083 5.52828 19.0785 5.60995 19.0512C5.69161 19.0242 5.76115 19.0072 5.76493 19.0137C5.7687 19.0199 5.75334 19.0615 5.73123 19.1061C5.70913 19.1507 5.69081 19.1994 5.69081 19.2143C5.69081 19.2291 5.72423 19.2416 5.76493 19.2418C5.80562 19.2421 5.92395 19.2167 6.02772 19.1853C6.13148 19.1542 6.25574 19.1053 6.30398 19.0767C6.35223 19.0483 6.40371 19.0312 6.41853 19.0385C6.43443 19.0464 6.42338 19.0883 6.39185 19.1399C6.3622 19.1883 6.34711 19.2373 6.35816 19.2489C6.36921 19.2605 6.41449 19.2694 6.45896 19.2689C6.50343 19.2683 6.58213 19.2567 6.63415 19.2427C6.68617 19.2286 6.7921 19.174 6.86999 19.121C6.94788 19.0683 7.01742 19.025 7.02497 19.025C7.03252 19.025 7.03036 19.0707 7.02039 19.1264L7.00233 19.2278C7.18696 19.1989 7.32253 19.147 7.42252 19.0942C7.52575 19.0396 7.61038 19.0096 7.61793 19.025C7.62548 19.0399 7.61928 19.0583 7.60445 19.0656C7.58963 19.0729 7.57723 19.1064 7.57696 19.1399C7.57669 19.197 7.58397 19.1994 7.69825 19.1805C7.76536 19.1694 7.88988 19.1253 7.97506 19.0826C8.06023 19.0399 8.14836 18.9845 8.17046 18.9596C8.19256 18.9347 8.22006 18.915 8.23111 18.9158C8.24216 18.9163 8.25429 18.9504 8.25806 18.9912C8.26372 19.0526 8.27774 19.0656 8.33838 19.0656C8.37881 19.0656 8.41304 19.0777 8.41439 19.0926C8.41573 19.1075 8.35859 19.1378 8.2869 19.1602C8.21547 19.1826 8.12976 19.2159 8.09634 19.2345C8.06292 19.2532 8.0357 19.2865 8.0357 19.3089C8.0357 19.3313 8.05403 19.3495 8.07613 19.3495C8.09823 19.3495 8.11683 19.3646 8.11683 19.3832C8.1171 19.4019 8.05969 19.4379 7.9888 19.4635C7.91819 19.489 7.82708 19.5347 7.78639 19.5649C7.74569 19.5952 7.71227 19.632 7.71227 19.6469C7.71227 19.6617 7.73652 19.6801 7.76617 19.6874C7.79582 19.6947 7.82008 19.7131 7.82008 19.728C7.82008 19.7428 7.79285 19.7607 7.75943 19.7674C7.72601 19.7742 7.64731 19.8169 7.58424 19.8621C7.52117 19.9072 7.46942 19.9594 7.46915 19.9781C7.46915 19.9967 7.5023 20.0248 7.54327 20.0405L7.61793 20.0689C7.47158 20.1451 7.37778 20.2084 7.31471 20.2584C7.25164 20.3087 7.20016 20.362 7.20016 20.3768C7.20016 20.3917 7.23655 20.4101 7.28102 20.4174L7.36188 20.4309C7.03305 20.7662 7.01068 20.8002 7.04599 20.8229C7.08292 20.8465 7.07887 20.8621 7.01338 20.9446C6.97214 20.9965 6.92336 21.0695 6.90503 21.1068C6.87754 21.162 6.87808 21.1779 6.90772 21.1933C6.93629 21.2082 6.9309 21.2288 6.88266 21.288C6.84897 21.3296 6.73145 21.4975 6.62175 21.6611C6.49589 21.8484 6.43093 21.9685 6.44656 21.9855C6.463 22.0031 6.52068 21.985 6.6134 21.9331C6.69156 21.8895 6.8646 21.7884 6.99802 21.7084C7.17752 21.6005 7.24517 21.5721 7.25838 21.5983C7.2732 21.6278 7.2918 21.6278 7.36619 21.5983C7.41578 21.5789 7.49098 21.5362 7.5333 21.5037C7.59906 21.4534 7.61335 21.4507 7.63249 21.4853C7.65243 21.5213 7.66321 21.5213 7.72844 21.4853C7.76887 21.4629 7.86051 21.3931 7.9322 21.3299C8.05888 21.2185 8.06265 21.2169 8.06265 21.2826C8.06265 21.3196 8.07775 21.3574 8.09634 21.3666C8.11521 21.3758 8.17558 21.3369 8.23299 21.2788C8.28986 21.2215 8.35644 21.1409 8.38123 21.0998C8.4063 21.0587 8.43568 21.0252 8.44673 21.0254C8.45778 21.0254 8.46721 21.0471 8.46748 21.073C8.46748 21.099 8.47665 21.1358 8.4877 21.1549C8.50171 21.1796 8.54053 21.156 8.62273 21.0738C8.68607 21.01 8.74375 20.9368 8.75076 20.9108C8.75776 20.8849 8.78175 20.8635 8.80385 20.8635C8.82596 20.8635 8.85075 20.8908 8.85857 20.9243C8.87204 20.983 8.87555 20.9816 8.95371 20.8905C8.99818 20.8386 9.05856 20.7443 9.08767 20.681C9.11678 20.6177 9.15289 20.5661 9.16772 20.5661C9.18254 20.5661 9.2006 20.5904 9.20815 20.6202C9.21569 20.6499 9.23375 20.6742 9.24858 20.6742C9.2634 20.6742 9.30464 20.6348 9.34048 20.5864C9.37606 20.538 9.41892 20.4439 9.4359 20.3768C9.46528 20.2584 9.4677 20.2565 9.51918 20.3025C9.54829 20.3284 9.58117 20.3449 9.59222 20.339C9.60327 20.3333 9.64882 20.2538 9.6933 20.1627C9.73777 20.0716 9.78332 19.9975 9.79437 19.9978C9.80542 19.9981 9.81458 20.0164 9.81458 20.0389C9.81458 20.0613 9.82671 20.0794 9.84154 20.0794C9.85636 20.0794 9.89329 20.0459 9.92347 20.0051C9.95366 19.9643 9.99598 19.8729 10.0178 19.8023C10.0504 19.6955 10.0663 19.6761 10.1111 19.6874C10.1407 19.6947 10.1741 19.6858 10.1852 19.6671C10.1962 19.6487 10.2305 19.5728 10.2612 19.4982C10.3065 19.3889 10.3283 19.3643 10.3757 19.3697C10.4097 19.3735 10.4447 19.3565 10.4588 19.3292C10.4722 19.3032 10.4914 19.2332 10.5011 19.1737C10.511 19.1142 10.5243 19.032 10.5307 18.9912C10.5407 18.9277 10.5485 18.9217 10.5849 18.9507C10.6194 18.9782 10.6321 18.9769 10.6517 18.9439C10.6649 18.9215 10.7035 18.7844 10.7372 18.6392C10.7709 18.494 10.8105 18.3753 10.8253 18.3759C10.8431 18.3761 10.8412 18.4943 10.8205 18.7209C10.8029 18.9104 10.7878 19.1994 10.787 19.363C10.7862 19.5265 10.8102 19.8672 10.8404 20.12C10.8703 20.3728 10.9037 20.8321 10.914 21.1406L10.9331 21.7019C11.1048 21.7016 11.1091 21.6965 11.1258 21.5732C11.1353 21.5026 11.1353 21.2866 11.1256 21.0933C11.1159 20.9 11.0841 20.535 11.0547 20.2822C11.0226 20.0062 11.0013 19.6498 11.0013 19.39C11.0016 19.1521 11.0196 18.7749 11.0417 18.5519C11.0638 18.3288 11.0878 18.1401 11.0951 18.1328C11.1024 18.1255 11.1132 18.1255 11.1194 18.1328C11.1253 18.1401 11.1811 18.3226 11.2431 18.5384C11.3051 18.7541 11.3698 18.9458 11.387 18.9645C11.4086 18.988 11.4288 18.9901 11.452 18.9712C11.4754 18.9523 11.4889 18.9542 11.4967 18.9777C11.5026 18.9964 11.5212 19.0845 11.5382 19.1737C11.5549 19.2629 11.5835 19.3513 11.6013 19.37C11.6237 19.3935 11.6444 19.3957 11.6676 19.3768C11.6927 19.3565 11.7153 19.3819 11.7563 19.4779C11.7867 19.5484 11.8215 19.6244 11.8336 19.6469C11.8457 19.6693 11.8832 19.6874 11.9169 19.6874C11.9654 19.6874 11.9856 19.712 12.0161 19.8091C12.0368 19.8761 12.0824 19.9672 12.1172 20.0118C12.1738 20.0848 12.1845 20.0889 12.2242 20.0524C12.2487 20.03 12.2719 20.0181 12.2756 20.0254C12.2797 20.0327 12.3128 20.104 12.3492 20.1838C12.3856 20.2636 12.4247 20.3336 12.4357 20.3393C12.4468 20.3449 12.4773 20.3317 12.5031 20.3098C12.5465 20.2733 12.5533 20.2792 12.5867 20.3841C12.6066 20.4471 12.6522 20.538 12.6878 20.5864C12.7233 20.6348 12.7646 20.6742 12.7794 20.6742C12.7942 20.6742 12.8123 20.6499 12.8198 20.6202C12.8274 20.5904 12.8454 20.5661 12.8603 20.5661C12.8751 20.5661 12.9112 20.6177 12.9403 20.681C12.9694 20.7443 13.0298 20.8386 13.0743 20.8905C13.1524 20.9816 13.1559 20.983 13.1694 20.9243C13.1772 20.8908 13.1928 20.8632 13.2039 20.8632C13.215 20.863 13.2697 20.9238 13.3252 20.9984C13.3807 21.0728 13.4505 21.146 13.4802 21.1609C13.5271 21.1844 13.5357 21.1777 13.5475 21.1068C13.5551 21.0622 13.5732 21.0257 13.588 21.0257C13.6028 21.0257 13.6149 21.0379 13.6149 21.0527C13.6149 21.0676 13.6785 21.1471 13.7564 21.2296C13.8343 21.3118 13.9071 21.3788 13.9181 21.3783C13.9292 21.3777 13.9443 21.3466 13.9518 21.3096C13.9594 21.2723 13.9745 21.2417 13.9855 21.2412C13.9966 21.2407 14.03 21.2663 14.0597 21.2982C14.0893 21.3304 14.165 21.3915 14.2281 21.4345C14.2912 21.4772 14.3548 21.5124 14.3696 21.5124C14.3844 21.5124 14.3966 21.4943 14.3966 21.4718C14.3966 21.441 14.4144 21.4461 14.4707 21.4932C14.5114 21.5275 14.5933 21.5713 14.6526 21.5905C14.7356 21.6178 14.7637 21.6184 14.7739 21.5935C14.7829 21.5718 14.8458 21.597 14.9626 21.6689C15.0588 21.7281 15.2256 21.8265 15.3332 21.8879C15.4407 21.949 15.5407 21.999 15.5555 21.999C15.5704 21.999 15.5825 21.9809 15.5825 21.9585C15.5825 21.936 15.5283 21.8357 15.4623 21.7354C15.396 21.6351 15.2809 21.477 15.2062 21.3839C15.1035 21.2561 15.0801 21.2117 15.1108 21.2014C15.1437 21.1904 15.1456 21.1739 15.1219 21.1136C15.1057 21.0728 15.0572 20.9935 15.014 20.9378C14.9709 20.8821 14.9477 20.8365 14.9626 20.8365C14.9774 20.8365 14.9895 20.8183 14.9895 20.7959C14.9895 20.7735 14.9168 20.6823 14.8278 20.5931C14.672 20.4369 14.6685 20.4304 14.7335 20.4174C14.7784 20.4084 14.7986 20.3881 14.7941 20.3566C14.7903 20.3306 14.7124 20.2606 14.6205 20.2011C14.5289 20.1416 14.4532 20.0838 14.4521 20.0727C14.4513 20.0616 14.4747 20.0462 14.5044 20.0389C14.534 20.0316 14.5583 20.0072 14.5583 19.9848C14.5583 19.9624 14.5068 19.9072 14.4437 19.8621C14.3807 19.8169 14.302 19.7742 14.2685 19.7674C14.2351 19.7607 14.2079 19.7428 14.2079 19.728C14.2079 19.7131 14.2327 19.6917 14.2626 19.6806C14.2928 19.6696 14.3133 19.6482 14.3079 19.6333C14.3025 19.6185 14.2626 19.5817 14.2192 19.5514C14.1761 19.5211 14.0828 19.4787 14.0122 19.4568C13.9419 19.4349 13.8842 19.4079 13.8842 19.3968C13.8845 19.3857 13.9087 19.3703 13.9384 19.363C13.968 19.3557 13.9923 19.3373 13.9923 19.3224C13.9923 19.3075 13.9588 19.2702 13.9181 19.2394C13.8775 19.2089 13.7925 19.1724 13.7295 19.1583C13.6567 19.1424 13.6149 19.1183 13.6149 19.0926C13.6149 19.0656 13.6329 19.0566 13.6688 19.0656C13.7103 19.0758 13.7289 19.0604 13.7497 18.998L13.7766 18.9169C13.975 19.0512 14.0904 19.1121 14.1607 19.1386C14.2311 19.1653 14.3192 19.1872 14.3561 19.1872C14.3933 19.1872 14.4294 19.1751 14.437 19.1602C14.4445 19.1453 14.4383 19.1088 14.4235 19.0791C14.4087 19.0493 14.4057 19.0247 14.4168 19.0245C14.4278 19.0239 14.5311 19.0667 14.6459 19.1191C14.7607 19.1713 14.8852 19.2143 14.9221 19.2143C14.9806 19.2143 14.9893 19.2029 14.9868 19.1264C14.9852 19.078 14.9849 19.0264 14.9863 19.0115C14.9874 18.9966 15.0219 19.0172 15.0631 19.0572C15.1041 19.0969 15.2043 19.1607 15.286 19.1989C15.3709 19.2383 15.483 19.2678 15.5488 19.2681C15.6119 19.2683 15.6633 19.2562 15.6633 19.2413C15.6633 19.2264 15.6361 19.1694 15.6027 19.1142C15.5442 19.018 15.5439 19.015 15.596 19.031C15.6256 19.0402 15.7226 19.0788 15.8116 19.1167C15.9005 19.1545 16.0339 19.1999 16.1081 19.2175C16.1822 19.2351 16.2641 19.2416 16.29 19.2318C16.335 19.2151 16.335 19.2097 16.29 19.1202C16.2641 19.0685 16.252 19.0199 16.263 19.012C16.2741 19.0045 16.3196 19.0161 16.3641 19.0385C16.4086 19.061 16.5328 19.0913 16.6404 19.1064C16.7479 19.1215 16.8571 19.1275 16.883 19.1199C16.9088 19.1123 16.9301 19.094 16.9301 19.0791C16.9301 19.0642 16.9059 19.0093 16.8762 18.9574C16.8393 18.8928 16.8328 18.8628 16.856 18.8631C16.8746 18.8633 16.9503 18.8817 17.0245 18.9039C17.0986 18.9263 17.2533 18.9444 17.3681 18.9442C17.4891 18.9442 17.577 18.9326 17.577 18.9169C17.577 18.902 17.5527 18.8533 17.5231 18.8087L17.4692 18.7276C17.7721 18.7273 17.9328 18.7149 18.0217 18.6998C18.1107 18.6849 18.1864 18.6665 18.1902 18.6595C18.1939 18.6525 18.1848 18.6222 18.17 18.5924C18.1457 18.5438 18.1519 18.5384 18.2306 18.5386C18.2788 18.5386 18.391 18.5194 18.4799 18.4959C18.5689 18.4724 18.6629 18.4421 18.6888 18.4283C18.7236 18.4097 18.729 18.3926 18.709 18.3626C18.6942 18.3402 18.6912 18.3169 18.7023 18.3107C18.7133 18.3048 18.8802 18.2737 19.0729 18.2423C19.2656 18.2107 19.5203 18.1609 19.6389 18.1317C19.7575 18.1023 19.8885 18.0633 19.9297 18.0447C19.9709 18.0263 20.0046 18.0049 20.0044 17.9976C20.0041 17.9903 19.9278 17.9571 19.8348 17.9241C19.7418 17.8911 19.5688 17.8403 19.4502 17.8113C19.3316 17.7822 19.1254 17.7381 18.992 17.7132C18.8586 17.6883 18.7343 17.6632 18.7157 17.6572C18.692 17.6494 18.6901 17.634 18.709 17.6056C18.7238 17.5832 18.73 17.5529 18.7225 17.538C18.7149 17.5231 18.6513 17.4934 18.581 17.4718C18.5106 17.4501 18.4044 17.425 18.3451 17.4155C18.2859 17.4063 18.2222 17.3934 18.2036 17.3871C18.1794 17.379 18.1775 17.3609 18.1969 17.3217C18.2163 17.2825 18.2147 17.2647 18.1902 17.2568C18.1716 17.2509 18.0322 17.2328 17.8802 17.2163C17.7282 17.2001 17.5918 17.1928 17.577 17.2001C17.5622 17.2074 17.5379 17.2074 17.5231 17.2001C17.5075 17.1922 17.5185 17.1527 17.55 17.1054C17.5797 17.0608 17.6039 17.0122 17.6039 16.9973C17.6039 16.9824 17.5584 16.9627 17.5029 16.9535C17.4473 16.9443 17.3048 16.9516 17.1862 16.9697C17.0676 16.9875 16.9522 17.013 16.9301 17.0262C16.908 17.0392 16.8811 17.0411 16.8706 17.0303C16.86 17.0197 16.8813 16.9681 16.918 16.9162C16.9544 16.8643 16.9843 16.8124 16.984 16.8013C16.984 16.7902 16.89 16.7813 16.7751 16.7818C16.6528 16.7823 16.508 16.8021 16.4256 16.8291C16.3479 16.8548 16.2843 16.8664 16.2841 16.8553C16.2835 16.8443 16.3046 16.7994 16.3304 16.7558C16.3563 16.712 16.3676 16.6666 16.3552 16.6545C16.3431 16.6423 16.2884 16.6358 16.2339 16.6404C16.1795 16.6447 16.0684 16.6674 15.9868 16.691C15.9051 16.7145 15.793 16.7567 15.7375 16.7845C15.6819 16.8124 15.631 16.8259 15.6245 16.8148C15.6178 16.8037 15.6359 16.758 15.6647 16.7134C15.6935 16.6688 15.717 16.6231 15.717 16.612C15.7172 16.6009 15.69 16.5863 15.6566 16.5796C15.6232 16.5728 15.5412 16.5788 15.4747 16.5931C15.4081 16.6071 15.2836 16.6615 15.1984 16.7134C15.1124 16.7661 15.0375 16.7961 15.03 16.781C15.0224 16.7661 15.0224 16.7234 15.03 16.6864C15.0418 16.6263 15.0345 16.6188 14.9626 16.6188C14.9181 16.6188 14.7909 16.6553 14.6796 16.6999C14.5685 16.7445 14.4715 16.7748 14.4639 16.7675C14.4564 16.7602 14.461 16.7326 14.4742 16.7066C14.4895 16.6755 14.6079 16.6266 14.817 16.5647C14.9928 16.5128 15.1609 16.4506 15.1911 16.4268L15.2456 16.3833C15.1529 16.2411 15.1256 16.1905 15.1251 16.1794C15.1246 16.1683 15.182 16.1589 15.2523 16.1586C15.3227 16.1583 15.4531 16.1389 15.5421 16.1154C15.631 16.0918 15.7703 16.0391 15.852 15.998C15.9337 15.9569 16.0215 15.9034 16.0474 15.8791C16.0733 15.8547 16.0946 15.8166 16.0946 15.7942C16.0946 15.7717 16.0458 15.7322 15.986 15.7063C15.9261 15.6803 15.8776 15.6528 15.8782 15.6455C15.8784 15.6382 15.9849 15.6041 16.1148 15.5703C16.2444 15.5365 16.4172 15.4778 16.4989 15.4403C16.5805 15.4024 16.6687 15.351 16.6951 15.3262C16.7215 15.301 16.7428 15.2713 16.7423 15.2602C16.7417 15.2491 16.6873 15.2004 16.621 15.152C16.5547 15.1037 16.5062 15.055 16.5132 15.0439C16.5202 15.0328 16.5986 15.0236 16.6876 15.0236C16.7765 15.0236 16.9191 15.0017 17.0042 14.9752C17.0894 14.9485 17.2139 14.8955 17.2805 14.8573C17.3471 14.8192 17.4293 14.753 17.4633 14.71C17.4969 14.6667 17.5153 14.6229 17.5037 14.6121C17.4921 14.6016 17.4161 14.5697 17.3344 14.5416C17.2528 14.5134 17.1832 14.4797 17.1794 14.4664C17.1757 14.4532 17.2544 14.4204 17.3546 14.3939C17.4546 14.3672 17.6579 14.2858 17.8061 14.2131C17.9543 14.1401 18.1061 14.0495 18.143 14.0119C18.1802 13.9741 18.2028 13.9276 18.1939 13.9089C18.1848 13.89 18.1088 13.8532 18.0255 13.8273C17.9419 13.8013 17.8735 13.7678 17.8735 13.7529C17.8735 13.738 17.9128 13.7183 17.9611 13.7091C18.0093 13.6996 18.1152 13.658 18.1969 13.6166C18.2786 13.575 18.3875 13.509 18.4395 13.4701C18.4915 13.4312 18.5861 13.3479 18.65 13.2855C18.7136 13.2227 18.7562 13.1622 18.7443 13.1505C18.7322 13.1389 18.6435 13.1073 18.5473 13.0802C18.4511 13.0532 18.3743 13.02 18.377 13.0067C18.3794 12.9932 18.4284 12.964 18.4858 12.9418C18.5433 12.9196 18.6562 12.8629 18.737 12.8158C18.8179 12.7688 18.957 12.6679 19.0459 12.5917C19.1349 12.5152 19.226 12.4224 19.2481 12.3854C19.2839 12.3257 19.2839 12.3154 19.2481 12.2932C19.226 12.2794 19.1653 12.261 19.1133 12.2524C19.0613 12.2437 19.0006 12.2254 18.9785 12.2116C18.9446 12.1905 18.9492 12.1788 19.0055 12.1396C19.0427 12.114 19.15 12.0193 19.2443 11.9293C19.3384 11.8393 19.4747 11.6898 19.5475 11.5968C19.62 11.5037 19.6793 11.4156 19.6793 11.4007C19.6793 11.3859 19.6429 11.3675 19.5985 11.3602C19.554 11.3529 19.5181 11.3375 19.5187 11.3264C19.5195 11.3153 19.5831 11.2388 19.6602 11.1566C19.7375 11.0744 19.8461 10.9192 19.9017 10.8119C19.9572 10.7046 20.0027 10.6045 20.0027 10.5896C20.0027 10.5748 19.9664 10.5626 19.9219 10.5626C19.8774 10.5626 19.841 10.5504 19.841 10.5356C19.841 10.5207 19.8917 10.4507 19.9537 10.3801C20.0157 10.3096 20.1752 10.1057 20.3084 9.92726C20.4415 9.74881 20.6227 9.49332 20.7105 9.35949C20.7987 9.22566 20.8997 9.0583 20.9353 8.98774C20.9709 8.91717 21 8.84715 21 8.83228C20.9998 8.81426 20.9706 8.81435 20.9124 8.83255C20.8642 8.84769 20.7156 8.91312 20.5822 8.97828C20.4488 9.04343 20.1879 9.18483 20.0027 9.29244C19.8176 9.40031 19.5596 9.55956 19.43 9.64689C19.3004 9.73422 19.1882 9.80559 19.1807 9.80559C19.1731 9.80559 19.1675 9.76612 19.1677 9.71772C19.1686 9.63202 19.1661 9.6304 19.0802 9.65121C19.0316 9.66284 18.9195 9.70556 18.8311 9.74584C18.7427 9.78613 18.6034 9.87048 18.5212 9.93347C18.4392 9.9962 18.3629 10.0419 18.3519 10.0349C18.3408 10.0276 18.3319 9.99458 18.3325 9.96105C18.3328 9.92753 18.3239 9.89157 18.3123 9.88075C18.3007 9.87021 18.2489 9.884 18.1969 9.91157C18.1449 9.93915 18.0055 10.0346 17.887 10.1235C17.7684 10.2125 17.6228 10.3358 17.5635 10.3974C17.5042 10.4591 17.4465 10.5091 17.4355 10.5091C17.4244 10.5088 17.4029 10.4326 17.3878 10.3396C17.3724 10.2466 17.3544 10.1644 17.3476 10.1571C17.3409 10.1498 17.2846 10.18 17.2228 10.2247C17.1611 10.2693 17.0366 10.3869 16.9463 10.4858C16.8557 10.5848 16.7334 10.7475 16.6741 10.8473C16.5881 10.9922 16.5628 11.0184 16.5487 10.9782C16.539 10.9503 16.521 10.8514 16.5083 10.7584C16.4956 10.6651 16.4762 10.5891 16.4652 10.5894C16.4541 10.5894 16.3814 10.6418 16.3035 10.7056C16.2256 10.7694 16.0984 10.9062 16.0205 11.0098C15.9426 11.1133 15.8628 11.2466 15.8431 11.3061C15.8232 11.3656 15.796 11.4143 15.7825 11.4143C15.7693 11.4143 15.7399 11.3415 15.7175 11.2523C15.6889 11.1385 15.6628 11.0885 15.6297 11.0833C15.6016 11.0793 15.5434 11.1231 15.4863 11.1912C15.4334 11.2545 15.3458 11.3791 15.2917 11.4683C15.2375 11.5576 15.1537 11.7187 15.1049 11.8266C15.0564 11.9344 15.0076 12.0256 14.9965 12.0293C14.9855 12.0331 14.9612 11.9601 14.9426 11.8671C14.9165 11.7376 14.8976 11.6981 14.8615 11.6979C14.8356 11.6976 14.765 11.7492 14.7046 11.8128C14.6443 11.876 14.5763 11.9585 14.5537 11.9955C14.5311 12.0329 14.4882 12.1302 14.458 12.2118C14.4281 12.2935 14.396 12.4184 14.3866 12.489C14.3766 12.5647 14.3559 12.6174 14.3359 12.6174C14.3173 12.6174 14.278 12.5725 14.2483 12.5176C14.2187 12.463 14.1793 12.4143 14.1607 12.4097C14.1421 12.4049 14.0998 12.4295 14.0664 12.4644C14.033 12.499 13.9618 12.6177 13.9082 12.728C13.8545 12.838 13.7909 12.9921 13.7667 13.0702C13.7424 13.1484 13.7136 13.2125 13.7025 13.2127C13.6915 13.2133 13.6672 13.1646 13.6486 13.1046C13.6241 13.0251 13.6004 12.9959 13.561 12.9959C13.5314 12.9959 13.4702 13.0413 13.4249 13.0973C13.3799 13.153 13.3077 13.2717 13.2645 13.3609C13.2214 13.4501 13.1654 13.6083 13.14 13.7124C13.1147 13.8164 13.0899 13.9078 13.0848 13.9151C13.0799 13.9224 13.0484 13.9016 13.0152 13.8684C12.9818 13.8354 12.9333 13.8078 12.9074 13.8075C12.8813 13.8073 12.836 13.8494 12.8063 13.9016C12.7767 13.9538 12.7341 13.9962 12.712 13.9962C12.6829 13.9962 12.6764 13.9789 12.6886 13.9354C12.698 13.9019 12.7813 13.7105 12.8737 13.5096C12.9662 13.3087 13.0495 13.1173 13.0589 13.0838C13.0689 13.0478 13.0621 13.0132 13.0422 12.9989C13.0236 12.9859 12.957 12.9675 12.8939 12.9583L12.7794 12.9418C12.9646 12.6798 13.0554 12.5217 13.1009 12.4214C13.1465 12.3211 13.2034 12.1629 13.2271 12.0699C13.2511 11.9769 13.2632 11.8674 13.254 11.8266C13.2427 11.7757 13.2206 11.7522 13.1837 11.7522C13.154 11.7522 13.0869 11.7795 13.0346 11.813C12.9821 11.8466 12.9336 11.8647 12.9268 11.8536C12.9198 11.8425 12.9748 11.7117 13.0489 11.563C13.123 11.4143 13.2079 11.2196 13.2376 11.1304C13.2672 11.0412 13.2915 10.9317 13.2915 10.887C13.2915 10.8424 13.2764 10.7989 13.2578 10.79C13.2392 10.7813 13.1575 10.7884 13.0759 10.8057C12.9942 10.823 12.9217 10.8303 12.9142 10.8222C12.9066 10.8141 12.922 10.7797 12.9481 10.7459C12.9743 10.7119 13.0376 10.6297 13.0891 10.5626C13.1406 10.4956 13.2193 10.3528 13.264 10.2449C13.3087 10.1371 13.3527 9.97889 13.3613 9.89346C13.3707 9.8037 13.3651 9.70664 13.3478 9.66365L13.3184 9.5893C13.005 9.75693 12.9077 9.80262 12.9001 9.79883C12.8923 9.79505 12.933 9.69474 12.9907 9.57578C13.0484 9.45682 13.1212 9.28027 13.1524 9.18375C13.1837 9.08723 13.2276 8.9288 13.25 8.83228C13.2724 8.73576 13.291 8.61707 13.2912 8.56867C13.2916 8.50992 13.276 8.47459 13.2443 8.46269C13.2144 8.45107 13.1354 8.47837 13.0295 8.53704C12.9373 8.58787 12.8554 8.62031 12.8476 8.60923C12.8398 8.59814 12.8592 8.53731 12.8904 8.47405C12.922 8.41078 12.9708 8.26803 12.9988 8.15637C13.033 8.01956 13.0495 7.85897 13.0492 7.66295C13.0489 7.40394 13.0438 7.37231 13.0018 7.37285C12.9759 7.37312 12.8697 7.42801 12.7659 7.49452C12.6621 7.56103 12.5713 7.60942 12.5638 7.60185C12.5562 7.59428 12.5713 7.54264 12.5972 7.48695C12.6231 7.43125 12.6635 7.31283 12.6872 7.22361C12.7112 7.13439 12.7373 6.90945 12.7454 6.72344C12.7535 6.5377 12.7524 6.35196 12.743 6.31113C12.7333 6.27031 12.7104 6.23651 12.6918 6.23624C12.6732 6.2357 12.5883 6.28437 12.5031 6.34439C12.418 6.40414 12.3473 6.4501 12.3463 6.44631C12.3452 6.44253 12.3403 6.26923 12.3355 6.06104C12.3306 5.85286 12.3131 5.59737 12.2964 5.49328C12.28 5.38919 12.2606 5.2705 12.2533 5.22967C12.2463 5.18885 12.2282 5.15532 12.2134 5.15532C12.1986 5.15532 12.15 5.17966 12.1056 5.2094C12.0468 5.24887 12.0215 5.25428 12.0134 5.22967C12.0069 5.21102 11.9937 5.10477 11.9837 4.99311C11.9738 4.88172 11.9412 4.71112 11.9112 4.6146C11.8813 4.51808 11.8342 4.39317 11.8061 4.33747C11.7781 4.28178 11.7431 4.23609 11.7282 4.23609C11.7134 4.23609 11.6741 4.27231 11.6406 4.31692L11.58 4.39749C11.4805 3.75916 11.4002 3.34253 11.3371 3.06C11.2741 2.77747 11.1819 2.42546 11.1318 2.27757C11.0819 2.12968 11.0277 2.0045 11.0118 1.99936C10.9957 1.99422 10.9571 2.0483 10.9264 2.1194Z"/>
</mask>
<path d="M10.9264 2.1194C10.8954 2.19078 10.8329 2.38896 10.7876 2.55983C10.742 2.7307 10.6676 3.04729 10.6221 3.26277C10.5765 3.47825 10.5159 3.80702 10.4871 3.99276C10.4585 4.17877 10.4353 4.34288 10.4353 4.35775C10.4356 4.37262 10.3981 4.34829 10.3523 4.30368C10.2701 4.22392 10.2682 4.22338 10.2294 4.27664C10.2078 4.30638 10.1652 4.39749 10.1342 4.47941C10.1035 4.56133 10.062 4.7195 10.0418 4.83089C10.0216 4.94255 10.0046 5.0853 10.0041 5.14857C10.0038 5.21183 9.99732 5.26347 9.98978 5.26347C9.98223 5.26347 9.93992 5.23914 9.89544 5.2094C9.85097 5.17966 9.80542 5.15992 9.79437 5.16587C9.78332 5.17155 9.75906 5.2413 9.741 5.32133C9.72268 5.40109 9.69572 5.61846 9.6809 5.8042C9.66634 5.99021 9.66311 6.20623 9.67362 6.28437C9.68845 6.39089 9.68467 6.42658 9.65961 6.42631C9.64101 6.42631 9.56527 6.38359 9.49115 6.33141C9.41703 6.27923 9.33806 6.23678 9.31596 6.23678C9.29386 6.23678 9.2696 6.26409 9.26232 6.29761C9.25531 6.33114 9.24911 6.46172 9.24858 6.58826C9.24831 6.71479 9.26636 6.92459 9.28873 7.05463C9.31111 7.18468 9.35369 7.35825 9.38334 7.4399C9.41299 7.52155 9.43428 7.59401 9.43051 7.6005C9.42673 7.60672 9.33887 7.55778 9.2351 7.49154C9.13133 7.4253 9.02514 7.37123 8.99926 7.37177C8.95775 7.37231 8.95209 7.40286 8.95209 7.62916C8.95209 7.77056 8.97096 7.98036 8.99387 8.09554C9.01705 8.21071 9.06557 8.36888 9.10168 8.44701C9.13807 8.52515 9.16206 8.59814 9.15505 8.60923C9.14831 8.62031 9.07554 8.59003 8.99333 8.54164C8.9114 8.49324 8.81706 8.45674 8.78364 8.46053C8.72758 8.46675 8.72353 8.47945 8.72866 8.62951C8.73189 8.71873 8.76612 8.90122 8.80466 9.03505C8.84294 9.16888 8.92838 9.39085 8.99414 9.52847C9.05991 9.66608 9.10465 9.7845 9.0936 9.79153C9.08255 9.79856 9.00061 9.76233 8.91167 9.71096C8.82272 9.65959 8.72866 9.61742 8.70278 9.61688C8.67071 9.61661 8.65049 9.64445 8.63944 9.7042C8.63028 9.7526 8.63163 9.84669 8.64214 9.91374C8.65238 9.98079 8.68823 10.1084 8.72138 10.1976C8.75453 10.2868 8.82488 10.4269 8.8777 10.5085C8.93026 10.5902 9.00519 10.6908 9.04373 10.7316C9.08228 10.7724 9.10734 10.8151 9.09926 10.8262C9.09144 10.8373 9.01274 10.8314 8.92406 10.8127C8.83566 10.794 8.7513 10.7851 8.73647 10.7924C8.72165 10.7997 8.70925 10.8395 8.70925 10.8803C8.70898 10.9211 8.73432 11.0339 8.76558 11.1304C8.79685 11.2269 8.88202 11.4248 8.95479 11.5697C9.02729 11.7146 9.0812 11.8425 9.07419 11.8536C9.06745 11.8647 9.01894 11.8466 8.96638 11.813C8.91409 11.7795 8.85291 11.7522 8.83081 11.7522C8.80871 11.7522 8.77825 11.7765 8.76343 11.8063C8.74564 11.842 8.74537 11.9085 8.76289 12.0023C8.77744 12.0804 8.82407 12.2294 8.86638 12.3335C8.9087 12.4376 8.97743 12.5774 9.01894 12.6444C9.06071 12.7115 9.12378 12.8026 9.15936 12.8472C9.19467 12.8918 9.21596 12.9345 9.20653 12.9418C9.1971 12.9491 9.13915 12.9616 9.07743 12.9694C8.96961 12.9826 8.96557 12.9867 8.968 13.0775C8.96934 13.1335 9.04239 13.3247 9.14912 13.5501C9.24723 13.7583 9.32809 13.9438 9.32863 13.9624C9.32916 13.9811 9.31111 13.9962 9.289 13.9962C9.2669 13.9962 9.22728 13.9535 9.20141 13.9011C9.17122 13.84 9.13483 13.8056 9.10034 13.8056C9.07069 13.8054 9.02217 13.8302 8.99252 13.8611C8.96288 13.8919 8.93269 13.9165 8.92514 13.9162C8.9176 13.9157 8.89711 13.8392 8.87905 13.7462C8.86126 13.6531 8.79792 13.4798 8.7389 13.3609C8.6796 13.2419 8.60036 13.1111 8.56263 13.0702C8.52489 13.0294 8.46964 12.9959 8.43999 12.9959C8.40307 12.9959 8.38123 13.0191 8.37045 13.0702C8.36183 13.1111 8.3497 13.1597 8.3435 13.1784C8.3373 13.197 8.32302 13.2125 8.31197 13.2127C8.30091 13.2133 8.27531 13.1614 8.25536 13.0978C8.23542 13.0343 8.17693 12.891 8.12572 12.7796C8.07451 12.6679 8.00282 12.5374 7.9667 12.489C7.93058 12.4406 7.88261 12.4011 7.86051 12.4011C7.8384 12.4011 7.78854 12.4589 7.75027 12.5295C7.71092 12.6017 7.67157 12.646 7.66025 12.6309C7.6492 12.616 7.62602 12.5246 7.60877 12.4281C7.59152 12.3316 7.54354 12.1794 7.50203 12.0902C7.46053 12.0009 7.37562 11.8763 7.31336 11.813C7.2511 11.7498 7.17941 11.7011 7.15407 11.7049C7.12793 11.7087 7.09936 11.7468 7.08804 11.7928C7.07699 11.8374 7.06136 11.9074 7.05327 11.9482C7.04518 11.9891 7.02524 12.0196 7.00934 12.0158C6.99316 12.012 6.95301 11.942 6.91985 11.8604C6.8867 11.7787 6.80989 11.6265 6.74951 11.5224C6.68914 11.4183 6.58968 11.2753 6.52904 11.2047C6.46812 11.1342 6.4002 11.0763 6.3781 11.0763C6.35546 11.0763 6.32689 11.115 6.31315 11.1642C6.29967 11.2126 6.28134 11.2856 6.27272 11.3264C6.26409 11.3672 6.24765 11.4013 6.2366 11.4018C6.22555 11.4024 6.17461 11.3202 6.12367 11.2193C6.06033 11.0944 5.95845 10.9622 5.80455 10.8059C5.58838 10.5861 5.57679 10.5786 5.54014 10.6302C5.51912 10.6599 5.49297 10.7543 5.48192 10.84C5.46952 10.9363 5.44877 10.9957 5.42802 10.9955C5.40942 10.9955 5.39432 10.983 5.39432 10.9682C5.39432 10.9533 5.35012 10.8711 5.29622 10.7857C5.24204 10.7002 5.11159 10.5407 5.00647 10.4315C4.90109 10.3223 4.78142 10.216 4.74072 10.1949C4.67441 10.1611 4.66417 10.1619 4.64342 10.2044C4.63048 10.2303 4.61242 10.3063 4.60326 10.3734C4.5941 10.4404 4.58331 10.498 4.57927 10.5015C4.5755 10.5053 4.51458 10.4537 4.44424 10.3866C4.37389 10.3198 4.21622 10.1909 4.09385 10.1C3.97149 10.0092 3.83807 9.91779 3.79737 9.89725C3.75667 9.87643 3.71112 9.86588 3.6963 9.87318C3.68147 9.88048 3.66961 9.91401 3.67015 9.94753C3.67042 9.98106 3.66153 10.0173 3.64994 10.0278C3.63835 10.0386 3.56827 9.99836 3.49415 9.93807C3.42003 9.87778 3.28661 9.79261 3.19767 9.74909C3.10873 9.70529 2.99121 9.66041 2.9365 9.64959C2.83947 9.6304 2.83704 9.63175 2.82869 9.71772L2.82033 9.80559C2.56967 9.6358 2.33922 9.49143 2.14651 9.37544C1.9538 9.25946 1.68077 9.10643 1.54007 9.03559C1.39938 8.96476 1.22338 8.88365 1.14926 8.85526C1.07514 8.82714 1.00856 8.81011 1.00102 8.81741C0.99347 8.82471 1.02878 8.90717 1.07918 9.00045C1.12958 9.09399 1.24413 9.27973 1.33388 9.41356C1.42364 9.54739 1.58832 9.77855 1.69963 9.92726C1.81095 10.076 1.9662 10.2736 2.04463 10.3666C2.12279 10.4596 2.17885 10.5418 2.16888 10.5491C2.15918 10.5567 2.11659 10.5626 2.07455 10.5626C2.00851 10.5626 2.00043 10.5707 2.01525 10.6234C2.02441 10.657 2.05029 10.7208 2.07239 10.7654C2.09476 10.81 2.16457 10.9195 2.22791 11.0087C2.29098 11.0979 2.3748 11.2012 2.41388 11.2385C2.45296 11.2756 2.4845 11.3153 2.48423 11.3264C2.48369 11.3375 2.44703 11.3529 2.40256 11.3602C2.35809 11.3675 2.32143 11.3829 2.3209 11.394C2.32063 11.4051 2.35701 11.4659 2.40175 11.5292C2.44677 11.5924 2.56105 11.7263 2.65592 11.8266C2.75079 11.9269 2.87801 12.0456 2.93838 12.0902C2.99876 12.1348 3.04862 12.1775 3.04943 12.1848C3.04997 12.1921 2.97747 12.2197 2.88825 12.2456C2.79904 12.2716 2.72546 12.3081 2.72492 12.3267C2.72438 12.3454 2.78826 12.4216 2.86642 12.4963C2.94485 12.5709 3.06964 12.6758 3.14376 12.7296C3.21789 12.7831 3.34214 12.8588 3.42003 12.898C3.49792 12.937 3.57959 12.9689 3.60196 12.9689C3.62433 12.9689 3.63943 12.9826 3.63565 12.9994C3.63188 13.0164 3.55021 13.0524 3.45372 13.0797C3.35723 13.107 3.26883 13.1389 3.25697 13.1505C3.24511 13.1622 3.30575 13.2371 3.39173 13.3171C3.47771 13.3968 3.62676 13.5088 3.72325 13.5655C3.81974 13.6223 3.95612 13.6815 4.02647 13.6972C4.09682 13.7129 4.14857 13.738 4.14102 13.7529C4.13347 13.7678 4.05908 13.8013 3.97553 13.8273C3.89224 13.8532 3.81624 13.8897 3.80707 13.9084C3.79818 13.927 3.81489 13.9679 3.84454 13.9989C3.87419 14.0303 4.02566 14.119 4.18145 14.1963C4.33724 14.2736 4.54666 14.3604 4.64719 14.3896C4.74746 14.4185 4.82535 14.4545 4.81996 14.4694C4.81457 14.4842 4.74449 14.5161 4.66417 14.5402C4.5728 14.5678 4.51593 14.6005 4.51162 14.6281C4.50785 14.6524 4.54423 14.7097 4.59248 14.7554C4.64072 14.8014 4.74072 14.8674 4.81484 14.9022C4.88896 14.9371 5.00432 14.9782 5.07089 14.9939C5.13746 15.0096 5.25579 15.0225 5.33368 15.0231C5.42882 15.0234 5.47491 15.0347 5.47464 15.0574C5.47437 15.0761 5.42586 15.1247 5.36683 15.1656C5.30781 15.2064 5.25956 15.2521 5.25956 15.267C5.25956 15.2818 5.29298 15.3172 5.33368 15.3456C5.37438 15.374 5.46251 15.4208 5.52909 15.4497C5.59566 15.4784 5.75684 15.5314 5.88675 15.5671C6.01693 15.6027 6.1234 15.6382 6.1234 15.6455C6.12367 15.6528 6.07488 15.6803 6.01505 15.7063C5.94039 15.7387 5.90858 15.7685 5.91344 15.8009C5.91721 15.8269 5.97489 15.885 6.04146 15.9299C6.10803 15.9748 6.24738 16.0394 6.35115 16.0737C6.45492 16.1078 6.61583 16.144 6.70854 16.1543C6.80126 16.1643 6.877 16.1819 6.877 16.1929C6.87673 16.204 6.85193 16.2468 6.82201 16.2876C6.79183 16.3284 6.76757 16.3711 6.76811 16.3822C6.76838 16.3933 6.8204 16.4257 6.88347 16.4539C6.94654 16.4822 7.11688 16.5398 7.26188 16.5823C7.46646 16.642 7.52899 16.6715 7.54004 16.7134C7.54758 16.7431 7.54731 16.7737 7.53896 16.781C7.5306 16.7883 7.44193 16.7561 7.34166 16.7091C7.24167 16.6623 7.12335 16.6196 7.07887 16.6144C7.00179 16.6058 6.99802 16.6099 6.99802 16.7066C6.99802 16.7623 6.98885 16.808 6.9778 16.808C6.96675 16.808 6.91824 16.7783 6.86999 16.7421C6.82174 16.7058 6.73684 16.6572 6.68132 16.6339C6.6258 16.6107 6.52661 16.5888 6.46112 16.585C6.39562 16.5812 6.33201 16.5874 6.31961 16.5985C6.30722 16.6099 6.3215 16.661 6.35115 16.7123C6.3808 16.7637 6.39589 16.8124 6.38484 16.8205C6.37379 16.8283 6.31907 16.8121 6.26355 16.7837C6.20803 16.7556 6.09591 16.7134 6.01424 16.6899C5.93257 16.6664 5.82153 16.6439 5.76708 16.6399C5.71264 16.6355 5.66089 16.6415 5.65253 16.6526C5.64391 16.6637 5.65523 16.7093 5.67733 16.754C5.69943 16.7986 5.71479 16.8416 5.71102 16.8497C5.70725 16.8578 5.63771 16.8456 5.55604 16.8224C5.47437 16.7994 5.32586 16.7805 5.22587 16.7807C5.09811 16.781 5.04421 16.791 5.04448 16.8148C5.04475 16.8334 5.06873 16.8789 5.09784 16.9162C5.12695 16.9532 5.15094 16.9989 5.15121 17.0176C5.15148 17.0432 5.12156 17.0414 5.02372 17.0092C4.95338 16.9859 4.79058 16.9646 4.66229 16.9619C4.53372 16.9589 4.4216 16.9659 4.41297 16.977C4.40408 16.9881 4.42106 17.0368 4.45017 17.0852C4.47928 17.1335 4.50353 17.1822 4.50407 17.1933C4.50461 17.2044 4.48359 17.2074 4.45771 17.2001C4.43184 17.1925 4.29519 17.1979 4.1545 17.2122C4.0138 17.2263 3.87715 17.2447 3.85128 17.2528C3.81785 17.2633 3.80842 17.2855 3.8192 17.3285C3.83268 17.3836 3.8219 17.3912 3.70465 17.4088C3.63323 17.4193 3.53242 17.4401 3.48067 17.4553C3.42893 17.4702 3.36208 17.4996 3.33243 17.5207C3.28904 17.5518 3.285 17.5661 3.31195 17.5959C3.33055 17.6161 3.33756 17.6418 3.32785 17.6529C3.31788 17.664 3.28176 17.6732 3.24699 17.6732C3.21249 17.6732 3.01143 17.711 2.80012 17.7573C2.58881 17.8035 2.33114 17.8708 2.22737 17.9065C2.1236 17.9425 2.03277 17.9776 2.02522 17.9852C2.01768 17.9925 2.02388 18.0103 2.0387 18.0247C2.05352 18.0387 2.18101 18.0801 2.3217 18.1163C2.4624 18.1526 2.7454 18.2107 2.94997 18.2453C3.27745 18.301 3.32058 18.3142 3.3071 18.3559C3.29578 18.3916 3.32004 18.4159 3.40655 18.4556C3.46962 18.4846 3.60142 18.5181 3.6998 18.53C3.87607 18.5516 3.87796 18.5527 3.8413 18.6127C3.80573 18.6708 3.80869 18.6744 3.90518 18.693C3.9607 18.7038 4.12458 18.713 4.26904 18.7133C4.42591 18.7138 4.53156 18.7249 4.53103 18.7411C4.53076 18.756 4.50704 18.7985 4.47793 18.8358C4.44882 18.8728 4.42483 18.9125 4.42456 18.9236C4.42429 18.9347 4.53022 18.9436 4.65986 18.9431C4.80729 18.9426 4.94879 18.9247 5.03774 18.8958C5.1159 18.8701 5.18571 18.8523 5.19272 18.856C5.19973 18.8598 5.17223 18.9125 5.13153 18.9731C5.0682 19.0672 5.06334 19.0869 5.09784 19.1088C5.12021 19.1229 5.21105 19.1269 5.29999 19.1175C5.38893 19.1083 5.52828 19.0785 5.60995 19.0512C5.69161 19.0242 5.76115 19.0072 5.76493 19.0137C5.7687 19.0199 5.75334 19.0615 5.73123 19.1061C5.70913 19.1507 5.69081 19.1994 5.69081 19.2143C5.69081 19.2291 5.72423 19.2416 5.76493 19.2418C5.80562 19.2421 5.92395 19.2167 6.02772 19.1853C6.13148 19.1542 6.25574 19.1053 6.30398 19.0767C6.35223 19.0483 6.40371 19.0312 6.41853 19.0385C6.43443 19.0464 6.42338 19.0883 6.39185 19.1399C6.3622 19.1883 6.34711 19.2373 6.35816 19.2489C6.36921 19.2605 6.41449 19.2694 6.45896 19.2689C6.50343 19.2683 6.58213 19.2567 6.63415 19.2427C6.68617 19.2286 6.7921 19.174 6.86999 19.121C6.94788 19.0683 7.01742 19.025 7.02497 19.025C7.03252 19.025 7.03036 19.0707 7.02039 19.1264L7.00233 19.2278C7.18696 19.1989 7.32253 19.147 7.42252 19.0942C7.52575 19.0396 7.61038 19.0096 7.61793 19.025C7.62548 19.0399 7.61928 19.0583 7.60445 19.0656C7.58963 19.0729 7.57723 19.1064 7.57696 19.1399C7.57669 19.197 7.58397 19.1994 7.69825 19.1805C7.76536 19.1694 7.88988 19.1253 7.97506 19.0826C8.06023 19.0399 8.14836 18.9845 8.17046 18.9596C8.19256 18.9347 8.22006 18.915 8.23111 18.9158C8.24216 18.9163 8.25429 18.9504 8.25806 18.9912C8.26372 19.0526 8.27774 19.0656 8.33838 19.0656C8.37881 19.0656 8.41304 19.0777 8.41439 19.0926C8.41573 19.1075 8.35859 19.1378 8.2869 19.1602C8.21547 19.1826 8.12976 19.2159 8.09634 19.2345C8.06292 19.2532 8.0357 19.2865 8.0357 19.3089C8.0357 19.3313 8.05403 19.3495 8.07613 19.3495C8.09823 19.3495 8.11683 19.3646 8.11683 19.3832C8.1171 19.4019 8.05969 19.4379 7.9888 19.4635C7.91819 19.489 7.82708 19.5347 7.78639 19.5649C7.74569 19.5952 7.71227 19.632 7.71227 19.6469C7.71227 19.6617 7.73652 19.6801 7.76617 19.6874C7.79582 19.6947 7.82008 19.7131 7.82008 19.728C7.82008 19.7428 7.79285 19.7607 7.75943 19.7674C7.72601 19.7742 7.64731 19.8169 7.58424 19.8621C7.52117 19.9072 7.46942 19.9594 7.46915 19.9781C7.46915 19.9967 7.5023 20.0248 7.54327 20.0405L7.61793 20.0689C7.47158 20.1451 7.37778 20.2084 7.31471 20.2584C7.25164 20.3087 7.20016 20.362 7.20016 20.3768C7.20016 20.3917 7.23655 20.4101 7.28102 20.4174L7.36188 20.4309C7.03305 20.7662 7.01068 20.8002 7.04599 20.8229C7.08292 20.8465 7.07887 20.8621 7.01338 20.9446C6.97214 20.9965 6.92336 21.0695 6.90503 21.1068C6.87754 21.162 6.87808 21.1779 6.90772 21.1933C6.93629 21.2082 6.9309 21.2288 6.88266 21.288C6.84897 21.3296 6.73145 21.4975 6.62175 21.6611C6.49589 21.8484 6.43093 21.9685 6.44656 21.9855C6.463 22.0031 6.52068 21.985 6.6134 21.9331C6.69156 21.8895 6.8646 21.7884 6.99802 21.7084C7.17752 21.6005 7.24517 21.5721 7.25838 21.5983C7.2732 21.6278 7.2918 21.6278 7.36619 21.5983C7.41578 21.5789 7.49098 21.5362 7.5333 21.5037C7.59906 21.4534 7.61335 21.4507 7.63249 21.4853C7.65243 21.5213 7.66321 21.5213 7.72844 21.4853C7.76887 21.4629 7.86051 21.3931 7.9322 21.3299C8.05888 21.2185 8.06265 21.2169 8.06265 21.2826C8.06265 21.3196 8.07775 21.3574 8.09634 21.3666C8.11521 21.3758 8.17558 21.3369 8.23299 21.2788C8.28986 21.2215 8.35644 21.1409 8.38123 21.0998C8.4063 21.0587 8.43568 21.0252 8.44673 21.0254C8.45778 21.0254 8.46721 21.0471 8.46748 21.073C8.46748 21.099 8.47665 21.1358 8.4877 21.1549C8.50171 21.1796 8.54053 21.156 8.62273 21.0738C8.68607 21.01 8.74375 20.9368 8.75076 20.9108C8.75776 20.8849 8.78175 20.8635 8.80385 20.8635C8.82596 20.8635 8.85075 20.8908 8.85857 20.9243C8.87204 20.983 8.87555 20.9816 8.95371 20.8905C8.99818 20.8386 9.05856 20.7443 9.08767 20.681C9.11678 20.6177 9.15289 20.5661 9.16772 20.5661C9.18254 20.5661 9.2006 20.5904 9.20815 20.6202C9.21569 20.6499 9.23375 20.6742 9.24858 20.6742C9.2634 20.6742 9.30464 20.6348 9.34048 20.5864C9.37606 20.538 9.41892 20.4439 9.4359 20.3768C9.46528 20.2584 9.4677 20.2565 9.51918 20.3025C9.54829 20.3284 9.58117 20.3449 9.59222 20.339C9.60327 20.3333 9.64882 20.2538 9.6933 20.1627C9.73777 20.0716 9.78332 19.9975 9.79437 19.9978C9.80542 19.9981 9.81458 20.0164 9.81458 20.0389C9.81458 20.0613 9.82671 20.0794 9.84154 20.0794C9.85636 20.0794 9.89329 20.0459 9.92347 20.0051C9.95366 19.9643 9.99598 19.8729 10.0178 19.8023C10.0504 19.6955 10.0663 19.6761 10.1111 19.6874C10.1407 19.6947 10.1741 19.6858 10.1852 19.6671C10.1962 19.6487 10.2305 19.5728 10.2612 19.4982C10.3065 19.3889 10.3283 19.3643 10.3757 19.3697C10.4097 19.3735 10.4447 19.3565 10.4588 19.3292C10.4722 19.3032 10.4914 19.2332 10.5011 19.1737C10.511 19.1142 10.5243 19.032 10.5307 18.9912C10.5407 18.9277 10.5485 18.9217 10.5849 18.9507C10.6194 18.9782 10.6321 18.9769 10.6517 18.9439C10.6649 18.9215 10.7035 18.7844 10.7372 18.6392C10.7709 18.494 10.8105 18.3753 10.8253 18.3759C10.8431 18.3761 10.8412 18.4943 10.8205 18.7209C10.8029 18.9104 10.7878 19.1994 10.787 19.363C10.7862 19.5265 10.8102 19.8672 10.8404 20.12C10.8703 20.3728 10.9037 20.8321 10.914 21.1406L10.9331 21.7019C11.1048 21.7016 11.1091 21.6965 11.1258 21.5732C11.1353 21.5026 11.1353 21.2866 11.1256 21.0933C11.1159 20.9 11.0841 20.535 11.0547 20.2822C11.0226 20.0062 11.0013 19.6498 11.0013 19.39C11.0016 19.1521 11.0196 18.7749 11.0417 18.5519C11.0638 18.3288 11.0878 18.1401 11.0951 18.1328C11.1024 18.1255 11.1132 18.1255 11.1194 18.1328C11.1253 18.1401 11.1811 18.3226 11.2431 18.5384C11.3051 18.7541 11.3698 18.9458 11.387 18.9645C11.4086 18.988 11.4288 18.9901 11.452 18.9712C11.4754 18.9523 11.4889 18.9542 11.4967 18.9777C11.5026 18.9964 11.5212 19.0845 11.5382 19.1737C11.5549 19.2629 11.5835 19.3513 11.6013 19.37C11.6237 19.3935 11.6444 19.3957 11.6676 19.3768C11.6927 19.3565 11.7153 19.3819 11.7563 19.4779C11.7867 19.5484 11.8215 19.6244 11.8336 19.6469C11.8457 19.6693 11.8832 19.6874 11.9169 19.6874C11.9654 19.6874 11.9856 19.712 12.0161 19.8091C12.0368 19.8761 12.0824 19.9672 12.1172 20.0118C12.1738 20.0848 12.1845 20.0889 12.2242 20.0524C12.2487 20.03 12.2719 20.0181 12.2756 20.0254C12.2797 20.0327 12.3128 20.104 12.3492 20.1838C12.3856 20.2636 12.4247 20.3336 12.4357 20.3393C12.4468 20.3449 12.4773 20.3317 12.5031 20.3098C12.5465 20.2733 12.5533 20.2792 12.5867 20.3841C12.6066 20.4471 12.6522 20.538 12.6878 20.5864C12.7233 20.6348 12.7646 20.6742 12.7794 20.6742C12.7942 20.6742 12.8123 20.6499 12.8198 20.6202C12.8274 20.5904 12.8454 20.5661 12.8603 20.5661C12.8751 20.5661 12.9112 20.6177 12.9403 20.681C12.9694 20.7443 13.0298 20.8386 13.0743 20.8905C13.1524 20.9816 13.1559 20.983 13.1694 20.9243C13.1772 20.8908 13.1928 20.8632 13.2039 20.8632C13.215 20.863 13.2697 20.9238 13.3252 20.9984C13.3807 21.0728 13.4505 21.146 13.4802 21.1609C13.5271 21.1844 13.5357 21.1777 13.5475 21.1068C13.5551 21.0622 13.5732 21.0257 13.588 21.0257C13.6028 21.0257 13.6149 21.0379 13.6149 21.0527C13.6149 21.0676 13.6785 21.1471 13.7564 21.2296C13.8343 21.3118 13.9071 21.3788 13.9181 21.3783C13.9292 21.3777 13.9443 21.3466 13.9518 21.3096C13.9594 21.2723 13.9745 21.2417 13.9855 21.2412C13.9966 21.2407 14.03 21.2663 14.0597 21.2982C14.0893 21.3304 14.165 21.3915 14.2281 21.4345C14.2912 21.4772 14.3548 21.5124 14.3696 21.5124C14.3844 21.5124 14.3966 21.4943 14.3966 21.4718C14.3966 21.441 14.4144 21.4461 14.4707 21.4932C14.5114 21.5275 14.5933 21.5713 14.6526 21.5905C14.7356 21.6178 14.7637 21.6184 14.7739 21.5935C14.7829 21.5718 14.8458 21.597 14.9626 21.6689C15.0588 21.7281 15.2256 21.8265 15.3332 21.8879C15.4407 21.949 15.5407 21.999 15.5555 21.999C15.5704 21.999 15.5825 21.9809 15.5825 21.9585C15.5825 21.936 15.5283 21.8357 15.4623 21.7354C15.396 21.6351 15.2809 21.477 15.2062 21.3839C15.1035 21.2561 15.0801 21.2117 15.1108 21.2014C15.1437 21.1904 15.1456 21.1739 15.1219 21.1136C15.1057 21.0728 15.0572 20.9935 15.014 20.9378C14.9709 20.8821 14.9477 20.8365 14.9626 20.8365C14.9774 20.8365 14.9895 20.8183 14.9895 20.7959C14.9895 20.7735 14.9168 20.6823 14.8278 20.5931C14.672 20.4369 14.6685 20.4304 14.7335 20.4174C14.7784 20.4084 14.7986 20.3881 14.7941 20.3566C14.7903 20.3306 14.7124 20.2606 14.6205 20.2011C14.5289 20.1416 14.4532 20.0838 14.4521 20.0727C14.4513 20.0616 14.4747 20.0462 14.5044 20.0389C14.534 20.0316 14.5583 20.0072 14.5583 19.9848C14.5583 19.9624 14.5068 19.9072 14.4437 19.8621C14.3807 19.8169 14.302 19.7742 14.2685 19.7674C14.2351 19.7607 14.2079 19.7428 14.2079 19.728C14.2079 19.7131 14.2327 19.6917 14.2626 19.6806C14.2928 19.6696 14.3133 19.6482 14.3079 19.6333C14.3025 19.6185 14.2626 19.5817 14.2192 19.5514C14.1761 19.5211 14.0828 19.4787 14.0122 19.4568C13.9419 19.4349 13.8842 19.4079 13.8842 19.3968C13.8845 19.3857 13.9087 19.3703 13.9384 19.363C13.968 19.3557 13.9923 19.3373 13.9923 19.3224C13.9923 19.3075 13.9588 19.2702 13.9181 19.2394C13.8775 19.2089 13.7925 19.1724 13.7295 19.1583C13.6567 19.1424 13.6149 19.1183 13.6149 19.0926C13.6149 19.0656 13.6329 19.0566 13.6688 19.0656C13.7103 19.0758 13.7289 19.0604 13.7497 18.998L13.7766 18.9169C13.975 19.0512 14.0904 19.1121 14.1607 19.1386C14.2311 19.1653 14.3192 19.1872 14.3561 19.1872C14.3933 19.1872 14.4294 19.1751 14.437 19.1602C14.4445 19.1453 14.4383 19.1088 14.4235 19.0791C14.4087 19.0493 14.4057 19.0247 14.4168 19.0245C14.4278 19.0239 14.5311 19.0667 14.6459 19.1191C14.7607 19.1713 14.8852 19.2143 14.9221 19.2143C14.9806 19.2143 14.9893 19.2029 14.9868 19.1264C14.9852 19.078 14.9849 19.0264 14.9863 19.0115C14.9874 18.9966 15.0219 19.0172 15.0631 19.0572C15.1041 19.0969 15.2043 19.1607 15.286 19.1989C15.3709 19.2383 15.483 19.2678 15.5488 19.2681C15.6119 19.2683 15.6633 19.2562 15.6633 19.2413C15.6633 19.2264 15.6361 19.1694 15.6027 19.1142C15.5442 19.018 15.5439 19.015 15.596 19.031C15.6256 19.0402 15.7226 19.0788 15.8116 19.1167C15.9005 19.1545 16.0339 19.1999 16.1081 19.2175C16.1822 19.2351 16.2641 19.2416 16.29 19.2318C16.335 19.2151 16.335 19.2097 16.29 19.1202C16.2641 19.0685 16.252 19.0199 16.263 19.012C16.2741 19.0045 16.3196 19.0161 16.3641 19.0385C16.4086 19.061 16.5328 19.0913 16.6404 19.1064C16.7479 19.1215 16.8571 19.1275 16.883 19.1199C16.9088 19.1123 16.9301 19.094 16.9301 19.0791C16.9301 19.0642 16.9059 19.0093 16.8762 18.9574C16.8393 18.8928 16.8328 18.8628 16.856 18.8631C16.8746 18.8633 16.9503 18.8817 17.0245 18.9039C17.0986 18.9263 17.2533 18.9444 17.3681 18.9442C17.4891 18.9442 17.577 18.9326 17.577 18.9169C17.577 18.902 17.5527 18.8533 17.5231 18.8087L17.4692 18.7276C17.7721 18.7273 17.9328 18.7149 18.0217 18.6998C18.1107 18.6849 18.1864 18.6665 18.1902 18.6595C18.1939 18.6525 18.1848 18.6222 18.17 18.5924C18.1457 18.5438 18.1519 18.5384 18.2306 18.5386C18.2788 18.5386 18.391 18.5194 18.4799 18.4959C18.5689 18.4724 18.6629 18.4421 18.6888 18.4283C18.7236 18.4097 18.729 18.3926 18.709 18.3626C18.6942 18.3402 18.6912 18.3169 18.7023 18.3107C18.7133 18.3048 18.8802 18.2737 19.0729 18.2423C19.2656 18.2107 19.5203 18.1609 19.6389 18.1317C19.7575 18.1023 19.8885 18.0633 19.9297 18.0447C19.9709 18.0263 20.0046 18.0049 20.0044 17.9976C20.0041 17.9903 19.9278 17.9571 19.8348 17.9241C19.7418 17.8911 19.5688 17.8403 19.4502 17.8113C19.3316 17.7822 19.1254 17.7381 18.992 17.7132C18.8586 17.6883 18.7343 17.6632 18.7157 17.6572C18.692 17.6494 18.6901 17.634 18.709 17.6056C18.7238 17.5832 18.73 17.5529 18.7225 17.538C18.7149 17.5231 18.6513 17.4934 18.581 17.4718C18.5106 17.4501 18.4044 17.425 18.3451 17.4155C18.2859 17.4063 18.2222 17.3934 18.2036 17.3871C18.1794 17.379 18.1775 17.3609 18.1969 17.3217C18.2163 17.2825 18.2147 17.2647 18.1902 17.2568C18.1716 17.2509 18.0322 17.2328 17.8802 17.2163C17.7282 17.2001 17.5918 17.1928 17.577 17.2001C17.5622 17.2074 17.5379 17.2074 17.5231 17.2001C17.5075 17.1922 17.5185 17.1527 17.55 17.1054C17.5797 17.0608 17.6039 17.0122 17.6039 16.9973C17.6039 16.9824 17.5584 16.9627 17.5029 16.9535C17.4473 16.9443 17.3048 16.9516 17.1862 16.9697C17.0676 16.9875 16.9522 17.013 16.9301 17.0262C16.908 17.0392 16.8811 17.0411 16.8706 17.0303C16.86 17.0197 16.8813 16.9681 16.918 16.9162C16.9544 16.8643 16.9843 16.8124 16.984 16.8013C16.984 16.7902 16.89 16.7813 16.7751 16.7818C16.6528 16.7823 16.508 16.8021 16.4256 16.8291C16.3479 16.8548 16.2843 16.8664 16.2841 16.8553C16.2835 16.8443 16.3046 16.7994 16.3304 16.7558C16.3563 16.712 16.3676 16.6666 16.3552 16.6545C16.3431 16.6423 16.2884 16.6358 16.2339 16.6404C16.1795 16.6447 16.0684 16.6674 15.9868 16.691C15.9051 16.7145 15.793 16.7567 15.7375 16.7845C15.6819 16.8124 15.631 16.8259 15.6245 16.8148C15.6178 16.8037 15.6359 16.758 15.6647 16.7134C15.6935 16.6688 15.717 16.6231 15.717 16.612C15.7172 16.6009 15.69 16.5863 15.6566 16.5796C15.6232 16.5728 15.5412 16.5788 15.4747 16.5931C15.4081 16.6071 15.2836 16.6615 15.1984 16.7134C15.1124 16.7661 15.0375 16.7961 15.03 16.781C15.0224 16.7661 15.0224 16.7234 15.03 16.6864C15.0418 16.6263 15.0345 16.6188 14.9626 16.6188C14.9181 16.6188 14.7909 16.6553 14.6796 16.6999C14.5685 16.7445 14.4715 16.7748 14.4639 16.7675C14.4564 16.7602 14.461 16.7326 14.4742 16.7066C14.4895 16.6755 14.6079 16.6266 14.817 16.5647C14.9928 16.5128 15.1609 16.4506 15.1911 16.4268L15.2456 16.3833C15.1529 16.2411 15.1256 16.1905 15.1251 16.1794C15.1246 16.1683 15.182 16.1589 15.2523 16.1586C15.3227 16.1583 15.4531 16.1389 15.5421 16.1154C15.631 16.0918 15.7703 16.0391 15.852 15.998C15.9337 15.9569 16.0215 15.9034 16.0474 15.8791C16.0733 15.8547 16.0946 15.8166 16.0946 15.7942C16.0946 15.7717 16.0458 15.7322 15.986 15.7063C15.9261 15.6803 15.8776 15.6528 15.8782 15.6455C15.8784 15.6382 15.9849 15.6041 16.1148 15.5703C16.2444 15.5365 16.4172 15.4778 16.4989 15.4403C16.5805 15.4024 16.6687 15.351 16.6951 15.3262C16.7215 15.301 16.7428 15.2713 16.7423 15.2602C16.7417 15.2491 16.6873 15.2004 16.621 15.152C16.5547 15.1037 16.5062 15.055 16.5132 15.0439C16.5202 15.0328 16.5986 15.0236 16.6876 15.0236C16.7765 15.0236 16.9191 15.0017 17.0042 14.9752C17.0894 14.9485 17.2139 14.8955 17.2805 14.8573C17.3471 14.8192 17.4293 14.753 17.4633 14.71C17.4969 14.6667 17.5153 14.6229 17.5037 14.6121C17.4921 14.6016 17.4161 14.5697 17.3344 14.5416C17.2528 14.5134 17.1832 14.4797 17.1794 14.4664C17.1757 14.4532 17.2544 14.4204 17.3546 14.3939C17.4546 14.3672 17.6579 14.2858 17.8061 14.2131C17.9543 14.1401 18.1061 14.0495 18.143 14.0119C18.1802 13.9741 18.2028 13.9276 18.1939 13.9089C18.1848 13.89 18.1088 13.8532 18.0255 13.8273C17.9419 13.8013 17.8735 13.7678 17.8735 13.7529C17.8735 13.738 17.9128 13.7183 17.9611 13.7091C18.0093 13.6996 18.1152 13.658 18.1969 13.6166C18.2786 13.575 18.3875 13.509 18.4395 13.4701C18.4915 13.4312 18.5861 13.3479 18.65 13.2855C18.7136 13.2227 18.7562 13.1622 18.7443 13.1505C18.7322 13.1389 18.6435 13.1073 18.5473 13.0802C18.4511 13.0532 18.3743 13.02 18.377 13.0067C18.3794 12.9932 18.4284 12.964 18.4858 12.9418C18.5433 12.9196 18.6562 12.8629 18.737 12.8158C18.8179 12.7688 18.957 12.6679 19.0459 12.5917C19.1349 12.5152 19.226 12.4224 19.2481 12.3854C19.2839 12.3257 19.2839 12.3154 19.2481 12.2932C19.226 12.2794 19.1653 12.261 19.1133 12.2524C19.0613 12.2437 19.0006 12.2254 18.9785 12.2116C18.9446 12.1905 18.9492 12.1788 19.0055 12.1396C19.0427 12.114 19.15 12.0193 19.2443 11.9293C19.3384 11.8393 19.4747 11.6898 19.5475 11.5968C19.62 11.5037 19.6793 11.4156 19.6793 11.4007C19.6793 11.3859 19.6429 11.3675 19.5985 11.3602C19.554 11.3529 19.5181 11.3375 19.5187 11.3264C19.5195 11.3153 19.5831 11.2388 19.6602 11.1566C19.7375 11.0744 19.8461 10.9192 19.9017 10.8119C19.9572 10.7046 20.0027 10.6045 20.0027 10.5896C20.0027 10.5748 19.9664 10.5626 19.9219 10.5626C19.8774 10.5626 19.841 10.5504 19.841 10.5356C19.841 10.5207 19.8917 10.4507 19.9537 10.3801C20.0157 10.3096 20.1752 10.1057 20.3084 9.92726C20.4415 9.74881 20.6227 9.49332 20.7105 9.35949C20.7987 9.22566 20.8997 9.0583 20.9353 8.98774C20.9709 8.91717 21 8.84715 21 8.83228C20.9998 8.81426 20.9706 8.81435 20.9124 8.83255C20.8642 8.84769 20.7156 8.91312 20.5822 8.97828C20.4488 9.04343 20.1879 9.18483 20.0027 9.29244C19.8176 9.40031 19.5596 9.55956 19.43 9.64689C19.3004 9.73422 19.1882 9.80559 19.1807 9.80559C19.1731 9.80559 19.1675 9.76612 19.1677 9.71772C19.1686 9.63202 19.1661 9.6304 19.0802 9.65121C19.0316 9.66284 18.9195 9.70556 18.8311 9.74584C18.7427 9.78613 18.6034 9.87048 18.5212 9.93347C18.4392 9.9962 18.3629 10.0419 18.3519 10.0349C18.3408 10.0276 18.3319 9.99458 18.3325 9.96105C18.3328 9.92753 18.3239 9.89157 18.3123 9.88075C18.3007 9.87021 18.2489 9.884 18.1969 9.91157C18.1449 9.93915 18.0055 10.0346 17.887 10.1235C17.7684 10.2125 17.6228 10.3358 17.5635 10.3974C17.5042 10.4591 17.4465 10.5091 17.4355 10.5091C17.4244 10.5088 17.4029 10.4326 17.3878 10.3396C17.3724 10.2466 17.3544 10.1644 17.3476 10.1571C17.3409 10.1498 17.2846 10.18 17.2228 10.2247C17.1611 10.2693 17.0366 10.3869 16.9463 10.4858C16.8557 10.5848 16.7334 10.7475 16.6741 10.8473C16.5881 10.9922 16.5628 11.0184 16.5487 10.9782C16.539 10.9503 16.521 10.8514 16.5083 10.7584C16.4956 10.6651 16.4762 10.5891 16.4652 10.5894C16.4541 10.5894 16.3814 10.6418 16.3035 10.7056C16.2256 10.7694 16.0984 10.9062 16.0205 11.0098C15.9426 11.1133 15.8628 11.2466 15.8431 11.3061C15.8232 11.3656 15.796 11.4143 15.7825 11.4143C15.7693 11.4143 15.7399 11.3415 15.7175 11.2523C15.6889 11.1385 15.6628 11.0885 15.6297 11.0833C15.6016 11.0793 15.5434 11.1231 15.4863 11.1912C15.4334 11.2545 15.3458 11.3791 15.2917 11.4683C15.2375 11.5576 15.1537 11.7187 15.1049 11.8266C15.0564 11.9344 15.0076 12.0256 14.9965 12.0293C14.9855 12.0331 14.9612 11.9601 14.9426 11.8671C14.9165 11.7376 14.8976 11.6981 14.8615 11.6979C14.8356 11.6976 14.765 11.7492 14.7046 11.8128C14.6443 11.876 14.5763 11.9585 14.5537 11.9955C14.5311 12.0329 14.4882 12.1302 14.458 12.2118C14.4281 12.2935 14.396 12.4184 14.3866 12.489C14.3766 12.5647 14.3559 12.6174 14.3359 12.6174C14.3173 12.6174 14.278 12.5725 14.2483 12.5176C14.2187 12.463 14.1793 12.4143 14.1607 12.4097C14.1421 12.4049 14.0998 12.4295 14.0664 12.4644C14.033 12.499 13.9618 12.6177 13.9082 12.728C13.8545 12.838 13.7909 12.9921 13.7667 13.0702C13.7424 13.1484 13.7136 13.2125 13.7025 13.2127C13.6915 13.2133 13.6672 13.1646 13.6486 13.1046C13.6241 13.0251 13.6004 12.9959 13.561 12.9959C13.5314 12.9959 13.4702 13.0413 13.4249 13.0973C13.3799 13.153 13.3077 13.2717 13.2645 13.3609C13.2214 13.4501 13.1654 13.6083 13.14 13.7124C13.1147 13.8164 13.0899 13.9078 13.0848 13.9151C13.0799 13.9224 13.0484 13.9016 13.0152 13.8684C12.9818 13.8354 12.9333 13.8078 12.9074 13.8075C12.8813 13.8073 12.836 13.8494 12.8063 13.9016C12.7767 13.9538 12.7341 13.9962 12.712 13.9962C12.6829 13.9962 12.6764 13.9789 12.6886 13.9354C12.698 13.9019 12.7813 13.7105 12.8737 13.5096C12.9662 13.3087 13.0495 13.1173 13.0589 13.0838C13.0689 13.0478 13.0621 13.0132 13.0422 12.9989C13.0236 12.9859 12.957 12.9675 12.8939 12.9583L12.7794 12.9418C12.9646 12.6798 13.0554 12.5217 13.1009 12.4214C13.1465 12.3211 13.2034 12.1629 13.2271 12.0699C13.2511 11.9769 13.2632 11.8674 13.254 11.8266C13.2427 11.7757 13.2206 11.7522 13.1837 11.7522C13.154 11.7522 13.0869 11.7795 13.0346 11.813C12.9821 11.8466 12.9336 11.8647 12.9268 11.8536C12.9198 11.8425 12.9748 11.7117 13.0489 11.563C13.123 11.4143 13.2079 11.2196 13.2376 11.1304C13.2672 11.0412 13.2915 10.9317 13.2915 10.887C13.2915 10.8424 13.2764 10.7989 13.2578 10.79C13.2392 10.7813 13.1575 10.7884 13.0759 10.8057C12.9942 10.823 12.9217 10.8303 12.9142 10.8222C12.9066 10.8141 12.922 10.7797 12.9481 10.7459C12.9743 10.7119 13.0376 10.6297 13.0891 10.5626C13.1406 10.4956 13.2193 10.3528 13.264 10.2449C13.3087 10.1371 13.3527 9.97889 13.3613 9.89346C13.3707 9.8037 13.3651 9.70664 13.3478 9.66365L13.3184 9.5893C13.005 9.75693 12.9077 9.80262 12.9001 9.79883C12.8923 9.79505 12.933 9.69474 12.9907 9.57578C13.0484 9.45682 13.1212 9.28027 13.1524 9.18375C13.1837 9.08723 13.2276 8.9288 13.25 8.83228C13.2724 8.73576 13.291 8.61707 13.2912 8.56867C13.2916 8.50992 13.276 8.47459 13.2443 8.46269C13.2144 8.45107 13.1354 8.47837 13.0295 8.53704C12.9373 8.58787 12.8554 8.62031 12.8476 8.60923C12.8398 8.59814 12.8592 8.53731 12.8904 8.47405C12.922 8.41078 12.9708 8.26803 12.9988 8.15637C13.033 8.01956 13.0495 7.85897 13.0492 7.66295C13.0489 7.40394 13.0438 7.37231 13.0018 7.37285C12.9759 7.37312 12.8697 7.42801 12.7659 7.49452C12.6621 7.56103 12.5713 7.60942 12.5638 7.60185C12.5562 7.59428 12.5713 7.54264 12.5972 7.48695C12.6231 7.43125 12.6635 7.31283 12.6872 7.22361C12.7112 7.13439 12.7373 6.90945 12.7454 6.72344C12.7535 6.5377 12.7524 6.35196 12.743 6.31113C12.7333 6.27031 12.7104 6.23651 12.6918 6.23624C12.6732 6.2357 12.5883 6.28437 12.5031 6.34439C12.418 6.40414 12.3473 6.4501 12.3463 6.44631C12.3452 6.44253 12.3403 6.26923 12.3355 6.06104C12.3306 5.85286 12.3131 5.59737 12.2964 5.49328C12.28 5.38919 12.2606 5.2705 12.2533 5.22967C12.2463 5.18885 12.2282 5.15532 12.2134 5.15532C12.1986 5.15532 12.15 5.17966 12.1056 5.2094C12.0468 5.24887 12.0215 5.25428 12.0134 5.22967C12.0069 5.21102 11.9937 5.10477 11.9837 4.99311C11.9738 4.88172 11.9412 4.71112 11.9112 4.6146C11.8813 4.51808 11.8342 4.39317 11.8061 4.33747C11.7781 4.28178 11.7431 4.23609 11.7282 4.23609C11.7134 4.23609 11.6741 4.27231 11.6406 4.31692L11.58 4.39749C11.4805 3.75916 11.4002 3.34253 11.3371 3.06C11.2741 2.77747 11.1819 2.42546 11.1318 2.27757C11.0819 2.12968 11.0277 2.0045 11.0118 1.99936C10.9957 1.99422 10.9571 2.0483 10.9264 2.1194Z" stroke="#00500D" stroke-width="2" mask="url(#path-1-outside-1_10250_78091)"/>
</svg>
