<svg width="20" height="20" viewBox="0 0 20 20" fill="none" xmlns="http://www.w3.org/2000/svg">
<path d="M10.1092 4.7744C13.4792 4.80747 15.5903 4.59779 15.8754 8.33303H19.9849C19.9849 2.54656 14.9383 1.7666 10.0022 1.7666C5.06573 1.7666 0.0195312 2.54656 0.0195312 8.33303H4.0971C4.41258 4.5266 6.76724 4.74172 10.1092 4.7744Z" fill="#F6FEFF"/>
<path d="M2.05823 10.1933C3.05915 10.1933 3.89201 10.2532 4.07718 9.26859C4.10208 9.13477 4.11647 8.98306 4.11647 8.80762H4.06901H0C0 10.2722 0.921557 10.1933 2.05823 10.1933Z" fill="#F6FEFF"/>
<path d="M15.9018 8.80762H15.8633C15.8633 8.98423 15.8785 9.13633 15.9069 9.26859C16.1021 10.1765 16.9338 10.1201 17.9312 10.1201C19.0734 10.1201 19.9992 10.1952 19.9992 8.80762H15.9018Z" fill="#F6FEFF"/>
<path d="M13.8951 7.81069V7.22873C13.8951 6.96849 13.5952 6.95215 13.2248 6.95215H12.6199C12.25 6.95215 11.95 6.96849 11.95 7.22873V7.73016V8.11917H7.67098V7.73016V7.22873C7.67098 6.96849 7.37105 6.95215 7.00111 6.95215H6.39581C6.02587 6.95215 5.72594 6.96849 5.72594 7.22873V7.81069V8.31873C4.75109 9.3317 1.56124 13.6438 1.44531 14.1659L1.44687 17.6494C1.44687 17.9712 1.70867 18.233 2.03038 18.233H17.5906C17.9124 18.233 18.1742 17.9712 18.1742 17.6494V14.1484C18.0594 13.6415 14.8703 9.33131 13.8951 8.31834V7.81069ZM7.46013 14.6346C7.14698 14.6346 6.89296 14.381 6.89296 14.0675C6.89296 13.7539 7.14698 13.5003 7.46013 13.5003C7.77328 13.5003 8.02731 13.7539 8.02731 14.0675C8.02731 14.381 7.77328 14.6346 7.46013 14.6346ZM7.46013 12.6896C7.14698 12.6896 6.89296 12.436 6.89296 12.1224C6.89296 11.8089 7.14698 11.5553 7.46013 11.5553C7.77328 11.5553 8.02731 11.8089 8.02731 12.1224C8.02731 12.436 7.77328 12.6896 7.46013 12.6896ZM7.46013 10.745C7.14698 10.745 6.89296 10.4913 6.89296 10.1778C6.89296 9.86464 7.14698 9.61062 7.46013 9.61062C7.77328 9.61062 8.02731 9.86464 8.02731 10.1778C8.02731 10.4913 7.77328 10.745 7.46013 10.745ZM9.79417 14.6346C9.48102 14.6346 9.227 14.381 9.227 14.0675C9.227 13.7539 9.48102 13.5003 9.79417 13.5003C10.1077 13.5003 10.3613 13.7539 10.3613 14.0675C10.3613 14.381 10.1077 14.6346 9.79417 14.6346ZM9.79417 12.6896C9.48102 12.6896 9.227 12.436 9.227 12.1224C9.227 11.8089 9.48102 11.5553 9.79417 11.5553C10.1077 11.5553 10.3613 11.8089 10.3613 12.1224C10.3613 12.436 10.1077 12.6896 9.79417 12.6896ZM9.79417 10.745C9.48102 10.745 9.227 10.4913 9.227 10.1778C9.227 9.86464 9.48102 9.61062 9.79417 9.61062C10.1077 9.61062 10.3613 9.86464 10.3613 10.1778C10.3613 10.4913 10.1077 10.745 9.79417 10.745ZM12.1282 14.6346C11.8147 14.6346 11.561 14.381 11.561 14.0675C11.561 13.7539 11.8147 13.5003 12.1282 13.5003C12.4418 13.5003 12.6954 13.7539 12.6954 14.0675C12.6954 14.381 12.4418 14.6346 12.1282 14.6346ZM12.1282 12.6896C11.8147 12.6896 11.561 12.436 11.561 12.1224C11.561 11.8089 11.8147 11.5553 12.1282 11.5553C12.4418 11.5553 12.6954 11.8089 12.6954 12.1224C12.6954 12.436 12.4418 12.6896 12.1282 12.6896ZM12.1282 10.745C11.8147 10.745 11.561 10.4913 11.561 10.1778C11.561 9.86464 11.8147 9.61062 12.1282 9.61062C12.4418 9.61062 12.6954 9.86464 12.6954 10.1778C12.6954 10.4913 12.4418 10.745 12.1282 10.745Z" fill="#F6FEFF"/>
</svg>
