<svg width="21" height="21" viewBox="0 0 21 21" fill="none" xmlns="http://www.w3.org/2000/svg">
<mask id="path-1-outside-1_10238_78031" maskUnits="userSpaceOnUse" x="-0.800781" y="-0.799805" width="22" height="22" fill="black">
<rect fill="white" x="-0.800781" y="-0.799805" width="22" height="22"/>
<path d="M10.1256 0.320575C10.0946 0.391951 10.0321 0.590128 9.9868 0.760998C9.94125 0.931869 9.86686 1.24847 9.82131 1.46395C9.77576 1.67943 9.71512 2.00819 9.68628 2.19393C9.65771 2.37994 9.63453 2.54405 9.63453 2.55892C9.6348 2.57379 9.59733 2.54946 9.55151 2.50485C9.46931 2.42509 9.46742 2.42455 9.42861 2.47781C9.40705 2.50755 9.36446 2.59866 9.33346 2.68059C9.30274 2.76251 9.26123 2.92067 9.24102 3.03206C9.2208 3.14372 9.20382 3.28647 9.20328 3.34974C9.20301 3.413 9.19654 3.46464 9.189 3.46464C9.18145 3.46464 9.13913 3.44031 9.09466 3.41057C9.05019 3.38083 9.00464 3.36109 8.99359 3.36704C8.98254 3.37272 8.95828 3.44247 8.94022 3.5225C8.92189 3.60226 8.89494 3.81963 8.88012 4.00537C8.86556 4.19138 8.86233 4.4074 8.87284 4.48554C8.88766 4.59206 8.88389 4.62775 8.85882 4.62748C8.84023 4.62748 8.76449 4.58476 8.69037 4.53258C8.61625 4.4804 8.53728 4.43795 8.51518 4.43795C8.49308 4.43795 8.46882 4.46526 8.46154 4.49879C8.45453 4.53231 8.44833 4.6629 8.44779 4.78943C8.44752 4.91596 8.46558 5.12576 8.48795 5.25581C8.51032 5.38585 8.55291 5.55943 8.58256 5.64108C8.61221 5.72273 8.6335 5.79518 8.62973 5.80167C8.62595 5.80789 8.53809 5.75895 8.43432 5.69271C8.33055 5.62648 8.22436 5.5724 8.19848 5.57294C8.15697 5.57348 8.15131 5.60404 8.15131 5.83033C8.15131 5.97173 8.17018 6.18153 8.19309 6.29671C8.21627 6.41188 8.26478 6.57005 8.3009 6.64818C8.33729 6.72632 8.36128 6.79932 8.35427 6.8104C8.34753 6.82149 8.27476 6.79121 8.19255 6.74281C8.11061 6.69441 8.01628 6.65792 7.98286 6.6617C7.9268 6.66792 7.92275 6.68063 7.92787 6.83068C7.93111 6.9199 7.96534 7.10239 8.00388 7.23622C8.04215 7.37006 8.12759 7.59202 8.19336 7.72964C8.25912 7.86726 8.30387 7.98568 8.29282 7.9927C8.28177 7.99973 8.19983 7.9635 8.11088 7.91214C8.02194 7.86077 7.92787 7.81859 7.902 7.81805C7.86993 7.81778 7.84971 7.84563 7.83866 7.90538C7.8295 7.95377 7.83084 8.04786 7.84136 8.11491C7.8516 8.18196 7.88745 8.30957 7.9206 8.39879C7.95375 8.48801 8.0241 8.62806 8.07692 8.70971C8.12948 8.79136 8.20441 8.89194 8.24295 8.93276C8.2815 8.97359 8.30656 9.0163 8.29848 9.02739C8.29066 9.03847 8.21196 9.03253 8.12328 9.01387C8.03488 8.99522 7.95052 8.98629 7.93569 8.99359C7.92087 9.00089 7.90847 9.04064 7.90847 9.08146C7.9082 9.12229 7.93353 9.23503 7.9648 9.33155C7.99606 9.42807 8.08124 9.62598 8.15401 9.77089C8.22651 9.91581 8.28042 10.0437 8.27341 10.0548C8.26667 10.0659 8.21816 10.0477 8.1656 10.0142C8.11331 9.98069 8.05213 9.95339 8.03003 9.95339C8.00792 9.95339 7.97747 9.97772 7.96264 10.0075C7.94485 10.0431 7.94459 10.1097 7.96211 10.2035C7.97666 10.2816 8.02329 10.4306 8.0656 10.5347C8.10792 10.6388 8.17665 10.7785 8.21816 10.8456C8.25993 10.9126 8.323 11.0038 8.35858 11.0484C8.39389 11.093 8.41518 11.1357 8.40575 11.143C8.39631 11.1503 8.33837 11.1627 8.27664 11.1706C8.16883 11.1838 8.16479 11.1879 8.16722 11.2787C8.16856 11.3347 8.24161 11.5258 8.34834 11.7513C8.44645 11.9595 8.52731 12.145 8.52784 12.1636C8.52838 12.1823 8.51032 12.1974 8.48822 12.1974C8.46612 12.1974 8.4265 12.1547 8.40063 12.1022C8.37044 12.0411 8.33405 12.0068 8.29955 12.0068C8.26991 12.0065 8.22139 12.0314 8.19174 12.0622C8.16209 12.0931 8.13191 12.1177 8.12436 12.1174C8.11681 12.1168 8.09633 12.0403 8.07827 11.9473C8.06048 11.8543 7.99714 11.681 7.93812 11.5621C7.87882 11.4431 7.79958 11.3122 7.76185 11.2714C7.72411 11.2306 7.66886 11.1971 7.63921 11.1971C7.60228 11.1971 7.58045 11.2203 7.56967 11.2714C7.56105 11.3122 7.54892 11.3609 7.54272 11.3796C7.53652 11.3982 7.52223 11.4136 7.51118 11.4139C7.50013 11.4144 7.47453 11.3625 7.45458 11.299C7.43464 11.2355 7.37615 11.0922 7.32494 10.9808C7.27373 10.8691 7.20204 10.7385 7.16592 10.6901C7.1298 10.6417 7.08183 10.6023 7.05972 10.6023C7.03762 10.6023 6.98776 10.6601 6.94949 10.7307C6.91014 10.8029 6.87079 10.8472 6.85947 10.8321C6.84841 10.8172 6.82524 10.7258 6.80799 10.6293C6.79074 10.5328 6.74276 10.3806 6.70125 10.2913C6.65975 10.2021 6.57484 10.0775 6.51258 10.0142C6.45032 9.95095 6.37863 9.90229 6.35329 9.90607C6.32715 9.90986 6.29858 9.94798 6.28726 9.99394C6.27621 10.0386 6.26057 10.1086 6.25249 10.1494C6.2444 10.1902 6.22446 10.2208 6.20856 10.217C6.19238 10.2132 6.15222 10.1432 6.11907 10.0615C6.08592 9.97988 6.0091 9.82767 5.94873 9.72358C5.88836 9.61949 5.7889 9.47646 5.72826 9.4059C5.66734 9.33533 5.59942 9.27748 5.57732 9.27748C5.55468 9.27748 5.52611 9.31614 5.51236 9.36534C5.49889 9.41374 5.48056 9.48674 5.47193 9.52756C5.46331 9.56839 5.44687 9.60245 5.43582 9.60299C5.42477 9.60354 5.37383 9.52134 5.32289 9.4205C5.25955 9.29559 5.15767 9.16338 5.00376 9.00711C4.7876 8.78731 4.77601 8.77973 4.73936 8.83137C4.71833 8.86111 4.69219 8.95547 4.68114 9.04118C4.66874 9.13743 4.64799 9.19691 4.62723 9.19664C4.60864 9.19664 4.59354 9.1842 4.59354 9.16933C4.59354 9.15446 4.54934 9.07227 4.49543 8.98683C4.44126 8.9014 4.31081 8.74188 4.20569 8.63266C4.10031 8.52343 3.98064 8.41718 3.93994 8.39609C3.87363 8.36229 3.86339 8.3631 3.84264 8.40555C3.8297 8.43151 3.81164 8.50748 3.80248 8.57453C3.79331 8.64158 3.78253 8.69917 3.77849 8.70268C3.77472 8.70647 3.7138 8.65483 3.64346 8.58778C3.57311 8.521 3.41544 8.39203 3.29307 8.30119C3.1707 8.21035 3.03729 8.11896 2.99659 8.09842C2.95589 8.0776 2.91034 8.06705 2.89552 8.07435C2.88069 8.08165 2.86883 8.11518 2.86937 8.1487C2.86964 8.18223 2.86075 8.21846 2.84916 8.229C2.83757 8.23982 2.76749 8.19953 2.69337 8.13924C2.61925 8.07895 2.48583 7.99379 2.39689 7.95026C2.30794 7.90646 2.19043 7.86158 2.13572 7.85076C2.03869 7.83157 2.03626 7.83292 2.02791 7.91889L2.01955 8.00676C1.76889 7.83697 1.53844 7.6926 1.34573 7.57661C1.15302 7.46063 0.879985 7.3076 0.739291 7.23677C0.598598 7.16593 0.422596 7.08482 0.348476 7.05643C0.274356 7.02831 0.207782 7.01128 0.200235 7.01858C0.192689 7.02588 0.227997 7.10834 0.278398 7.20162C0.3288 7.29516 0.44335 7.4809 0.533102 7.61473C0.622855 7.74857 0.787537 7.97973 0.898852 8.12843C1.01017 8.27713 1.16542 8.47476 1.24385 8.56777C1.32201 8.66077 1.37807 8.74297 1.3681 8.75027C1.3584 8.75784 1.31581 8.76378 1.27377 8.76378C1.20773 8.76378 1.19965 8.77189 1.21447 8.82462C1.22363 8.85814 1.24951 8.92195 1.27161 8.96656C1.29398 9.01117 1.36379 9.12066 1.42713 9.20988C1.4902 9.2991 1.57402 9.40238 1.6131 9.43969C1.65218 9.47673 1.68372 9.51648 1.68345 9.52756C1.68291 9.53865 1.64625 9.55406 1.60178 9.56136C1.55731 9.56866 1.52065 9.58407 1.52011 9.59515C1.51984 9.60624 1.55623 9.66707 1.60097 9.73034C1.64598 9.7936 1.76026 9.92743 1.85514 10.0277C1.95001 10.128 2.07723 10.2467 2.1376 10.2913C2.19798 10.336 2.24784 10.3787 2.24865 10.386C2.24919 10.3933 2.17668 10.4208 2.08747 10.4468C1.99826 10.4728 1.92468 10.5093 1.92414 10.5279C1.9236 10.5466 1.98748 10.6228 2.06564 10.6974C2.14407 10.772 2.26886 10.877 2.34298 10.9308C2.4171 10.9843 2.54136 11.06 2.61925 11.0992C2.69714 11.1381 2.77881 11.17 2.80118 11.17C2.82355 11.17 2.83865 11.1838 2.83487 11.2006C2.8311 11.2176 2.74943 11.2536 2.65294 11.2809C2.55645 11.3082 2.46804 11.3401 2.45619 11.3517C2.44433 11.3633 2.50497 11.4382 2.59095 11.5183C2.67693 11.598 2.82598 11.7099 2.92247 11.7667C3.01896 11.8235 3.15534 11.8827 3.22569 11.8984C3.29603 11.9141 3.34778 11.9392 3.34024 11.9541C3.33269 11.969 3.2583 12.0025 3.17475 12.0284C3.09146 12.0544 3.01546 12.0909 3.00629 12.1095C2.9974 12.1282 3.01411 12.169 3.04376 12.2001C3.0734 12.2315 3.22488 12.3202 3.38067 12.3975C3.53645 12.4748 3.74588 12.5616 3.84641 12.5908C3.94668 12.6197 4.02457 12.6557 4.01918 12.6705C4.01379 12.6854 3.94371 12.7173 3.86339 12.7414C3.77202 12.769 3.71515 12.8017 3.71084 12.8293C3.70707 12.8536 3.74345 12.9109 3.7917 12.9566C3.83994 13.0026 3.93994 13.0685 4.01406 13.1034C4.08818 13.1383 4.20354 13.1794 4.27011 13.1951C4.33668 13.2107 4.45501 13.2237 4.5329 13.2243C4.62804 13.2245 4.67413 13.2359 4.67386 13.2586C4.67359 13.2772 4.62508 13.3259 4.56605 13.3667C4.50702 13.4076 4.45878 13.4533 4.45878 13.4681C4.45878 13.483 4.4922 13.5184 4.5329 13.5468C4.5736 13.5752 4.66173 13.622 4.72831 13.6509C4.79488 13.6795 4.95606 13.7325 5.08597 13.7682C5.21615 13.8039 5.32262 13.8393 5.32262 13.8466C5.32289 13.8539 5.2741 13.8815 5.21427 13.9075C5.13961 13.9399 5.1078 13.9696 5.11265 14.0021C5.11643 14.028 5.17411 14.0862 5.24068 14.1311C5.30725 14.1759 5.4466 14.2406 5.55037 14.2749C5.65414 14.309 5.81504 14.3452 5.90776 14.3555C6.00048 14.3655 6.07622 14.383 6.07622 14.3941C6.07595 14.4052 6.05115 14.4479 6.02123 14.4887C5.99105 14.5296 5.96679 14.5723 5.96733 14.5834C5.9676 14.5945 6.01962 14.6269 6.08269 14.655C6.14576 14.6834 6.3161 14.741 6.4611 14.7834C6.66567 14.8432 6.72821 14.8727 6.73926 14.9146C6.7468 14.9443 6.74653 14.9749 6.73818 14.9822C6.72982 14.9895 6.64115 14.9573 6.54088 14.9102C6.44089 14.8635 6.32257 14.8208 6.27809 14.8156C6.20101 14.807 6.19723 14.811 6.19723 14.9078C6.19723 14.9635 6.18807 15.0092 6.17702 15.0092C6.16597 15.0092 6.11745 14.9795 6.06921 14.9432C6.02096 14.907 5.93606 14.8583 5.88054 14.8351C5.82502 14.8118 5.72583 14.7899 5.66034 14.7861C5.59484 14.7824 5.53123 14.7886 5.51883 14.7997C5.50643 14.811 5.52072 14.8621 5.55037 14.9135C5.58002 14.9649 5.59511 15.0135 5.58406 15.0216C5.57301 15.0295 5.51829 15.0133 5.46277 14.9849C5.40725 14.9567 5.29512 14.9146 5.21346 14.8911C5.13179 14.8675 5.02074 14.8451 4.9663 14.841C4.91186 14.8367 4.86011 14.8427 4.85175 14.8537C4.84313 14.8648 4.85445 14.9105 4.87655 14.9551C4.89865 14.9997 4.91401 15.0427 4.91024 15.0508C4.90647 15.0589 4.83693 15.0468 4.75526 15.0235C4.67359 15.0005 4.52508 14.9816 4.42509 14.9819C4.29733 14.9822 4.24343 14.9922 4.2437 15.016C4.24397 15.0346 4.26795 15.08 4.29706 15.1173C4.32617 15.1544 4.35016 15.2001 4.35043 15.2187C4.3507 15.2444 4.32078 15.2425 4.22294 15.2104C4.1526 15.1871 3.9898 15.1657 3.8615 15.163C3.73294 15.1601 3.62082 15.1671 3.61219 15.1782C3.6033 15.1893 3.62028 15.2379 3.64939 15.2863C3.6785 15.3347 3.70275 15.3834 3.70329 15.3945C3.70383 15.4056 3.68281 15.4085 3.65693 15.4012C3.63106 15.3937 3.49441 15.3991 3.35371 15.4134C3.21302 15.4275 3.07637 15.4458 3.05049 15.4539C3.01707 15.4645 3.00764 15.4867 3.01842 15.5297C3.0319 15.5848 3.02112 15.5924 2.90387 15.6099C2.83245 15.6205 2.73164 15.6413 2.67989 15.6565C2.62814 15.6713 2.5613 15.7008 2.53165 15.7219C2.48826 15.753 2.48422 15.7673 2.51117 15.797C2.52977 15.8173 2.53677 15.843 2.52707 15.8541C2.5171 15.8652 2.48098 15.8744 2.44621 15.8744C2.41171 15.8744 2.21065 15.9122 1.99934 15.9584C1.78803 16.0047 1.53036 16.072 1.42659 16.1077C1.32282 16.1436 1.23199 16.1788 1.22444 16.1864C1.2169 16.1937 1.22309 16.2115 1.23792 16.2258C1.25274 16.2399 1.38023 16.2813 1.52092 16.3175C1.66162 16.3537 1.94462 16.4118 2.14919 16.4465C2.47667 16.5022 2.51979 16.5154 2.50632 16.557C2.495 16.5927 2.51925 16.6171 2.60577 16.6568C2.66884 16.6857 2.80064 16.7193 2.89902 16.7312C3.07529 16.7528 3.07718 16.7539 3.04052 16.8139C3.00494 16.872 3.00791 16.8755 3.1044 16.8942C3.15992 16.905 3.3238 16.9142 3.46826 16.9145C3.62513 16.915 3.73078 16.9261 3.73024 16.9423C3.72998 16.9572 3.70626 16.9996 3.67715 17.0369C3.64804 17.074 3.62405 17.1137 3.62378 17.1248C3.62351 17.1359 3.72944 17.1448 3.85908 17.1443C4.00651 17.1437 4.14801 17.1259 4.23696 17.097C4.31512 17.0713 4.38493 17.0534 4.39194 17.0572C4.39894 17.061 4.37145 17.1137 4.33075 17.1743C4.26741 17.2684 4.26256 17.2881 4.29706 17.31C4.31943 17.3241 4.41026 17.3281 4.49921 17.3187C4.58815 17.3095 4.7275 17.2797 4.80917 17.2524C4.89083 17.2254 4.96037 17.2083 4.96414 17.2148C4.96792 17.2211 4.95255 17.2627 4.93045 17.3073C4.90835 17.3519 4.89002 17.4006 4.89002 17.4154C4.89002 17.4303 4.92345 17.4428 4.96414 17.443C5.00484 17.4433 5.12317 17.4179 5.22693 17.3865C5.3307 17.3554 5.45495 17.3065 5.5032 17.2778C5.55145 17.2494 5.60293 17.2324 5.61775 17.2397C5.63365 17.2475 5.6226 17.2895 5.59107 17.3411C5.56142 17.3895 5.54632 17.4384 5.55738 17.4501C5.56843 17.4617 5.61371 17.4706 5.65818 17.4701C5.70265 17.4695 5.78135 17.4579 5.83337 17.4438C5.88539 17.4298 5.99132 17.3752 6.06921 17.3222C6.1471 17.2694 6.21664 17.2262 6.22419 17.2262C6.23173 17.2262 6.22958 17.2719 6.21961 17.3276L6.20155 17.429C6.38617 17.4 6.52175 17.3481 6.62174 17.2954C6.72497 17.2408 6.8096 17.2108 6.81715 17.2262C6.8247 17.2411 6.8185 17.2594 6.80367 17.2667C6.78885 17.274 6.77645 17.3076 6.77618 17.3411C6.77591 17.3981 6.78319 17.4006 6.89747 17.3816C6.96458 17.3706 7.0891 17.3265 7.17427 17.2838C7.25945 17.2411 7.34758 17.1856 7.36968 17.1608C7.39178 17.1359 7.41928 17.1162 7.43033 17.117C7.44138 17.1175 7.45351 17.1516 7.45728 17.1924C7.46294 17.2538 7.47695 17.2667 7.5376 17.2667C7.57803 17.2667 7.61226 17.2789 7.6136 17.2938C7.61495 17.3086 7.55781 17.3389 7.48612 17.3614C7.41469 17.3838 7.32898 17.4171 7.29556 17.4357C7.26214 17.4544 7.23492 17.4876 7.23492 17.5101C7.23492 17.5325 7.25325 17.5506 7.27535 17.5506C7.29745 17.5506 7.31605 17.5658 7.31605 17.5844C7.31632 17.6031 7.25891 17.639 7.18802 17.6647C7.1174 17.6901 7.0263 17.7358 6.9856 17.7661C6.94491 17.7964 6.91148 17.8332 6.91148 17.848C6.91148 17.8629 6.93574 17.8813 6.96539 17.8886C6.99504 17.8959 7.0193 17.9143 7.0193 17.9291C7.0193 17.944 6.99207 17.9618 6.95865 17.9686C6.92523 17.9754 6.84653 18.0181 6.78346 18.0632C6.72039 18.1084 6.66864 18.1606 6.66837 18.1792C6.66837 18.1979 6.70152 18.226 6.74249 18.2417L6.81715 18.2701C6.6708 18.3463 6.577 18.4096 6.51393 18.4596C6.45086 18.5099 6.39938 18.5631 6.39938 18.578C6.39938 18.5929 6.43577 18.6113 6.48024 18.6186L6.5611 18.6321C6.23227 18.9673 6.2099 19.0014 6.24521 19.0241C6.28214 19.0476 6.27809 19.0633 6.2126 19.1458C6.17136 19.1977 6.12258 19.2707 6.10425 19.308C6.07676 19.3631 6.07729 19.3791 6.10694 19.3945C6.13551 19.4094 6.13012 19.4299 6.08188 19.4891C6.04819 19.5308 5.93067 19.6987 5.82097 19.8622C5.6951 20.0496 5.63015 20.1696 5.64578 20.1867C5.66222 20.2043 5.7199 20.1861 5.81262 20.1342C5.89078 20.0907 6.06382 19.9896 6.19723 19.9096C6.37674 19.8017 6.44439 19.7733 6.4576 19.7995C6.47242 19.829 6.49102 19.829 6.56541 19.7995C6.615 19.78 6.6902 19.7373 6.73252 19.7049C6.79828 19.6546 6.81257 19.6519 6.8317 19.6865C6.85165 19.7225 6.86243 19.7225 6.92766 19.6865C6.96809 19.6641 7.05972 19.5943 7.13142 19.531C7.2581 19.4197 7.26187 19.418 7.26187 19.4837C7.26187 19.5208 7.27696 19.5586 7.29556 19.5678C7.31443 19.577 7.3748 19.5381 7.43221 19.4799C7.48908 19.4226 7.55566 19.3421 7.58045 19.301C7.60552 19.2599 7.6349 19.2263 7.64595 19.2266C7.657 19.2266 7.66643 19.2482 7.6667 19.2742C7.6667 19.3002 7.67587 19.3369 7.68692 19.3561C7.70093 19.3807 7.73974 19.3572 7.82195 19.275C7.88529 19.2112 7.94297 19.1379 7.94998 19.112C7.95698 19.086 7.98097 19.0647 8.00307 19.0647C8.02517 19.0647 8.04997 19.092 8.05779 19.1255C8.07126 19.1842 8.07477 19.1828 8.15293 19.0917C8.1974 19.0398 8.25778 18.9454 8.28689 18.8822C8.316 18.8189 8.35211 18.7673 8.36694 18.7673C8.38176 18.7673 8.39982 18.7916 8.40737 18.8213C8.41491 18.8511 8.43297 18.8754 8.44779 18.8754C8.46262 18.8754 8.50386 18.8359 8.5397 18.7875C8.57528 18.7391 8.61814 18.6451 8.63512 18.578C8.6645 18.4596 8.66692 18.4577 8.7184 18.5037C8.74751 18.5296 8.78039 18.5461 8.79144 18.5402C8.80249 18.5345 8.84804 18.455 8.89252 18.3639C8.93699 18.2728 8.98254 18.1987 8.99359 18.199C9.00464 18.1992 9.0138 18.2176 9.0138 18.2401C9.0138 18.2625 9.02593 18.2806 9.04076 18.2806C9.05558 18.2806 9.09251 18.2471 9.12269 18.2063C9.15288 18.1654 9.1952 18.0741 9.21703 18.0035C9.24964 17.8967 9.26554 17.8772 9.31028 17.8886C9.33993 17.8959 9.37335 17.887 9.3844 17.8683C9.39545 17.8499 9.42969 17.7739 9.46041 17.6993C9.50569 17.5901 9.52752 17.5655 9.57496 17.5709C9.60892 17.5747 9.64396 17.5577 9.65798 17.5303C9.67145 17.5044 9.69059 17.4344 9.70029 17.3749C9.71026 17.3154 9.72347 17.2332 9.72994 17.1924C9.73991 17.1289 9.74773 17.1229 9.78411 17.1518C9.81861 17.1794 9.83128 17.1781 9.85096 17.1451C9.86416 17.1226 9.90271 16.9856 9.9364 16.8404C9.97009 16.6952 10.0097 16.5765 10.0245 16.577C10.0423 16.5773 10.0404 16.6955 10.0197 16.922C10.0022 17.1116 9.98707 17.4006 9.98626 17.5641C9.98545 17.7277 10.0094 18.0684 10.0396 18.3212C10.0695 18.574 10.103 19.0333 10.1132 19.3418L10.1323 19.9031C10.304 19.9028 10.3083 19.8977 10.3251 19.7744C10.3345 19.7038 10.3345 19.4878 10.3248 19.2945C10.3151 19.1012 10.2833 18.7362 10.2539 18.4834C10.2218 18.2073 10.2005 17.851 10.2005 17.5912C10.2008 17.3533 10.2189 16.9761 10.241 16.7531C10.2631 16.53 10.2871 16.3413 10.2943 16.334C10.3016 16.3267 10.3124 16.3267 10.3186 16.334C10.3245 16.3413 10.3803 16.5238 10.4423 16.7395C10.5043 16.9553 10.569 17.147 10.5862 17.1656C10.6078 17.1891 10.628 17.1913 10.6512 17.1724C10.6746 17.1535 10.6881 17.1554 10.6959 17.1789C10.7019 17.1975 10.7205 17.2857 10.7374 17.3749C10.7541 17.4641 10.7827 17.5525 10.8005 17.5712C10.8229 17.5947 10.8436 17.5969 10.8668 17.5779C10.8919 17.5577 10.9145 17.5831 10.9555 17.679C10.9859 17.7496 11.0207 17.8256 11.0328 17.848C11.045 17.8705 11.0824 17.8886 11.1161 17.8886C11.1646 17.8886 11.1849 17.9132 11.2153 18.0102C11.2361 18.0773 11.2816 18.1684 11.3164 18.213C11.373 18.286 11.3838 18.2901 11.4234 18.2536C11.4479 18.2311 11.4711 18.2192 11.4749 18.2265C11.4789 18.2338 11.5121 18.3052 11.5484 18.385C11.5848 18.4647 11.6239 18.5348 11.635 18.5404C11.646 18.5461 11.6765 18.5329 11.7023 18.511C11.7457 18.4745 11.7525 18.4804 11.7859 18.5853C11.8058 18.6483 11.8514 18.7391 11.887 18.7875C11.9226 18.8359 11.9638 18.8754 11.9786 18.8754C11.9934 18.8754 12.0115 18.8511 12.019 18.8213C12.0266 18.7916 12.0446 18.7673 12.0595 18.7673C12.0743 18.7673 12.1104 18.8189 12.1395 18.8822C12.1686 18.9454 12.229 19.0398 12.2735 19.0917C12.3516 19.1828 12.3551 19.1842 12.3686 19.1255C12.3764 19.092 12.3921 19.0644 12.4031 19.0644C12.4142 19.0641 12.4689 19.125 12.5244 19.1996C12.5799 19.2739 12.6497 19.3472 12.6794 19.3621C12.7263 19.3856 12.7349 19.3788 12.7468 19.308C12.7543 19.2634 12.7724 19.2269 12.7872 19.2269C12.802 19.2269 12.8141 19.2391 12.8141 19.2539C12.8141 19.2688 12.8778 19.3483 12.9557 19.4307C13.0335 19.5129 13.1063 19.58 13.1174 19.5794C13.1284 19.5789 13.1435 19.5478 13.1511 19.5108C13.1586 19.4735 13.1737 19.4429 13.1848 19.4424C13.1958 19.4418 13.2292 19.4675 13.2589 19.4994C13.2885 19.5316 13.3643 19.5927 13.4273 19.6357C13.4904 19.6784 13.554 19.7135 13.5688 19.7135C13.5837 19.7135 13.5958 19.6954 13.5958 19.673C13.5958 19.6422 13.6136 19.6473 13.6699 19.6943C13.7106 19.7287 13.7925 19.7725 13.8518 19.7917C13.9348 19.819 13.9629 19.8195 13.9731 19.7946C13.9821 19.773 14.045 19.7982 14.1618 19.8701C14.258 19.9293 14.4248 20.0277 14.5324 20.0891C14.6399 20.1502 14.7399 20.2002 14.7548 20.2002C14.7696 20.2002 14.7817 20.1821 14.7817 20.1596C14.7817 20.1372 14.7275 20.0369 14.6615 19.9366C14.5952 19.8363 14.4801 19.6781 14.4054 19.5851C14.3028 19.4572 14.2793 19.4129 14.31 19.4026C14.3429 19.3915 14.3448 19.375 14.3211 19.3148C14.3049 19.2739 14.2564 19.1947 14.2133 19.139C14.1701 19.0833 14.147 19.0376 14.1618 19.0376C14.1766 19.0376 14.1887 19.0195 14.1887 18.9971C14.1887 18.9746 14.116 18.8835 14.027 18.7943C13.8712 18.638 13.8677 18.6315 13.9327 18.6186C13.9776 18.6096 13.9978 18.5893 13.9933 18.5577C13.9896 18.5318 13.9117 18.4618 13.8198 18.4023C13.7281 18.3428 13.6524 18.2849 13.6513 18.2738C13.6505 18.2628 13.6739 18.2474 13.7036 18.2401C13.7332 18.2328 13.7575 18.2084 13.7575 18.186C13.7575 18.1635 13.706 18.1084 13.6429 18.0632C13.5799 18.0181 13.5012 17.9754 13.4678 17.9686C13.4343 17.9618 13.4071 17.944 13.4071 17.9291C13.4071 17.9143 13.4319 17.8929 13.4618 17.8818C13.492 17.8707 13.5125 17.8494 13.5071 17.8345C13.5017 17.8196 13.4618 17.7829 13.4184 17.7526C13.3753 17.7223 13.282 17.6799 13.2114 17.658C13.1411 17.6361 13.0834 17.609 13.0834 17.5979C13.0837 17.5869 13.1079 17.5714 13.1376 17.5641C13.1672 17.5568 13.1915 17.5385 13.1915 17.5236C13.1915 17.5087 13.1581 17.4714 13.1174 17.4406C13.0767 17.41 12.9918 17.3735 12.9287 17.3595C12.8559 17.3435 12.8141 17.3195 12.8141 17.2938C12.8141 17.2667 12.8321 17.2577 12.8681 17.2667C12.9096 17.277 12.9282 17.2616 12.9489 17.1992L12.9759 17.118C13.1742 17.2524 13.2896 17.3132 13.3599 17.3397C13.4303 17.3665 13.5184 17.3884 13.5554 17.3884C13.5925 17.3884 13.6287 17.3762 13.6362 17.3614C13.6438 17.3465 13.6376 17.31 13.6227 17.2803C13.6079 17.2505 13.6049 17.2259 13.616 17.2256C13.627 17.2251 13.7303 17.2678 13.8451 17.3203C13.9599 17.3725 14.0844 17.4154 14.1214 17.4154C14.1798 17.4154 14.1885 17.4041 14.186 17.3276C14.1844 17.2792 14.1842 17.2275 14.1855 17.2127C14.1866 17.1978 14.2211 17.2183 14.2623 17.2584C14.3033 17.2981 14.4036 17.3619 14.4852 17.4C14.5701 17.4395 14.6822 17.469 14.748 17.4692C14.8111 17.4695 14.8626 17.4573 14.8626 17.4425C14.8626 17.4276 14.8353 17.3706 14.8019 17.3154C14.7434 17.2192 14.7432 17.2162 14.7952 17.2321C14.8248 17.2413 14.9219 17.28 15.0108 17.3178C15.0997 17.3557 15.2332 17.4011 15.3073 17.4187C15.3814 17.4363 15.4633 17.4428 15.4892 17.433C15.5342 17.4163 15.5342 17.4108 15.4892 17.3214C15.4633 17.2697 15.4512 17.2211 15.4623 17.2132C15.4733 17.2056 15.5189 17.2173 15.5633 17.2397C15.6078 17.2621 15.7321 17.2924 15.8396 17.3076C15.9471 17.3227 16.0563 17.3287 16.0822 17.3211C16.1081 17.3135 16.1293 17.2951 16.1293 17.2803C16.1293 17.2654 16.1051 17.2105 16.0754 17.1586C16.0385 17.094 16.032 17.064 16.0552 17.0642C16.0738 17.0645 16.1496 17.0829 16.2237 17.1051C16.2978 17.1275 16.4525 17.1456 16.5673 17.1453C16.6883 17.1453 16.7762 17.1337 16.7762 17.118C16.7762 17.1032 16.752 17.0545 16.7223 17.0099L16.6684 16.9288C16.9713 16.9285 17.132 16.9161 17.2209 16.9009C17.3099 16.8861 17.3856 16.8677 17.3894 16.8607C17.3932 16.8536 17.384 16.8233 17.3692 16.7936C17.3449 16.7449 17.3511 16.7395 17.4298 16.7398C17.4781 16.7398 17.5902 16.7206 17.6791 16.6971C17.7681 16.6736 17.8621 16.6433 17.888 16.6295C17.9228 16.6108 17.9282 16.5938 17.9082 16.5638C17.8934 16.5414 17.8904 16.5181 17.9015 16.5119C17.9125 16.5059 18.0794 16.4748 18.2721 16.4435C18.4648 16.4119 18.7195 16.3621 18.8381 16.3329C18.9567 16.3034 19.0877 16.2645 19.1289 16.2458C19.1702 16.2275 19.2039 16.2061 19.2036 16.1988C19.2033 16.1915 19.127 16.1582 19.034 16.1253C18.9411 16.0923 18.768 16.0415 18.6494 16.0125C18.5308 15.9833 18.3247 15.9393 18.1912 15.9144C18.0578 15.8895 17.9336 15.8644 17.915 15.8584C17.8912 15.8506 17.8894 15.8352 17.9082 15.8068C17.9231 15.7843 17.9293 15.7541 17.9217 15.7392C17.9142 15.7243 17.8506 15.6946 17.7802 15.6729C17.7099 15.6513 17.6037 15.6262 17.5444 15.6167C17.4851 15.6075 17.4215 15.5945 17.4029 15.5883C17.3786 15.5802 17.3767 15.5621 17.3961 15.5229C17.4155 15.4837 17.4139 15.4658 17.3894 15.458C17.3708 15.4521 17.2314 15.4339 17.0794 15.4174C16.9274 15.4012 16.791 15.3939 16.7762 15.4012C16.7614 15.4085 16.7371 15.4085 16.7223 15.4012C16.7067 15.3934 16.7177 15.3539 16.7493 15.3066C16.7789 15.262 16.8032 15.2133 16.8032 15.1985C16.8032 15.1836 16.7576 15.1638 16.7021 15.1547C16.6466 15.1455 16.504 15.1528 16.3854 15.1709C16.2668 15.1887 16.1514 15.2141 16.1293 15.2274C16.1072 15.2404 16.0803 15.2423 16.0698 15.2314C16.0593 15.2209 16.0806 15.1693 16.1172 15.1173C16.1536 15.0654 16.1835 15.0135 16.1832 15.0024C16.1832 14.9914 16.0892 14.9824 15.9744 14.983C15.852 14.9835 15.7073 15.0033 15.6248 15.0303C15.5472 15.056 15.4836 15.0676 15.4833 15.0565C15.4827 15.0454 15.5038 15.0005 15.5296 14.957C15.5555 14.9132 15.5668 14.8678 15.5544 14.8556C15.5423 14.8435 15.4876 14.837 15.4332 14.8416C15.3787 14.8459 15.2677 14.8686 15.186 14.8921C15.1043 14.9157 14.9922 14.9578 14.9367 14.9857C14.8812 15.0135 14.8302 15.027 14.8238 15.016C14.817 15.0049 14.8351 14.9592 14.8639 14.9146C14.8927 14.87 14.9162 14.8243 14.9162 14.8132C14.9165 14.8021 14.8892 14.7875 14.8558 14.7807C14.8224 14.774 14.7405 14.7799 14.6739 14.7943C14.6073 14.8083 14.4828 14.8627 14.3976 14.9146C14.3116 14.9673 14.2367 14.9973 14.2292 14.9822C14.2216 14.9673 14.2216 14.9246 14.2292 14.8875C14.241 14.8275 14.2338 14.8199 14.1618 14.8199C14.1173 14.8199 13.9901 14.8564 13.8788 14.9011C13.7677 14.9457 13.6707 14.9759 13.6632 14.9686C13.6556 14.9613 13.6602 14.9338 13.6734 14.9078C13.6888 14.8767 13.8071 14.8278 14.0162 14.7659C14.192 14.714 14.3602 14.6518 14.3903 14.628L14.4448 14.5845C14.3521 14.4422 14.3249 14.3917 14.3243 14.3806C14.3238 14.3695 14.3812 14.3601 14.4515 14.3598C14.5219 14.3595 14.6523 14.34 14.7413 14.3165C14.8302 14.293 14.9696 14.2403 15.0512 14.1992C15.1329 14.1581 15.2208 14.1046 15.2466 14.0802C15.2725 14.0559 15.2938 14.0178 15.2938 13.9953C15.2938 13.9729 15.245 13.9334 15.1852 13.9075C15.1254 13.8815 15.0768 13.8539 15.0774 13.8466C15.0776 13.8393 15.1841 13.8053 15.314 13.7715C15.4437 13.7377 15.6164 13.679 15.6981 13.6414C15.7798 13.6036 15.8679 13.5522 15.8943 13.5273C15.9207 13.5022 15.942 13.4724 15.9415 13.4614C15.9409 13.4503 15.8865 13.4016 15.8202 13.3532C15.7539 13.3048 15.7054 13.2562 15.7124 13.2451C15.7194 13.234 15.7978 13.2248 15.8868 13.2248C15.9757 13.2248 16.1183 13.2029 16.2035 13.1764C16.2886 13.1496 16.4132 13.0966 16.4797 13.0585C16.5463 13.0204 16.6285 12.9542 16.6625 12.9112C16.6962 12.8679 16.7145 12.8241 16.7029 12.8133C16.6913 12.8028 16.6153 12.7709 16.5336 12.7427C16.452 12.7146 16.3824 12.6808 16.3787 12.6676C16.3749 12.6543 16.4536 12.6216 16.5539 12.5951C16.6538 12.5684 16.8571 12.487 17.0053 12.4142C17.1536 12.3412 17.3053 12.2507 17.3422 12.2131C17.3794 12.1752 17.4021 12.1287 17.3932 12.1101C17.384 12.0912 17.308 12.0544 17.2247 12.0284C17.1412 12.0025 17.0727 11.969 17.0727 11.9541C17.0727 11.9392 17.112 11.9195 17.1603 11.9103C17.2085 11.9008 17.3145 11.8592 17.3961 11.8178C17.4778 11.7762 17.5867 11.7102 17.6387 11.6713C17.6907 11.6323 17.7853 11.5491 17.8492 11.4866C17.9128 11.4239 17.9554 11.3633 17.9435 11.3517C17.9314 11.3401 17.8427 11.3085 17.7465 11.2814C17.6503 11.2544 17.5735 11.2211 17.5762 11.2079C17.5786 11.1944 17.6276 11.1652 17.6851 11.143C17.7425 11.1208 17.8554 11.064 17.9363 11.017C18.0171 10.97 18.1562 10.8691 18.2451 10.7929C18.3341 10.7164 18.4252 10.6236 18.4473 10.5866C18.4831 10.5268 18.4831 10.5166 18.4473 10.4944C18.4252 10.4806 18.3645 10.4622 18.3125 10.4536C18.2605 10.4449 18.1999 10.4265 18.1778 10.4127C18.1438 10.3916 18.1484 10.38 18.2047 10.3408C18.2419 10.3151 18.3492 10.2205 18.4435 10.1305C18.5376 10.0404 18.674 9.89093 18.7467 9.79793C18.8192 9.70492 18.8785 9.61678 18.8785 9.60191C18.8785 9.58704 18.8421 9.56866 18.7977 9.56136C18.7532 9.55406 18.7174 9.53865 18.7179 9.52756C18.7187 9.51648 18.7823 9.43996 18.8594 9.35777C18.9367 9.27558 19.0454 9.12039 19.1009 9.01306C19.1564 8.90572 19.202 8.80569 19.202 8.79082C19.202 8.77595 19.1656 8.76378 19.1211 8.76378C19.0766 8.76378 19.0402 8.75162 19.0402 8.73675C19.0402 8.72188 19.0909 8.65185 19.1529 8.58129C19.2149 8.51072 19.3745 8.30687 19.5076 8.12843C19.6408 7.94999 19.8219 7.69449 19.9097 7.56066C19.9979 7.42683 20.099 7.25948 20.1345 7.18891C20.1701 7.11835 20.1992 7.04832 20.1992 7.03345C20.199 7.01543 20.1698 7.01552 20.1116 7.03372C20.0634 7.04886 19.9149 7.11429 19.7814 7.17945C19.648 7.24461 19.3871 7.38601 19.202 7.49361C19.0168 7.60149 18.7589 7.76073 18.6292 7.84806C18.4996 7.93539 18.3875 8.00676 18.3799 8.00676C18.3724 8.00676 18.3667 7.96729 18.367 7.91889C18.3678 7.83319 18.3653 7.83157 18.2794 7.85239C18.2309 7.86401 18.1187 7.90673 18.0303 7.94701C17.9419 7.9873 17.8026 8.07165 17.7204 8.13465C17.6384 8.19737 17.5622 8.24306 17.5511 8.23603C17.5401 8.22873 17.5312 8.19575 17.5317 8.16222C17.532 8.1287 17.5231 8.09274 17.5115 8.08192C17.4999 8.07138 17.4481 8.08517 17.3961 8.11275C17.3441 8.14032 17.2048 8.23576 17.0862 8.32471C16.9676 8.41366 16.822 8.53695 16.7627 8.59859C16.7034 8.66023 16.6458 8.71025 16.6347 8.71025C16.6237 8.70998 16.6021 8.63374 16.587 8.54073C16.5716 8.44773 16.5536 8.36554 16.5468 8.35824C16.5401 8.35094 16.4838 8.38122 16.4221 8.42583C16.3603 8.47044 16.2358 8.58805 16.1455 8.687C16.055 8.78595 15.9326 8.94871 15.8733 9.04848C15.7873 9.19339 15.762 9.21962 15.748 9.17933C15.7383 9.15149 15.7202 9.05253 15.7075 8.95953C15.6949 8.86625 15.6755 8.79028 15.6644 8.79055C15.6534 8.79055 15.5806 8.843 15.5027 8.90681C15.4248 8.97061 15.2976 9.10742 15.2197 9.21097C15.1418 9.31452 15.062 9.44781 15.0423 9.50729C15.0224 9.56677 14.9952 9.61543 14.9817 9.61543C14.9685 9.61543 14.9391 9.5427 14.9167 9.45348C14.8882 9.33966 14.862 9.28964 14.8289 9.28451C14.8008 9.28045 14.7426 9.32425 14.6855 9.39238C14.6327 9.45565 14.5451 9.58028 14.4909 9.6695C14.4367 9.75872 14.3529 9.91986 14.3041 10.0277C14.2556 10.1356 14.2068 10.2267 14.1958 10.2305C14.1847 10.2343 14.1604 10.1613 14.1418 10.0683C14.1157 9.93879 14.0968 9.89931 14.0607 9.89904C14.0348 9.89877 13.9642 9.95041 13.9039 10.0139C13.8435 10.0772 13.7756 10.1597 13.7529 10.1967C13.7303 10.234 13.6874 10.3314 13.6572 10.413C13.6273 10.4947 13.5952 10.6196 13.5858 10.6901C13.5758 10.7658 13.5551 10.8186 13.5351 10.8186C13.5165 10.8186 13.4772 10.7737 13.4475 10.7188C13.4179 10.6642 13.3785 10.6155 13.3599 10.6109C13.3413 10.606 13.299 10.6306 13.2656 10.6655C13.2322 10.7001 13.161 10.8188 13.1074 10.9291C13.0538 11.0392 12.9902 11.1933 12.9659 11.2714C12.9416 11.3495 12.9128 11.4136 12.9017 11.4139C12.8907 11.4144 12.8664 11.3658 12.8478 11.3057C12.8233 11.2263 12.7996 11.1971 12.7602 11.1971C12.7306 11.1971 12.6694 11.2425 12.6241 11.2984C12.5791 11.3541 12.5069 11.4728 12.4638 11.5621C12.4206 11.6513 12.3646 11.8094 12.3392 11.9135C12.3139 12.0176 12.2891 12.109 12.284 12.1163C12.2791 12.1236 12.2476 12.1028 12.2144 12.0695C12.181 12.0365 12.1325 12.009 12.1066 12.0087C12.0805 12.0084 12.0352 12.0506 12.0056 12.1028C11.9759 12.155 11.9333 12.1974 11.9112 12.1974C11.8821 12.1974 11.8757 12.1801 11.8878 12.1366C11.8972 12.1031 11.9805 11.9116 12.0729 11.7108C12.1654 11.5099 12.2487 11.3185 12.2581 11.2849C12.2681 11.249 12.2613 11.2144 12.2414 11.2C12.2228 11.1871 12.1562 11.1687 12.0932 11.1595L11.9786 11.143C12.1638 10.881 12.2546 10.7228 12.3002 10.6225C12.3457 10.5222 12.4026 10.3641 12.4263 10.2711C12.4503 10.1781 12.4624 10.0686 12.4533 10.0277C12.4419 9.97691 12.4198 9.95339 12.3829 9.95339C12.3533 9.95339 12.2861 9.98069 12.2339 10.0142C12.1813 10.0477 12.1328 10.0659 12.126 10.0548C12.119 10.0437 12.174 9.91283 12.2481 9.76413C12.3223 9.61543 12.4072 9.42077 12.4368 9.33155C12.4665 9.24233 12.4907 9.13283 12.4907 9.08822C12.4907 9.04361 12.4756 9.00008 12.457 8.99116C12.4384 8.98251 12.3568 8.98954 12.2751 9.00684C12.1934 9.02414 12.1209 9.03144 12.1134 9.02333C12.1058 9.01522 12.1212 8.98089 12.1473 8.94709C12.1735 8.91302 12.2368 8.83083 12.2883 8.76378C12.3398 8.69673 12.4185 8.55398 12.4632 8.44611C12.508 8.33823 12.5519 8.18007 12.5605 8.09463C12.57 8.00487 12.5643 7.90781 12.547 7.86482L12.5177 7.79047C12.2042 7.9581 12.1069 8.00379 12.0994 8C12.0915 7.99622 12.1322 7.89591 12.1899 7.77695C12.2476 7.65799 12.3204 7.48145 12.3516 7.38493C12.3829 7.28841 12.4268 7.12997 12.4492 7.03345C12.4716 6.93693 12.4902 6.81824 12.4904 6.76985C12.4908 6.71109 12.4752 6.67576 12.4435 6.66386C12.4136 6.65224 12.3347 6.67954 12.2287 6.73821C12.1366 6.78904 12.0546 6.82149 12.0468 6.8104C12.039 6.79932 12.0584 6.73848 12.0897 6.67522C12.1212 6.61195 12.17 6.4692 12.198 6.35754C12.2322 6.22074 12.2487 6.06014 12.2484 5.86413C12.2481 5.60512 12.243 5.57348 12.201 5.57402C12.1751 5.5743 12.0689 5.62918 11.9651 5.69569C11.8614 5.7622 11.7705 5.81059 11.763 5.80302C11.7554 5.79545 11.7705 5.74381 11.7964 5.68812C11.8223 5.63242 11.8627 5.514 11.8864 5.42478C11.9104 5.33556 11.9366 5.11062 11.9447 4.92461C11.9527 4.73887 11.9517 4.55313 11.9422 4.5123C11.9325 4.47148 11.9096 4.43768 11.891 4.43741C11.8724 4.43687 11.7875 4.48554 11.7023 4.54556C11.6172 4.60531 11.5466 4.65127 11.5455 4.64749C11.5444 4.6437 11.5396 4.4704 11.5347 4.26222C11.5298 4.05404 11.5123 3.79854 11.4956 3.69445C11.4792 3.59036 11.4598 3.47167 11.4525 3.43085C11.4455 3.39002 11.4274 3.3565 11.4126 3.3565C11.3978 3.3565 11.3493 3.38083 11.3048 3.41057C11.246 3.45004 11.2207 3.45545 11.2126 3.43085C11.2061 3.41219 11.1929 3.30594 11.183 3.19428C11.173 3.08289 11.1404 2.91229 11.1105 2.81577C11.0805 2.71925 11.0334 2.59434 11.0053 2.53864C10.9773 2.48295 10.9423 2.43726 10.9275 2.43726C10.9126 2.43726 10.8733 2.47349 10.8399 2.5181L10.7792 2.59866C10.6798 1.96033 10.5994 1.5437 10.5364 1.26117C10.4733 0.978642 10.3811 0.626627 10.331 0.478738C10.2811 0.330849 10.2269 0.20567 10.211 0.200533C10.1949 0.195396 10.1563 0.249469 10.1256 0.320575Z"/>
</mask>
<path d="M10.1256 0.320575C10.0946 0.391951 10.0321 0.590128 9.9868 0.760998C9.94125 0.931869 9.86686 1.24847 9.82131 1.46395C9.77576 1.67943 9.71512 2.00819 9.68628 2.19393C9.65771 2.37994 9.63453 2.54405 9.63453 2.55892C9.6348 2.57379 9.59733 2.54946 9.55151 2.50485C9.46931 2.42509 9.46742 2.42455 9.42861 2.47781C9.40705 2.50755 9.36446 2.59866 9.33346 2.68059C9.30274 2.76251 9.26123 2.92067 9.24102 3.03206C9.2208 3.14372 9.20382 3.28647 9.20328 3.34974C9.20301 3.413 9.19654 3.46464 9.189 3.46464C9.18145 3.46464 9.13913 3.44031 9.09466 3.41057C9.05019 3.38083 9.00464 3.36109 8.99359 3.36704C8.98254 3.37272 8.95828 3.44247 8.94022 3.5225C8.92189 3.60226 8.89494 3.81963 8.88012 4.00537C8.86556 4.19138 8.86233 4.4074 8.87284 4.48554C8.88766 4.59206 8.88389 4.62775 8.85882 4.62748C8.84023 4.62748 8.76449 4.58476 8.69037 4.53258C8.61625 4.4804 8.53728 4.43795 8.51518 4.43795C8.49308 4.43795 8.46882 4.46526 8.46154 4.49879C8.45453 4.53231 8.44833 4.6629 8.44779 4.78943C8.44752 4.91596 8.46558 5.12576 8.48795 5.25581C8.51032 5.38585 8.55291 5.55943 8.58256 5.64108C8.61221 5.72273 8.6335 5.79518 8.62973 5.80167C8.62595 5.80789 8.53809 5.75895 8.43432 5.69271C8.33055 5.62648 8.22436 5.5724 8.19848 5.57294C8.15697 5.57348 8.15131 5.60404 8.15131 5.83033C8.15131 5.97173 8.17018 6.18153 8.19309 6.29671C8.21627 6.41188 8.26478 6.57005 8.3009 6.64818C8.33729 6.72632 8.36128 6.79932 8.35427 6.8104C8.34753 6.82149 8.27476 6.79121 8.19255 6.74281C8.11061 6.69441 8.01628 6.65792 7.98286 6.6617C7.9268 6.66792 7.92275 6.68063 7.92787 6.83068C7.93111 6.9199 7.96534 7.10239 8.00388 7.23622C8.04215 7.37006 8.12759 7.59202 8.19336 7.72964C8.25912 7.86726 8.30387 7.98568 8.29282 7.9927C8.28177 7.99973 8.19983 7.9635 8.11088 7.91214C8.02194 7.86077 7.92787 7.81859 7.902 7.81805C7.86993 7.81778 7.84971 7.84563 7.83866 7.90538C7.8295 7.95377 7.83084 8.04786 7.84136 8.11491C7.8516 8.18196 7.88745 8.30957 7.9206 8.39879C7.95375 8.48801 8.0241 8.62806 8.07692 8.70971C8.12948 8.79136 8.20441 8.89194 8.24295 8.93276C8.2815 8.97359 8.30656 9.0163 8.29848 9.02739C8.29066 9.03847 8.21196 9.03253 8.12328 9.01387C8.03488 8.99522 7.95052 8.98629 7.93569 8.99359C7.92087 9.00089 7.90847 9.04064 7.90847 9.08146C7.9082 9.12229 7.93353 9.23503 7.9648 9.33155C7.99606 9.42807 8.08124 9.62598 8.15401 9.77089C8.22651 9.91581 8.28042 10.0437 8.27341 10.0548C8.26667 10.0659 8.21816 10.0477 8.1656 10.0142C8.11331 9.98069 8.05213 9.95339 8.03003 9.95339C8.00792 9.95339 7.97747 9.97772 7.96264 10.0075C7.94485 10.0431 7.94459 10.1097 7.96211 10.2035C7.97666 10.2816 8.02329 10.4306 8.0656 10.5347C8.10792 10.6388 8.17665 10.7785 8.21816 10.8456C8.25993 10.9126 8.323 11.0038 8.35858 11.0484C8.39389 11.093 8.41518 11.1357 8.40575 11.143C8.39631 11.1503 8.33837 11.1627 8.27664 11.1706C8.16883 11.1838 8.16479 11.1879 8.16722 11.2787C8.16856 11.3347 8.24161 11.5258 8.34834 11.7513C8.44645 11.9595 8.52731 12.145 8.52784 12.1636C8.52838 12.1823 8.51032 12.1974 8.48822 12.1974C8.46612 12.1974 8.4265 12.1547 8.40063 12.1022C8.37044 12.0411 8.33405 12.0068 8.29955 12.0068C8.26991 12.0065 8.22139 12.0314 8.19174 12.0622C8.16209 12.0931 8.13191 12.1177 8.12436 12.1174C8.11681 12.1168 8.09633 12.0403 8.07827 11.9473C8.06048 11.8543 7.99714 11.681 7.93812 11.5621C7.87882 11.4431 7.79958 11.3122 7.76185 11.2714C7.72411 11.2306 7.66886 11.1971 7.63921 11.1971C7.60228 11.1971 7.58045 11.2203 7.56967 11.2714C7.56105 11.3122 7.54892 11.3609 7.54272 11.3796C7.53652 11.3982 7.52223 11.4136 7.51118 11.4139C7.50013 11.4144 7.47453 11.3625 7.45458 11.299C7.43464 11.2355 7.37615 11.0922 7.32494 10.9808C7.27373 10.8691 7.20204 10.7385 7.16592 10.6901C7.1298 10.6417 7.08183 10.6023 7.05972 10.6023C7.03762 10.6023 6.98776 10.6601 6.94949 10.7307C6.91014 10.8029 6.87079 10.8472 6.85947 10.8321C6.84841 10.8172 6.82524 10.7258 6.80799 10.6293C6.79074 10.5328 6.74276 10.3806 6.70125 10.2913C6.65975 10.2021 6.57484 10.0775 6.51258 10.0142C6.45032 9.95095 6.37863 9.90229 6.35329 9.90607C6.32715 9.90986 6.29858 9.94798 6.28726 9.99394C6.27621 10.0386 6.26057 10.1086 6.25249 10.1494C6.2444 10.1902 6.22446 10.2208 6.20856 10.217C6.19238 10.2132 6.15222 10.1432 6.11907 10.0615C6.08592 9.97988 6.0091 9.82767 5.94873 9.72358C5.88836 9.61949 5.7889 9.47646 5.72826 9.4059C5.66734 9.33533 5.59942 9.27748 5.57732 9.27748C5.55468 9.27748 5.52611 9.31614 5.51236 9.36534C5.49889 9.41374 5.48056 9.48674 5.47193 9.52756C5.46331 9.56839 5.44687 9.60245 5.43582 9.60299C5.42477 9.60354 5.37383 9.52134 5.32289 9.4205C5.25955 9.29559 5.15767 9.16338 5.00376 9.00711C4.7876 8.78731 4.77601 8.77973 4.73936 8.83137C4.71833 8.86111 4.69219 8.95547 4.68114 9.04118C4.66874 9.13743 4.64799 9.19691 4.62723 9.19664C4.60864 9.19664 4.59354 9.1842 4.59354 9.16933C4.59354 9.15446 4.54934 9.07227 4.49543 8.98683C4.44126 8.9014 4.31081 8.74188 4.20569 8.63266C4.10031 8.52343 3.98064 8.41718 3.93994 8.39609C3.87363 8.36229 3.86339 8.3631 3.84264 8.40555C3.8297 8.43151 3.81164 8.50748 3.80248 8.57453C3.79331 8.64158 3.78253 8.69917 3.77849 8.70268C3.77472 8.70647 3.7138 8.65483 3.64346 8.58778C3.57311 8.521 3.41544 8.39203 3.29307 8.30119C3.1707 8.21035 3.03729 8.11896 2.99659 8.09842C2.95589 8.0776 2.91034 8.06705 2.89552 8.07435C2.88069 8.08165 2.86883 8.11518 2.86937 8.1487C2.86964 8.18223 2.86075 8.21846 2.84916 8.229C2.83757 8.23982 2.76749 8.19953 2.69337 8.13924C2.61925 8.07895 2.48583 7.99379 2.39689 7.95026C2.30794 7.90646 2.19043 7.86158 2.13572 7.85076C2.03869 7.83157 2.03626 7.83292 2.02791 7.91889L2.01955 8.00676C1.76889 7.83697 1.53844 7.6926 1.34573 7.57661C1.15302 7.46063 0.879985 7.3076 0.739291 7.23677C0.598598 7.16593 0.422596 7.08482 0.348476 7.05643C0.274356 7.02831 0.207782 7.01128 0.200235 7.01858C0.192689 7.02588 0.227997 7.10834 0.278398 7.20162C0.3288 7.29516 0.44335 7.4809 0.533102 7.61473C0.622855 7.74857 0.787537 7.97973 0.898852 8.12843C1.01017 8.27713 1.16542 8.47476 1.24385 8.56777C1.32201 8.66077 1.37807 8.74297 1.3681 8.75027C1.3584 8.75784 1.31581 8.76378 1.27377 8.76378C1.20773 8.76378 1.19965 8.77189 1.21447 8.82462C1.22363 8.85814 1.24951 8.92195 1.27161 8.96656C1.29398 9.01117 1.36379 9.12066 1.42713 9.20988C1.4902 9.2991 1.57402 9.40238 1.6131 9.43969C1.65218 9.47673 1.68372 9.51648 1.68345 9.52756C1.68291 9.53865 1.64625 9.55406 1.60178 9.56136C1.55731 9.56866 1.52065 9.58407 1.52011 9.59515C1.51984 9.60624 1.55623 9.66707 1.60097 9.73034C1.64598 9.7936 1.76026 9.92743 1.85514 10.0277C1.95001 10.128 2.07723 10.2467 2.1376 10.2913C2.19798 10.336 2.24784 10.3787 2.24865 10.386C2.24919 10.3933 2.17668 10.4208 2.08747 10.4468C1.99826 10.4728 1.92468 10.5093 1.92414 10.5279C1.9236 10.5466 1.98748 10.6228 2.06564 10.6974C2.14407 10.772 2.26886 10.877 2.34298 10.9308C2.4171 10.9843 2.54136 11.06 2.61925 11.0992C2.69714 11.1381 2.77881 11.17 2.80118 11.17C2.82355 11.17 2.83865 11.1838 2.83487 11.2006C2.8311 11.2176 2.74943 11.2536 2.65294 11.2809C2.55645 11.3082 2.46804 11.3401 2.45619 11.3517C2.44433 11.3633 2.50497 11.4382 2.59095 11.5183C2.67693 11.598 2.82598 11.7099 2.92247 11.7667C3.01896 11.8235 3.15534 11.8827 3.22569 11.8984C3.29603 11.9141 3.34778 11.9392 3.34024 11.9541C3.33269 11.969 3.2583 12.0025 3.17475 12.0284C3.09146 12.0544 3.01546 12.0909 3.00629 12.1095C2.9974 12.1282 3.01411 12.169 3.04376 12.2001C3.0734 12.2315 3.22488 12.3202 3.38067 12.3975C3.53645 12.4748 3.74588 12.5616 3.84641 12.5908C3.94668 12.6197 4.02457 12.6557 4.01918 12.6705C4.01379 12.6854 3.94371 12.7173 3.86339 12.7414C3.77202 12.769 3.71515 12.8017 3.71084 12.8293C3.70707 12.8536 3.74345 12.9109 3.7917 12.9566C3.83994 13.0026 3.93994 13.0685 4.01406 13.1034C4.08818 13.1383 4.20354 13.1794 4.27011 13.1951C4.33668 13.2107 4.45501 13.2237 4.5329 13.2243C4.62804 13.2245 4.67413 13.2359 4.67386 13.2586C4.67359 13.2772 4.62508 13.3259 4.56605 13.3667C4.50702 13.4076 4.45878 13.4533 4.45878 13.4681C4.45878 13.483 4.4922 13.5184 4.5329 13.5468C4.5736 13.5752 4.66173 13.622 4.72831 13.6509C4.79488 13.6795 4.95606 13.7325 5.08597 13.7682C5.21615 13.8039 5.32262 13.8393 5.32262 13.8466C5.32289 13.8539 5.2741 13.8815 5.21427 13.9075C5.13961 13.9399 5.1078 13.9696 5.11265 14.0021C5.11643 14.028 5.17411 14.0862 5.24068 14.1311C5.30725 14.1759 5.4466 14.2406 5.55037 14.2749C5.65414 14.309 5.81504 14.3452 5.90776 14.3555C6.00048 14.3655 6.07622 14.383 6.07622 14.3941C6.07595 14.4052 6.05115 14.4479 6.02123 14.4887C5.99105 14.5296 5.96679 14.5723 5.96733 14.5834C5.9676 14.5945 6.01962 14.6269 6.08269 14.655C6.14576 14.6834 6.3161 14.741 6.4611 14.7834C6.66567 14.8432 6.72821 14.8727 6.73926 14.9146C6.7468 14.9443 6.74653 14.9749 6.73818 14.9822C6.72982 14.9895 6.64115 14.9573 6.54088 14.9102C6.44089 14.8635 6.32257 14.8208 6.27809 14.8156C6.20101 14.807 6.19723 14.811 6.19723 14.9078C6.19723 14.9635 6.18807 15.0092 6.17702 15.0092C6.16597 15.0092 6.11745 14.9795 6.06921 14.9432C6.02096 14.907 5.93606 14.8583 5.88054 14.8351C5.82502 14.8118 5.72583 14.7899 5.66034 14.7861C5.59484 14.7824 5.53123 14.7886 5.51883 14.7997C5.50643 14.811 5.52072 14.8621 5.55037 14.9135C5.58002 14.9649 5.59511 15.0135 5.58406 15.0216C5.57301 15.0295 5.51829 15.0133 5.46277 14.9849C5.40725 14.9567 5.29512 14.9146 5.21346 14.8911C5.13179 14.8675 5.02074 14.8451 4.9663 14.841C4.91186 14.8367 4.86011 14.8427 4.85175 14.8537C4.84313 14.8648 4.85445 14.9105 4.87655 14.9551C4.89865 14.9997 4.91401 15.0427 4.91024 15.0508C4.90647 15.0589 4.83693 15.0468 4.75526 15.0235C4.67359 15.0005 4.52508 14.9816 4.42509 14.9819C4.29733 14.9822 4.24343 14.9922 4.2437 15.016C4.24397 15.0346 4.26795 15.08 4.29706 15.1173C4.32617 15.1544 4.35016 15.2001 4.35043 15.2187C4.3507 15.2444 4.32078 15.2425 4.22294 15.2104C4.1526 15.1871 3.9898 15.1657 3.8615 15.163C3.73294 15.1601 3.62082 15.1671 3.61219 15.1782C3.6033 15.1893 3.62028 15.2379 3.64939 15.2863C3.6785 15.3347 3.70275 15.3834 3.70329 15.3945C3.70383 15.4056 3.68281 15.4085 3.65693 15.4012C3.63106 15.3937 3.49441 15.3991 3.35371 15.4134C3.21302 15.4275 3.07637 15.4458 3.05049 15.4539C3.01707 15.4645 3.00764 15.4867 3.01842 15.5297C3.0319 15.5848 3.02112 15.5924 2.90387 15.6099C2.83245 15.6205 2.73164 15.6413 2.67989 15.6565C2.62814 15.6713 2.5613 15.7008 2.53165 15.7219C2.48826 15.753 2.48422 15.7673 2.51117 15.797C2.52977 15.8173 2.53677 15.843 2.52707 15.8541C2.5171 15.8652 2.48098 15.8744 2.44621 15.8744C2.41171 15.8744 2.21065 15.9122 1.99934 15.9584C1.78803 16.0047 1.53036 16.072 1.42659 16.1077C1.32282 16.1436 1.23199 16.1788 1.22444 16.1864C1.2169 16.1937 1.22309 16.2115 1.23792 16.2258C1.25274 16.2399 1.38023 16.2813 1.52092 16.3175C1.66162 16.3537 1.94462 16.4118 2.14919 16.4465C2.47667 16.5022 2.51979 16.5154 2.50632 16.557C2.495 16.5927 2.51925 16.6171 2.60577 16.6568C2.66884 16.6857 2.80064 16.7193 2.89902 16.7312C3.07529 16.7528 3.07718 16.7539 3.04052 16.8139C3.00494 16.872 3.00791 16.8755 3.1044 16.8942C3.15992 16.905 3.3238 16.9142 3.46826 16.9145C3.62513 16.915 3.73078 16.9261 3.73024 16.9423C3.72998 16.9572 3.70626 16.9996 3.67715 17.0369C3.64804 17.074 3.62405 17.1137 3.62378 17.1248C3.62351 17.1359 3.72944 17.1448 3.85908 17.1443C4.00651 17.1437 4.14801 17.1259 4.23696 17.097C4.31512 17.0713 4.38493 17.0534 4.39194 17.0572C4.39894 17.061 4.37145 17.1137 4.33075 17.1743C4.26741 17.2684 4.26256 17.2881 4.29706 17.31C4.31943 17.3241 4.41026 17.3281 4.49921 17.3187C4.58815 17.3095 4.7275 17.2797 4.80917 17.2524C4.89083 17.2254 4.96037 17.2083 4.96414 17.2148C4.96792 17.2211 4.95255 17.2627 4.93045 17.3073C4.90835 17.3519 4.89002 17.4006 4.89002 17.4154C4.89002 17.4303 4.92345 17.4428 4.96414 17.443C5.00484 17.4433 5.12317 17.4179 5.22693 17.3865C5.3307 17.3554 5.45495 17.3065 5.5032 17.2778C5.55145 17.2494 5.60293 17.2324 5.61775 17.2397C5.63365 17.2475 5.6226 17.2895 5.59107 17.3411C5.56142 17.3895 5.54632 17.4384 5.55738 17.4501C5.56843 17.4617 5.61371 17.4706 5.65818 17.4701C5.70265 17.4695 5.78135 17.4579 5.83337 17.4438C5.88539 17.4298 5.99132 17.3752 6.06921 17.3222C6.1471 17.2694 6.21664 17.2262 6.22419 17.2262C6.23173 17.2262 6.22958 17.2719 6.21961 17.3276L6.20155 17.429C6.38617 17.4 6.52175 17.3481 6.62174 17.2954C6.72497 17.2408 6.8096 17.2108 6.81715 17.2262C6.8247 17.2411 6.8185 17.2594 6.80367 17.2667C6.78885 17.274 6.77645 17.3076 6.77618 17.3411C6.77591 17.3981 6.78319 17.4006 6.89747 17.3816C6.96458 17.3706 7.0891 17.3265 7.17427 17.2838C7.25945 17.2411 7.34758 17.1856 7.36968 17.1608C7.39178 17.1359 7.41928 17.1162 7.43033 17.117C7.44138 17.1175 7.45351 17.1516 7.45728 17.1924C7.46294 17.2538 7.47695 17.2667 7.5376 17.2667C7.57803 17.2667 7.61226 17.2789 7.6136 17.2938C7.61495 17.3086 7.55781 17.3389 7.48612 17.3614C7.41469 17.3838 7.32898 17.4171 7.29556 17.4357C7.26214 17.4544 7.23492 17.4876 7.23492 17.5101C7.23492 17.5325 7.25325 17.5506 7.27535 17.5506C7.29745 17.5506 7.31605 17.5658 7.31605 17.5844C7.31632 17.6031 7.25891 17.639 7.18802 17.6647C7.1174 17.6901 7.0263 17.7358 6.9856 17.7661C6.94491 17.7964 6.91148 17.8332 6.91148 17.848C6.91148 17.8629 6.93574 17.8813 6.96539 17.8886C6.99504 17.8959 7.0193 17.9143 7.0193 17.9291C7.0193 17.944 6.99207 17.9618 6.95865 17.9686C6.92523 17.9754 6.84653 18.0181 6.78346 18.0632C6.72039 18.1084 6.66864 18.1606 6.66837 18.1792C6.66837 18.1979 6.70152 18.226 6.74249 18.2417L6.81715 18.2701C6.6708 18.3463 6.577 18.4096 6.51393 18.4596C6.45086 18.5099 6.39938 18.5631 6.39938 18.578C6.39938 18.5929 6.43577 18.6113 6.48024 18.6186L6.5611 18.6321C6.23227 18.9673 6.2099 19.0014 6.24521 19.0241C6.28214 19.0476 6.27809 19.0633 6.2126 19.1458C6.17136 19.1977 6.12258 19.2707 6.10425 19.308C6.07676 19.3631 6.07729 19.3791 6.10694 19.3945C6.13551 19.4094 6.13012 19.4299 6.08188 19.4891C6.04819 19.5308 5.93067 19.6987 5.82097 19.8622C5.6951 20.0496 5.63015 20.1696 5.64578 20.1867C5.66222 20.2043 5.7199 20.1861 5.81262 20.1342C5.89078 20.0907 6.06382 19.9896 6.19723 19.9096C6.37674 19.8017 6.44439 19.7733 6.4576 19.7995C6.47242 19.829 6.49102 19.829 6.56541 19.7995C6.615 19.78 6.6902 19.7373 6.73252 19.7049C6.79828 19.6546 6.81257 19.6519 6.8317 19.6865C6.85165 19.7225 6.86243 19.7225 6.92766 19.6865C6.96809 19.6641 7.05972 19.5943 7.13142 19.531C7.2581 19.4197 7.26187 19.418 7.26187 19.4837C7.26187 19.5208 7.27696 19.5586 7.29556 19.5678C7.31443 19.577 7.3748 19.5381 7.43221 19.4799C7.48908 19.4226 7.55566 19.3421 7.58045 19.301C7.60552 19.2599 7.6349 19.2263 7.64595 19.2266C7.657 19.2266 7.66643 19.2482 7.6667 19.2742C7.6667 19.3002 7.67587 19.3369 7.68692 19.3561C7.70093 19.3807 7.73974 19.3572 7.82195 19.275C7.88529 19.2112 7.94297 19.1379 7.94998 19.112C7.95698 19.086 7.98097 19.0647 8.00307 19.0647C8.02517 19.0647 8.04997 19.092 8.05779 19.1255C8.07126 19.1842 8.07477 19.1828 8.15293 19.0917C8.1974 19.0398 8.25778 18.9454 8.28689 18.8822C8.316 18.8189 8.35211 18.7673 8.36694 18.7673C8.38176 18.7673 8.39982 18.7916 8.40737 18.8213C8.41491 18.8511 8.43297 18.8754 8.44779 18.8754C8.46262 18.8754 8.50386 18.8359 8.5397 18.7875C8.57528 18.7391 8.61814 18.6451 8.63512 18.578C8.6645 18.4596 8.66692 18.4577 8.7184 18.5037C8.74751 18.5296 8.78039 18.5461 8.79144 18.5402C8.80249 18.5345 8.84804 18.455 8.89252 18.3639C8.93699 18.2728 8.98254 18.1987 8.99359 18.199C9.00464 18.1992 9.0138 18.2176 9.0138 18.2401C9.0138 18.2625 9.02593 18.2806 9.04076 18.2806C9.05558 18.2806 9.09251 18.2471 9.12269 18.2063C9.15288 18.1654 9.1952 18.0741 9.21703 18.0035C9.24964 17.8967 9.26554 17.8772 9.31028 17.8886C9.33993 17.8959 9.37335 17.887 9.3844 17.8683C9.39545 17.8499 9.42969 17.7739 9.46041 17.6993C9.50569 17.5901 9.52752 17.5655 9.57496 17.5709C9.60892 17.5747 9.64396 17.5577 9.65798 17.5303C9.67145 17.5044 9.69059 17.4344 9.70029 17.3749C9.71026 17.3154 9.72347 17.2332 9.72994 17.1924C9.73991 17.1289 9.74773 17.1229 9.78411 17.1518C9.81861 17.1794 9.83128 17.1781 9.85096 17.1451C9.86416 17.1226 9.90271 16.9856 9.9364 16.8404C9.97009 16.6952 10.0097 16.5765 10.0245 16.577C10.0423 16.5773 10.0404 16.6955 10.0197 16.922C10.0022 17.1116 9.98707 17.4006 9.98626 17.5641C9.98545 17.7277 10.0094 18.0684 10.0396 18.3212C10.0695 18.574 10.103 19.0333 10.1132 19.3418L10.1323 19.9031C10.304 19.9028 10.3083 19.8977 10.3251 19.7744C10.3345 19.7038 10.3345 19.4878 10.3248 19.2945C10.3151 19.1012 10.2833 18.7362 10.2539 18.4834C10.2218 18.2073 10.2005 17.851 10.2005 17.5912C10.2008 17.3533 10.2189 16.9761 10.241 16.7531C10.2631 16.53 10.2871 16.3413 10.2943 16.334C10.3016 16.3267 10.3124 16.3267 10.3186 16.334C10.3245 16.3413 10.3803 16.5238 10.4423 16.7395C10.5043 16.9553 10.569 17.147 10.5862 17.1656C10.6078 17.1891 10.628 17.1913 10.6512 17.1724C10.6746 17.1535 10.6881 17.1554 10.6959 17.1789C10.7019 17.1975 10.7205 17.2857 10.7374 17.3749C10.7541 17.4641 10.7827 17.5525 10.8005 17.5712C10.8229 17.5947 10.8436 17.5969 10.8668 17.5779C10.8919 17.5577 10.9145 17.5831 10.9555 17.679C10.9859 17.7496 11.0207 17.8256 11.0328 17.848C11.045 17.8705 11.0824 17.8886 11.1161 17.8886C11.1646 17.8886 11.1849 17.9132 11.2153 18.0102C11.2361 18.0773 11.2816 18.1684 11.3164 18.213C11.373 18.286 11.3838 18.2901 11.4234 18.2536C11.4479 18.2311 11.4711 18.2192 11.4749 18.2265C11.4789 18.2338 11.5121 18.3052 11.5484 18.385C11.5848 18.4647 11.6239 18.5348 11.635 18.5404C11.646 18.5461 11.6765 18.5329 11.7023 18.511C11.7457 18.4745 11.7525 18.4804 11.7859 18.5853C11.8058 18.6483 11.8514 18.7391 11.887 18.7875C11.9226 18.8359 11.9638 18.8754 11.9786 18.8754C11.9934 18.8754 12.0115 18.8511 12.019 18.8213C12.0266 18.7916 12.0446 18.7673 12.0595 18.7673C12.0743 18.7673 12.1104 18.8189 12.1395 18.8822C12.1686 18.9454 12.229 19.0398 12.2735 19.0917C12.3516 19.1828 12.3551 19.1842 12.3686 19.1255C12.3764 19.092 12.3921 19.0644 12.4031 19.0644C12.4142 19.0641 12.4689 19.125 12.5244 19.1996C12.5799 19.2739 12.6497 19.3472 12.6794 19.3621C12.7263 19.3856 12.7349 19.3788 12.7468 19.308C12.7543 19.2634 12.7724 19.2269 12.7872 19.2269C12.802 19.2269 12.8141 19.2391 12.8141 19.2539C12.8141 19.2688 12.8778 19.3483 12.9557 19.4307C13.0335 19.5129 13.1063 19.58 13.1174 19.5794C13.1284 19.5789 13.1435 19.5478 13.1511 19.5108C13.1586 19.4735 13.1737 19.4429 13.1848 19.4424C13.1958 19.4418 13.2292 19.4675 13.2589 19.4994C13.2885 19.5316 13.3643 19.5927 13.4273 19.6357C13.4904 19.6784 13.554 19.7135 13.5688 19.7135C13.5837 19.7135 13.5958 19.6954 13.5958 19.673C13.5958 19.6422 13.6136 19.6473 13.6699 19.6943C13.7106 19.7287 13.7925 19.7725 13.8518 19.7917C13.9348 19.819 13.9629 19.8195 13.9731 19.7946C13.9821 19.773 14.045 19.7982 14.1618 19.8701C14.258 19.9293 14.4248 20.0277 14.5324 20.0891C14.6399 20.1502 14.7399 20.2002 14.7548 20.2002C14.7696 20.2002 14.7817 20.1821 14.7817 20.1596C14.7817 20.1372 14.7275 20.0369 14.6615 19.9366C14.5952 19.8363 14.4801 19.6781 14.4054 19.5851C14.3028 19.4572 14.2793 19.4129 14.31 19.4026C14.3429 19.3915 14.3448 19.375 14.3211 19.3148C14.3049 19.2739 14.2564 19.1947 14.2133 19.139C14.1701 19.0833 14.147 19.0376 14.1618 19.0376C14.1766 19.0376 14.1887 19.0195 14.1887 18.9971C14.1887 18.9746 14.116 18.8835 14.027 18.7943C13.8712 18.638 13.8677 18.6315 13.9327 18.6186C13.9776 18.6096 13.9978 18.5893 13.9933 18.5577C13.9896 18.5318 13.9117 18.4618 13.8198 18.4023C13.7281 18.3428 13.6524 18.2849 13.6513 18.2738C13.6505 18.2628 13.6739 18.2474 13.7036 18.2401C13.7332 18.2328 13.7575 18.2084 13.7575 18.186C13.7575 18.1635 13.706 18.1084 13.6429 18.0632C13.5799 18.0181 13.5012 17.9754 13.4678 17.9686C13.4343 17.9618 13.4071 17.944 13.4071 17.9291C13.4071 17.9143 13.4319 17.8929 13.4618 17.8818C13.492 17.8707 13.5125 17.8494 13.5071 17.8345C13.5017 17.8196 13.4618 17.7829 13.4184 17.7526C13.3753 17.7223 13.282 17.6799 13.2114 17.658C13.1411 17.6361 13.0834 17.609 13.0834 17.5979C13.0837 17.5869 13.1079 17.5714 13.1376 17.5641C13.1672 17.5568 13.1915 17.5385 13.1915 17.5236C13.1915 17.5087 13.1581 17.4714 13.1174 17.4406C13.0767 17.41 12.9918 17.3735 12.9287 17.3595C12.8559 17.3435 12.8141 17.3195 12.8141 17.2938C12.8141 17.2667 12.8321 17.2577 12.8681 17.2667C12.9096 17.277 12.9282 17.2616 12.9489 17.1992L12.9759 17.118C13.1742 17.2524 13.2896 17.3132 13.3599 17.3397C13.4303 17.3665 13.5184 17.3884 13.5554 17.3884C13.5925 17.3884 13.6287 17.3762 13.6362 17.3614C13.6438 17.3465 13.6376 17.31 13.6227 17.2803C13.6079 17.2505 13.6049 17.2259 13.616 17.2256C13.627 17.2251 13.7303 17.2678 13.8451 17.3203C13.9599 17.3725 14.0844 17.4154 14.1214 17.4154C14.1798 17.4154 14.1885 17.4041 14.186 17.3276C14.1844 17.2792 14.1842 17.2275 14.1855 17.2127C14.1866 17.1978 14.2211 17.2183 14.2623 17.2584C14.3033 17.2981 14.4036 17.3619 14.4852 17.4C14.5701 17.4395 14.6822 17.469 14.748 17.4692C14.8111 17.4695 14.8626 17.4573 14.8626 17.4425C14.8626 17.4276 14.8353 17.3706 14.8019 17.3154C14.7434 17.2192 14.7432 17.2162 14.7952 17.2321C14.8248 17.2413 14.9219 17.28 15.0108 17.3178C15.0997 17.3557 15.2332 17.4011 15.3073 17.4187C15.3814 17.4363 15.4633 17.4428 15.4892 17.433C15.5342 17.4163 15.5342 17.4108 15.4892 17.3214C15.4633 17.2697 15.4512 17.2211 15.4623 17.2132C15.4733 17.2056 15.5189 17.2173 15.5633 17.2397C15.6078 17.2621 15.7321 17.2924 15.8396 17.3076C15.9471 17.3227 16.0563 17.3287 16.0822 17.3211C16.1081 17.3135 16.1293 17.2951 16.1293 17.2803C16.1293 17.2654 16.1051 17.2105 16.0754 17.1586C16.0385 17.094 16.032 17.064 16.0552 17.0642C16.0738 17.0645 16.1496 17.0829 16.2237 17.1051C16.2978 17.1275 16.4525 17.1456 16.5673 17.1453C16.6883 17.1453 16.7762 17.1337 16.7762 17.118C16.7762 17.1032 16.752 17.0545 16.7223 17.0099L16.6684 16.9288C16.9713 16.9285 17.132 16.9161 17.2209 16.9009C17.3099 16.8861 17.3856 16.8677 17.3894 16.8607C17.3932 16.8536 17.384 16.8233 17.3692 16.7936C17.3449 16.7449 17.3511 16.7395 17.4298 16.7398C17.4781 16.7398 17.5902 16.7206 17.6791 16.6971C17.7681 16.6736 17.8621 16.6433 17.888 16.6295C17.9228 16.6108 17.9282 16.5938 17.9082 16.5638C17.8934 16.5414 17.8904 16.5181 17.9015 16.5119C17.9125 16.5059 18.0794 16.4748 18.2721 16.4435C18.4648 16.4119 18.7195 16.3621 18.8381 16.3329C18.9567 16.3034 19.0877 16.2645 19.1289 16.2458C19.1702 16.2275 19.2039 16.2061 19.2036 16.1988C19.2033 16.1915 19.127 16.1582 19.034 16.1253C18.9411 16.0923 18.768 16.0415 18.6494 16.0125C18.5308 15.9833 18.3247 15.9393 18.1912 15.9144C18.0578 15.8895 17.9336 15.8644 17.915 15.8584C17.8912 15.8506 17.8894 15.8352 17.9082 15.8068C17.9231 15.7843 17.9293 15.7541 17.9217 15.7392C17.9142 15.7243 17.8506 15.6946 17.7802 15.6729C17.7099 15.6513 17.6037 15.6262 17.5444 15.6167C17.4851 15.6075 17.4215 15.5945 17.4029 15.5883C17.3786 15.5802 17.3767 15.5621 17.3961 15.5229C17.4155 15.4837 17.4139 15.4658 17.3894 15.458C17.3708 15.4521 17.2314 15.4339 17.0794 15.4174C16.9274 15.4012 16.791 15.3939 16.7762 15.4012C16.7614 15.4085 16.7371 15.4085 16.7223 15.4012C16.7067 15.3934 16.7177 15.3539 16.7493 15.3066C16.7789 15.262 16.8032 15.2133 16.8032 15.1985C16.8032 15.1836 16.7576 15.1638 16.7021 15.1547C16.6466 15.1455 16.504 15.1528 16.3854 15.1709C16.2668 15.1887 16.1514 15.2141 16.1293 15.2274C16.1072 15.2404 16.0803 15.2423 16.0698 15.2314C16.0593 15.2209 16.0806 15.1693 16.1172 15.1173C16.1536 15.0654 16.1835 15.0135 16.1832 15.0024C16.1832 14.9914 16.0892 14.9824 15.9744 14.983C15.852 14.9835 15.7073 15.0033 15.6248 15.0303C15.5472 15.056 15.4836 15.0676 15.4833 15.0565C15.4827 15.0454 15.5038 15.0005 15.5296 14.957C15.5555 14.9132 15.5668 14.8678 15.5544 14.8556C15.5423 14.8435 15.4876 14.837 15.4332 14.8416C15.3787 14.8459 15.2677 14.8686 15.186 14.8921C15.1043 14.9157 14.9922 14.9578 14.9367 14.9857C14.8812 15.0135 14.8302 15.027 14.8238 15.016C14.817 15.0049 14.8351 14.9592 14.8639 14.9146C14.8927 14.87 14.9162 14.8243 14.9162 14.8132C14.9165 14.8021 14.8892 14.7875 14.8558 14.7807C14.8224 14.774 14.7405 14.7799 14.6739 14.7943C14.6073 14.8083 14.4828 14.8627 14.3976 14.9146C14.3116 14.9673 14.2367 14.9973 14.2292 14.9822C14.2216 14.9673 14.2216 14.9246 14.2292 14.8875C14.241 14.8275 14.2338 14.8199 14.1618 14.8199C14.1173 14.8199 13.9901 14.8564 13.8788 14.9011C13.7677 14.9457 13.6707 14.9759 13.6632 14.9686C13.6556 14.9613 13.6602 14.9338 13.6734 14.9078C13.6888 14.8767 13.8071 14.8278 14.0162 14.7659C14.192 14.714 14.3602 14.6518 14.3903 14.628L14.4448 14.5845C14.3521 14.4422 14.3249 14.3917 14.3243 14.3806C14.3238 14.3695 14.3812 14.3601 14.4515 14.3598C14.5219 14.3595 14.6523 14.34 14.7413 14.3165C14.8302 14.293 14.9696 14.2403 15.0512 14.1992C15.1329 14.1581 15.2208 14.1046 15.2466 14.0802C15.2725 14.0559 15.2938 14.0178 15.2938 13.9953C15.2938 13.9729 15.245 13.9334 15.1852 13.9075C15.1254 13.8815 15.0768 13.8539 15.0774 13.8466C15.0776 13.8393 15.1841 13.8053 15.314 13.7715C15.4437 13.7377 15.6164 13.679 15.6981 13.6414C15.7798 13.6036 15.8679 13.5522 15.8943 13.5273C15.9207 13.5022 15.942 13.4724 15.9415 13.4614C15.9409 13.4503 15.8865 13.4016 15.8202 13.3532C15.7539 13.3048 15.7054 13.2562 15.7124 13.2451C15.7194 13.234 15.7978 13.2248 15.8868 13.2248C15.9757 13.2248 16.1183 13.2029 16.2035 13.1764C16.2886 13.1496 16.4132 13.0966 16.4797 13.0585C16.5463 13.0204 16.6285 12.9542 16.6625 12.9112C16.6962 12.8679 16.7145 12.8241 16.7029 12.8133C16.6913 12.8028 16.6153 12.7709 16.5336 12.7427C16.452 12.7146 16.3824 12.6808 16.3787 12.6676C16.3749 12.6543 16.4536 12.6216 16.5539 12.5951C16.6538 12.5684 16.8571 12.487 17.0053 12.4142C17.1536 12.3412 17.3053 12.2507 17.3422 12.2131C17.3794 12.1752 17.4021 12.1287 17.3932 12.1101C17.384 12.0912 17.308 12.0544 17.2247 12.0284C17.1412 12.0025 17.0727 11.969 17.0727 11.9541C17.0727 11.9392 17.112 11.9195 17.1603 11.9103C17.2085 11.9008 17.3145 11.8592 17.3961 11.8178C17.4778 11.7762 17.5867 11.7102 17.6387 11.6713C17.6907 11.6323 17.7853 11.5491 17.8492 11.4866C17.9128 11.4239 17.9554 11.3633 17.9435 11.3517C17.9314 11.3401 17.8427 11.3085 17.7465 11.2814C17.6503 11.2544 17.5735 11.2211 17.5762 11.2079C17.5786 11.1944 17.6276 11.1652 17.6851 11.143C17.7425 11.1208 17.8554 11.064 17.9363 11.017C18.0171 10.97 18.1562 10.8691 18.2451 10.7929C18.3341 10.7164 18.4252 10.6236 18.4473 10.5866C18.4831 10.5268 18.4831 10.5166 18.4473 10.4944C18.4252 10.4806 18.3645 10.4622 18.3125 10.4536C18.2605 10.4449 18.1999 10.4265 18.1778 10.4127C18.1438 10.3916 18.1484 10.38 18.2047 10.3408C18.2419 10.3151 18.3492 10.2205 18.4435 10.1305C18.5376 10.0404 18.674 9.89093 18.7467 9.79793C18.8192 9.70492 18.8785 9.61678 18.8785 9.60191C18.8785 9.58704 18.8421 9.56866 18.7977 9.56136C18.7532 9.55406 18.7174 9.53865 18.7179 9.52756C18.7187 9.51648 18.7823 9.43996 18.8594 9.35777C18.9367 9.27558 19.0454 9.12039 19.1009 9.01306C19.1564 8.90572 19.202 8.80569 19.202 8.79082C19.202 8.77595 19.1656 8.76378 19.1211 8.76378C19.0766 8.76378 19.0402 8.75162 19.0402 8.73675C19.0402 8.72188 19.0909 8.65185 19.1529 8.58129C19.2149 8.51072 19.3745 8.30687 19.5076 8.12843C19.6408 7.94999 19.8219 7.69449 19.9097 7.56066C19.9979 7.42683 20.099 7.25948 20.1345 7.18891C20.1701 7.11835 20.1992 7.04832 20.1992 7.03345C20.199 7.01543 20.1698 7.01552 20.1116 7.03372C20.0634 7.04886 19.9149 7.11429 19.7814 7.17945C19.648 7.24461 19.3871 7.38601 19.202 7.49361C19.0168 7.60149 18.7589 7.76073 18.6292 7.84806C18.4996 7.93539 18.3875 8.00676 18.3799 8.00676C18.3724 8.00676 18.3667 7.96729 18.367 7.91889C18.3678 7.83319 18.3653 7.83157 18.2794 7.85239C18.2309 7.86401 18.1187 7.90673 18.0303 7.94701C17.9419 7.9873 17.8026 8.07165 17.7204 8.13465C17.6384 8.19737 17.5622 8.24306 17.5511 8.23603C17.5401 8.22873 17.5312 8.19575 17.5317 8.16222C17.532 8.1287 17.5231 8.09274 17.5115 8.08192C17.4999 8.07138 17.4481 8.08517 17.3961 8.11275C17.3441 8.14032 17.2048 8.23576 17.0862 8.32471C16.9676 8.41366 16.822 8.53695 16.7627 8.59859C16.7034 8.66023 16.6458 8.71025 16.6347 8.71025C16.6237 8.70998 16.6021 8.63374 16.587 8.54073C16.5716 8.44773 16.5536 8.36554 16.5468 8.35824C16.5401 8.35094 16.4838 8.38122 16.4221 8.42583C16.3603 8.47044 16.2358 8.58805 16.1455 8.687C16.055 8.78595 15.9326 8.94871 15.8733 9.04848C15.7873 9.19339 15.762 9.21962 15.748 9.17933C15.7383 9.15149 15.7202 9.05253 15.7075 8.95953C15.6949 8.86625 15.6755 8.79028 15.6644 8.79055C15.6534 8.79055 15.5806 8.843 15.5027 8.90681C15.4248 8.97061 15.2976 9.10742 15.2197 9.21097C15.1418 9.31452 15.062 9.44781 15.0423 9.50729C15.0224 9.56677 14.9952 9.61543 14.9817 9.61543C14.9685 9.61543 14.9391 9.5427 14.9167 9.45348C14.8882 9.33966 14.862 9.28964 14.8289 9.28451C14.8008 9.28045 14.7426 9.32425 14.6855 9.39238C14.6327 9.45565 14.5451 9.58028 14.4909 9.6695C14.4367 9.75872 14.3529 9.91986 14.3041 10.0277C14.2556 10.1356 14.2068 10.2267 14.1958 10.2305C14.1847 10.2343 14.1604 10.1613 14.1418 10.0683C14.1157 9.93879 14.0968 9.89931 14.0607 9.89904C14.0348 9.89877 13.9642 9.95041 13.9039 10.0139C13.8435 10.0772 13.7756 10.1597 13.7529 10.1967C13.7303 10.234 13.6874 10.3314 13.6572 10.413C13.6273 10.4947 13.5952 10.6196 13.5858 10.6901C13.5758 10.7658 13.5551 10.8186 13.5351 10.8186C13.5165 10.8186 13.4772 10.7737 13.4475 10.7188C13.4179 10.6642 13.3785 10.6155 13.3599 10.6109C13.3413 10.606 13.299 10.6306 13.2656 10.6655C13.2322 10.7001 13.161 10.8188 13.1074 10.9291C13.0538 11.0392 12.9902 11.1933 12.9659 11.2714C12.9416 11.3495 12.9128 11.4136 12.9017 11.4139C12.8907 11.4144 12.8664 11.3658 12.8478 11.3057C12.8233 11.2263 12.7996 11.1971 12.7602 11.1971C12.7306 11.1971 12.6694 11.2425 12.6241 11.2984C12.5791 11.3541 12.5069 11.4728 12.4638 11.5621C12.4206 11.6513 12.3646 11.8094 12.3392 11.9135C12.3139 12.0176 12.2891 12.109 12.284 12.1163C12.2791 12.1236 12.2476 12.1028 12.2144 12.0695C12.181 12.0365 12.1325 12.009 12.1066 12.0087C12.0805 12.0084 12.0352 12.0506 12.0056 12.1028C11.9759 12.155 11.9333 12.1974 11.9112 12.1974C11.8821 12.1974 11.8757 12.1801 11.8878 12.1366C11.8972 12.1031 11.9805 11.9116 12.0729 11.7108C12.1654 11.5099 12.2487 11.3185 12.2581 11.2849C12.2681 11.249 12.2613 11.2144 12.2414 11.2C12.2228 11.1871 12.1562 11.1687 12.0932 11.1595L11.9786 11.143C12.1638 10.881 12.2546 10.7228 12.3002 10.6225C12.3457 10.5222 12.4026 10.3641 12.4263 10.2711C12.4503 10.1781 12.4624 10.0686 12.4533 10.0277C12.4419 9.97691 12.4198 9.95339 12.3829 9.95339C12.3533 9.95339 12.2861 9.98069 12.2339 10.0142C12.1813 10.0477 12.1328 10.0659 12.126 10.0548C12.119 10.0437 12.174 9.91283 12.2481 9.76413C12.3223 9.61543 12.4072 9.42077 12.4368 9.33155C12.4665 9.24233 12.4907 9.13283 12.4907 9.08822C12.4907 9.04361 12.4756 9.00008 12.457 8.99116C12.4384 8.98251 12.3568 8.98954 12.2751 9.00684C12.1934 9.02414 12.1209 9.03144 12.1134 9.02333C12.1058 9.01522 12.1212 8.98089 12.1473 8.94709C12.1735 8.91302 12.2368 8.83083 12.2883 8.76378C12.3398 8.69673 12.4185 8.55398 12.4632 8.44611C12.508 8.33823 12.5519 8.18007 12.5605 8.09463C12.57 8.00487 12.5643 7.90781 12.547 7.86482L12.5177 7.79047C12.2042 7.9581 12.1069 8.00379 12.0994 8C12.0915 7.99622 12.1322 7.89591 12.1899 7.77695C12.2476 7.65799 12.3204 7.48145 12.3516 7.38493C12.3829 7.28841 12.4268 7.12997 12.4492 7.03345C12.4716 6.93693 12.4902 6.81824 12.4904 6.76985C12.4908 6.71109 12.4752 6.67576 12.4435 6.66386C12.4136 6.65224 12.3347 6.67954 12.2287 6.73821C12.1366 6.78904 12.0546 6.82149 12.0468 6.8104C12.039 6.79932 12.0584 6.73848 12.0897 6.67522C12.1212 6.61195 12.17 6.4692 12.198 6.35754C12.2322 6.22074 12.2487 6.06014 12.2484 5.86413C12.2481 5.60512 12.243 5.57348 12.201 5.57402C12.1751 5.5743 12.0689 5.62918 11.9651 5.69569C11.8614 5.7622 11.7705 5.81059 11.763 5.80302C11.7554 5.79545 11.7705 5.74381 11.7964 5.68812C11.8223 5.63242 11.8627 5.514 11.8864 5.42478C11.9104 5.33556 11.9366 5.11062 11.9447 4.92461C11.9527 4.73887 11.9517 4.55313 11.9422 4.5123C11.9325 4.47148 11.9096 4.43768 11.891 4.43741C11.8724 4.43687 11.7875 4.48554 11.7023 4.54556C11.6172 4.60531 11.5466 4.65127 11.5455 4.64749C11.5444 4.6437 11.5396 4.4704 11.5347 4.26222C11.5298 4.05404 11.5123 3.79854 11.4956 3.69445C11.4792 3.59036 11.4598 3.47167 11.4525 3.43085C11.4455 3.39002 11.4274 3.3565 11.4126 3.3565C11.3978 3.3565 11.3493 3.38083 11.3048 3.41057C11.246 3.45004 11.2207 3.45545 11.2126 3.43085C11.2061 3.41219 11.1929 3.30594 11.183 3.19428C11.173 3.08289 11.1404 2.91229 11.1105 2.81577C11.0805 2.71925 11.0334 2.59434 11.0053 2.53864C10.9773 2.48295 10.9423 2.43726 10.9275 2.43726C10.9126 2.43726 10.8733 2.47349 10.8399 2.5181L10.7792 2.59866C10.6798 1.96033 10.5994 1.5437 10.5364 1.26117C10.4733 0.978642 10.3811 0.626627 10.331 0.478738C10.2811 0.330849 10.2269 0.20567 10.211 0.200533C10.1949 0.195396 10.1563 0.249469 10.1256 0.320575Z" fill="#00500D"/>
<path d="M10.1256 0.320575C10.0946 0.391951 10.0321 0.590128 9.9868 0.760998C9.94125 0.931869 9.86686 1.24847 9.82131 1.46395C9.77576 1.67943 9.71512 2.00819 9.68628 2.19393C9.65771 2.37994 9.63453 2.54405 9.63453 2.55892C9.6348 2.57379 9.59733 2.54946 9.55151 2.50485C9.46931 2.42509 9.46742 2.42455 9.42861 2.47781C9.40705 2.50755 9.36446 2.59866 9.33346 2.68059C9.30274 2.76251 9.26123 2.92067 9.24102 3.03206C9.2208 3.14372 9.20382 3.28647 9.20328 3.34974C9.20301 3.413 9.19654 3.46464 9.189 3.46464C9.18145 3.46464 9.13913 3.44031 9.09466 3.41057C9.05019 3.38083 9.00464 3.36109 8.99359 3.36704C8.98254 3.37272 8.95828 3.44247 8.94022 3.5225C8.92189 3.60226 8.89494 3.81963 8.88012 4.00537C8.86556 4.19138 8.86233 4.4074 8.87284 4.48554C8.88766 4.59206 8.88389 4.62775 8.85882 4.62748C8.84023 4.62748 8.76449 4.58476 8.69037 4.53258C8.61625 4.4804 8.53728 4.43795 8.51518 4.43795C8.49308 4.43795 8.46882 4.46526 8.46154 4.49879C8.45453 4.53231 8.44833 4.6629 8.44779 4.78943C8.44752 4.91596 8.46558 5.12576 8.48795 5.25581C8.51032 5.38585 8.55291 5.55943 8.58256 5.64108C8.61221 5.72273 8.6335 5.79518 8.62973 5.80167C8.62595 5.80789 8.53809 5.75895 8.43432 5.69271C8.33055 5.62648 8.22436 5.5724 8.19848 5.57294C8.15697 5.57348 8.15131 5.60404 8.15131 5.83033C8.15131 5.97173 8.17018 6.18153 8.19309 6.29671C8.21627 6.41188 8.26478 6.57005 8.3009 6.64818C8.33729 6.72632 8.36128 6.79932 8.35427 6.8104C8.34753 6.82149 8.27476 6.79121 8.19255 6.74281C8.11061 6.69441 8.01628 6.65792 7.98286 6.6617C7.9268 6.66792 7.92275 6.68063 7.92787 6.83068C7.93111 6.9199 7.96534 7.10239 8.00388 7.23622C8.04215 7.37006 8.12759 7.59202 8.19336 7.72964C8.25912 7.86726 8.30387 7.98568 8.29282 7.9927C8.28177 7.99973 8.19983 7.9635 8.11088 7.91214C8.02194 7.86077 7.92787 7.81859 7.902 7.81805C7.86993 7.81778 7.84971 7.84563 7.83866 7.90538C7.8295 7.95377 7.83084 8.04786 7.84136 8.11491C7.8516 8.18196 7.88745 8.30957 7.9206 8.39879C7.95375 8.48801 8.0241 8.62806 8.07692 8.70971C8.12948 8.79136 8.20441 8.89194 8.24295 8.93276C8.2815 8.97359 8.30656 9.0163 8.29848 9.02739C8.29066 9.03847 8.21196 9.03253 8.12328 9.01387C8.03488 8.99522 7.95052 8.98629 7.93569 8.99359C7.92087 9.00089 7.90847 9.04064 7.90847 9.08146C7.9082 9.12229 7.93353 9.23503 7.9648 9.33155C7.99606 9.42807 8.08124 9.62598 8.15401 9.77089C8.22651 9.91581 8.28042 10.0437 8.27341 10.0548C8.26667 10.0659 8.21816 10.0477 8.1656 10.0142C8.11331 9.98069 8.05213 9.95339 8.03003 9.95339C8.00792 9.95339 7.97747 9.97772 7.96264 10.0075C7.94485 10.0431 7.94459 10.1097 7.96211 10.2035C7.97666 10.2816 8.02329 10.4306 8.0656 10.5347C8.10792 10.6388 8.17665 10.7785 8.21816 10.8456C8.25993 10.9126 8.323 11.0038 8.35858 11.0484C8.39389 11.093 8.41518 11.1357 8.40575 11.143C8.39631 11.1503 8.33837 11.1627 8.27664 11.1706C8.16883 11.1838 8.16479 11.1879 8.16722 11.2787C8.16856 11.3347 8.24161 11.5258 8.34834 11.7513C8.44645 11.9595 8.52731 12.145 8.52784 12.1636C8.52838 12.1823 8.51032 12.1974 8.48822 12.1974C8.46612 12.1974 8.4265 12.1547 8.40063 12.1022C8.37044 12.0411 8.33405 12.0068 8.29955 12.0068C8.26991 12.0065 8.22139 12.0314 8.19174 12.0622C8.16209 12.0931 8.13191 12.1177 8.12436 12.1174C8.11681 12.1168 8.09633 12.0403 8.07827 11.9473C8.06048 11.8543 7.99714 11.681 7.93812 11.5621C7.87882 11.4431 7.79958 11.3122 7.76185 11.2714C7.72411 11.2306 7.66886 11.1971 7.63921 11.1971C7.60228 11.1971 7.58045 11.2203 7.56967 11.2714C7.56105 11.3122 7.54892 11.3609 7.54272 11.3796C7.53652 11.3982 7.52223 11.4136 7.51118 11.4139C7.50013 11.4144 7.47453 11.3625 7.45458 11.299C7.43464 11.2355 7.37615 11.0922 7.32494 10.9808C7.27373 10.8691 7.20204 10.7385 7.16592 10.6901C7.1298 10.6417 7.08183 10.6023 7.05972 10.6023C7.03762 10.6023 6.98776 10.6601 6.94949 10.7307C6.91014 10.8029 6.87079 10.8472 6.85947 10.8321C6.84841 10.8172 6.82524 10.7258 6.80799 10.6293C6.79074 10.5328 6.74276 10.3806 6.70125 10.2913C6.65975 10.2021 6.57484 10.0775 6.51258 10.0142C6.45032 9.95095 6.37863 9.90229 6.35329 9.90607C6.32715 9.90986 6.29858 9.94798 6.28726 9.99394C6.27621 10.0386 6.26057 10.1086 6.25249 10.1494C6.2444 10.1902 6.22446 10.2208 6.20856 10.217C6.19238 10.2132 6.15222 10.1432 6.11907 10.0615C6.08592 9.97988 6.0091 9.82767 5.94873 9.72358C5.88836 9.61949 5.7889 9.47646 5.72826 9.4059C5.66734 9.33533 5.59942 9.27748 5.57732 9.27748C5.55468 9.27748 5.52611 9.31614 5.51236 9.36534C5.49889 9.41374 5.48056 9.48674 5.47193 9.52756C5.46331 9.56839 5.44687 9.60245 5.43582 9.60299C5.42477 9.60354 5.37383 9.52134 5.32289 9.4205C5.25955 9.29559 5.15767 9.16338 5.00376 9.00711C4.7876 8.78731 4.77601 8.77973 4.73936 8.83137C4.71833 8.86111 4.69219 8.95547 4.68114 9.04118C4.66874 9.13743 4.64799 9.19691 4.62723 9.19664C4.60864 9.19664 4.59354 9.1842 4.59354 9.16933C4.59354 9.15446 4.54934 9.07227 4.49543 8.98683C4.44126 8.9014 4.31081 8.74188 4.20569 8.63266C4.10031 8.52343 3.98064 8.41718 3.93994 8.39609C3.87363 8.36229 3.86339 8.3631 3.84264 8.40555C3.8297 8.43151 3.81164 8.50748 3.80248 8.57453C3.79331 8.64158 3.78253 8.69917 3.77849 8.70268C3.77472 8.70647 3.7138 8.65483 3.64346 8.58778C3.57311 8.521 3.41544 8.39203 3.29307 8.30119C3.1707 8.21035 3.03729 8.11896 2.99659 8.09842C2.95589 8.0776 2.91034 8.06705 2.89552 8.07435C2.88069 8.08165 2.86883 8.11518 2.86937 8.1487C2.86964 8.18223 2.86075 8.21846 2.84916 8.229C2.83757 8.23982 2.76749 8.19953 2.69337 8.13924C2.61925 8.07895 2.48583 7.99379 2.39689 7.95026C2.30794 7.90646 2.19043 7.86158 2.13572 7.85076C2.03869 7.83157 2.03626 7.83292 2.02791 7.91889L2.01955 8.00676C1.76889 7.83697 1.53844 7.6926 1.34573 7.57661C1.15302 7.46063 0.879985 7.3076 0.739291 7.23677C0.598598 7.16593 0.422596 7.08482 0.348476 7.05643C0.274356 7.02831 0.207782 7.01128 0.200235 7.01858C0.192689 7.02588 0.227997 7.10834 0.278398 7.20162C0.3288 7.29516 0.44335 7.4809 0.533102 7.61473C0.622855 7.74857 0.787537 7.97973 0.898852 8.12843C1.01017 8.27713 1.16542 8.47476 1.24385 8.56777C1.32201 8.66077 1.37807 8.74297 1.3681 8.75027C1.3584 8.75784 1.31581 8.76378 1.27377 8.76378C1.20773 8.76378 1.19965 8.77189 1.21447 8.82462C1.22363 8.85814 1.24951 8.92195 1.27161 8.96656C1.29398 9.01117 1.36379 9.12066 1.42713 9.20988C1.4902 9.2991 1.57402 9.40238 1.6131 9.43969C1.65218 9.47673 1.68372 9.51648 1.68345 9.52756C1.68291 9.53865 1.64625 9.55406 1.60178 9.56136C1.55731 9.56866 1.52065 9.58407 1.52011 9.59515C1.51984 9.60624 1.55623 9.66707 1.60097 9.73034C1.64598 9.7936 1.76026 9.92743 1.85514 10.0277C1.95001 10.128 2.07723 10.2467 2.1376 10.2913C2.19798 10.336 2.24784 10.3787 2.24865 10.386C2.24919 10.3933 2.17668 10.4208 2.08747 10.4468C1.99826 10.4728 1.92468 10.5093 1.92414 10.5279C1.9236 10.5466 1.98748 10.6228 2.06564 10.6974C2.14407 10.772 2.26886 10.877 2.34298 10.9308C2.4171 10.9843 2.54136 11.06 2.61925 11.0992C2.69714 11.1381 2.77881 11.17 2.80118 11.17C2.82355 11.17 2.83865 11.1838 2.83487 11.2006C2.8311 11.2176 2.74943 11.2536 2.65294 11.2809C2.55645 11.3082 2.46804 11.3401 2.45619 11.3517C2.44433 11.3633 2.50497 11.4382 2.59095 11.5183C2.67693 11.598 2.82598 11.7099 2.92247 11.7667C3.01896 11.8235 3.15534 11.8827 3.22569 11.8984C3.29603 11.9141 3.34778 11.9392 3.34024 11.9541C3.33269 11.969 3.2583 12.0025 3.17475 12.0284C3.09146 12.0544 3.01546 12.0909 3.00629 12.1095C2.9974 12.1282 3.01411 12.169 3.04376 12.2001C3.0734 12.2315 3.22488 12.3202 3.38067 12.3975C3.53645 12.4748 3.74588 12.5616 3.84641 12.5908C3.94668 12.6197 4.02457 12.6557 4.01918 12.6705C4.01379 12.6854 3.94371 12.7173 3.86339 12.7414C3.77202 12.769 3.71515 12.8017 3.71084 12.8293C3.70707 12.8536 3.74345 12.9109 3.7917 12.9566C3.83994 13.0026 3.93994 13.0685 4.01406 13.1034C4.08818 13.1383 4.20354 13.1794 4.27011 13.1951C4.33668 13.2107 4.45501 13.2237 4.5329 13.2243C4.62804 13.2245 4.67413 13.2359 4.67386 13.2586C4.67359 13.2772 4.62508 13.3259 4.56605 13.3667C4.50702 13.4076 4.45878 13.4533 4.45878 13.4681C4.45878 13.483 4.4922 13.5184 4.5329 13.5468C4.5736 13.5752 4.66173 13.622 4.72831 13.6509C4.79488 13.6795 4.95606 13.7325 5.08597 13.7682C5.21615 13.8039 5.32262 13.8393 5.32262 13.8466C5.32289 13.8539 5.2741 13.8815 5.21427 13.9075C5.13961 13.9399 5.1078 13.9696 5.11265 14.0021C5.11643 14.028 5.17411 14.0862 5.24068 14.1311C5.30725 14.1759 5.4466 14.2406 5.55037 14.2749C5.65414 14.309 5.81504 14.3452 5.90776 14.3555C6.00048 14.3655 6.07622 14.383 6.07622 14.3941C6.07595 14.4052 6.05115 14.4479 6.02123 14.4887C5.99105 14.5296 5.96679 14.5723 5.96733 14.5834C5.9676 14.5945 6.01962 14.6269 6.08269 14.655C6.14576 14.6834 6.3161 14.741 6.4611 14.7834C6.66567 14.8432 6.72821 14.8727 6.73926 14.9146C6.7468 14.9443 6.74653 14.9749 6.73818 14.9822C6.72982 14.9895 6.64115 14.9573 6.54088 14.9102C6.44089 14.8635 6.32257 14.8208 6.27809 14.8156C6.20101 14.807 6.19723 14.811 6.19723 14.9078C6.19723 14.9635 6.18807 15.0092 6.17702 15.0092C6.16597 15.0092 6.11745 14.9795 6.06921 14.9432C6.02096 14.907 5.93606 14.8583 5.88054 14.8351C5.82502 14.8118 5.72583 14.7899 5.66034 14.7861C5.59484 14.7824 5.53123 14.7886 5.51883 14.7997C5.50643 14.811 5.52072 14.8621 5.55037 14.9135C5.58002 14.9649 5.59511 15.0135 5.58406 15.0216C5.57301 15.0295 5.51829 15.0133 5.46277 14.9849C5.40725 14.9567 5.29512 14.9146 5.21346 14.8911C5.13179 14.8675 5.02074 14.8451 4.9663 14.841C4.91186 14.8367 4.86011 14.8427 4.85175 14.8537C4.84313 14.8648 4.85445 14.9105 4.87655 14.9551C4.89865 14.9997 4.91401 15.0427 4.91024 15.0508C4.90647 15.0589 4.83693 15.0468 4.75526 15.0235C4.67359 15.0005 4.52508 14.9816 4.42509 14.9819C4.29733 14.9822 4.24343 14.9922 4.2437 15.016C4.24397 15.0346 4.26795 15.08 4.29706 15.1173C4.32617 15.1544 4.35016 15.2001 4.35043 15.2187C4.3507 15.2444 4.32078 15.2425 4.22294 15.2104C4.1526 15.1871 3.9898 15.1657 3.8615 15.163C3.73294 15.1601 3.62082 15.1671 3.61219 15.1782C3.6033 15.1893 3.62028 15.2379 3.64939 15.2863C3.6785 15.3347 3.70275 15.3834 3.70329 15.3945C3.70383 15.4056 3.68281 15.4085 3.65693 15.4012C3.63106 15.3937 3.49441 15.3991 3.35371 15.4134C3.21302 15.4275 3.07637 15.4458 3.05049 15.4539C3.01707 15.4645 3.00764 15.4867 3.01842 15.5297C3.0319 15.5848 3.02112 15.5924 2.90387 15.6099C2.83245 15.6205 2.73164 15.6413 2.67989 15.6565C2.62814 15.6713 2.5613 15.7008 2.53165 15.7219C2.48826 15.753 2.48422 15.7673 2.51117 15.797C2.52977 15.8173 2.53677 15.843 2.52707 15.8541C2.5171 15.8652 2.48098 15.8744 2.44621 15.8744C2.41171 15.8744 2.21065 15.9122 1.99934 15.9584C1.78803 16.0047 1.53036 16.072 1.42659 16.1077C1.32282 16.1436 1.23199 16.1788 1.22444 16.1864C1.2169 16.1937 1.22309 16.2115 1.23792 16.2258C1.25274 16.2399 1.38023 16.2813 1.52092 16.3175C1.66162 16.3537 1.94462 16.4118 2.14919 16.4465C2.47667 16.5022 2.51979 16.5154 2.50632 16.557C2.495 16.5927 2.51925 16.6171 2.60577 16.6568C2.66884 16.6857 2.80064 16.7193 2.89902 16.7312C3.07529 16.7528 3.07718 16.7539 3.04052 16.8139C3.00494 16.872 3.00791 16.8755 3.1044 16.8942C3.15992 16.905 3.3238 16.9142 3.46826 16.9145C3.62513 16.915 3.73078 16.9261 3.73024 16.9423C3.72998 16.9572 3.70626 16.9996 3.67715 17.0369C3.64804 17.074 3.62405 17.1137 3.62378 17.1248C3.62351 17.1359 3.72944 17.1448 3.85908 17.1443C4.00651 17.1437 4.14801 17.1259 4.23696 17.097C4.31512 17.0713 4.38493 17.0534 4.39194 17.0572C4.39894 17.061 4.37145 17.1137 4.33075 17.1743C4.26741 17.2684 4.26256 17.2881 4.29706 17.31C4.31943 17.3241 4.41026 17.3281 4.49921 17.3187C4.58815 17.3095 4.7275 17.2797 4.80917 17.2524C4.89083 17.2254 4.96037 17.2083 4.96414 17.2148C4.96792 17.2211 4.95255 17.2627 4.93045 17.3073C4.90835 17.3519 4.89002 17.4006 4.89002 17.4154C4.89002 17.4303 4.92345 17.4428 4.96414 17.443C5.00484 17.4433 5.12317 17.4179 5.22693 17.3865C5.3307 17.3554 5.45495 17.3065 5.5032 17.2778C5.55145 17.2494 5.60293 17.2324 5.61775 17.2397C5.63365 17.2475 5.6226 17.2895 5.59107 17.3411C5.56142 17.3895 5.54632 17.4384 5.55738 17.4501C5.56843 17.4617 5.61371 17.4706 5.65818 17.4701C5.70265 17.4695 5.78135 17.4579 5.83337 17.4438C5.88539 17.4298 5.99132 17.3752 6.06921 17.3222C6.1471 17.2694 6.21664 17.2262 6.22419 17.2262C6.23173 17.2262 6.22958 17.2719 6.21961 17.3276L6.20155 17.429C6.38617 17.4 6.52175 17.3481 6.62174 17.2954C6.72497 17.2408 6.8096 17.2108 6.81715 17.2262C6.8247 17.2411 6.8185 17.2594 6.80367 17.2667C6.78885 17.274 6.77645 17.3076 6.77618 17.3411C6.77591 17.3981 6.78319 17.4006 6.89747 17.3816C6.96458 17.3706 7.0891 17.3265 7.17427 17.2838C7.25945 17.2411 7.34758 17.1856 7.36968 17.1608C7.39178 17.1359 7.41928 17.1162 7.43033 17.117C7.44138 17.1175 7.45351 17.1516 7.45728 17.1924C7.46294 17.2538 7.47695 17.2667 7.5376 17.2667C7.57803 17.2667 7.61226 17.2789 7.6136 17.2938C7.61495 17.3086 7.55781 17.3389 7.48612 17.3614C7.41469 17.3838 7.32898 17.4171 7.29556 17.4357C7.26214 17.4544 7.23492 17.4876 7.23492 17.5101C7.23492 17.5325 7.25325 17.5506 7.27535 17.5506C7.29745 17.5506 7.31605 17.5658 7.31605 17.5844C7.31632 17.6031 7.25891 17.639 7.18802 17.6647C7.1174 17.6901 7.0263 17.7358 6.9856 17.7661C6.94491 17.7964 6.91148 17.8332 6.91148 17.848C6.91148 17.8629 6.93574 17.8813 6.96539 17.8886C6.99504 17.8959 7.0193 17.9143 7.0193 17.9291C7.0193 17.944 6.99207 17.9618 6.95865 17.9686C6.92523 17.9754 6.84653 18.0181 6.78346 18.0632C6.72039 18.1084 6.66864 18.1606 6.66837 18.1792C6.66837 18.1979 6.70152 18.226 6.74249 18.2417L6.81715 18.2701C6.6708 18.3463 6.577 18.4096 6.51393 18.4596C6.45086 18.5099 6.39938 18.5631 6.39938 18.578C6.39938 18.5929 6.43577 18.6113 6.48024 18.6186L6.5611 18.6321C6.23227 18.9673 6.2099 19.0014 6.24521 19.0241C6.28214 19.0476 6.27809 19.0633 6.2126 19.1458C6.17136 19.1977 6.12258 19.2707 6.10425 19.308C6.07676 19.3631 6.07729 19.3791 6.10694 19.3945C6.13551 19.4094 6.13012 19.4299 6.08188 19.4891C6.04819 19.5308 5.93067 19.6987 5.82097 19.8622C5.6951 20.0496 5.63015 20.1696 5.64578 20.1867C5.66222 20.2043 5.7199 20.1861 5.81262 20.1342C5.89078 20.0907 6.06382 19.9896 6.19723 19.9096C6.37674 19.8017 6.44439 19.7733 6.4576 19.7995C6.47242 19.829 6.49102 19.829 6.56541 19.7995C6.615 19.78 6.6902 19.7373 6.73252 19.7049C6.79828 19.6546 6.81257 19.6519 6.8317 19.6865C6.85165 19.7225 6.86243 19.7225 6.92766 19.6865C6.96809 19.6641 7.05972 19.5943 7.13142 19.531C7.2581 19.4197 7.26187 19.418 7.26187 19.4837C7.26187 19.5208 7.27696 19.5586 7.29556 19.5678C7.31443 19.577 7.3748 19.5381 7.43221 19.4799C7.48908 19.4226 7.55566 19.3421 7.58045 19.301C7.60552 19.2599 7.6349 19.2263 7.64595 19.2266C7.657 19.2266 7.66643 19.2482 7.6667 19.2742C7.6667 19.3002 7.67587 19.3369 7.68692 19.3561C7.70093 19.3807 7.73974 19.3572 7.82195 19.275C7.88529 19.2112 7.94297 19.1379 7.94998 19.112C7.95698 19.086 7.98097 19.0647 8.00307 19.0647C8.02517 19.0647 8.04997 19.092 8.05779 19.1255C8.07126 19.1842 8.07477 19.1828 8.15293 19.0917C8.1974 19.0398 8.25778 18.9454 8.28689 18.8822C8.316 18.8189 8.35211 18.7673 8.36694 18.7673C8.38176 18.7673 8.39982 18.7916 8.40737 18.8213C8.41491 18.8511 8.43297 18.8754 8.44779 18.8754C8.46262 18.8754 8.50386 18.8359 8.5397 18.7875C8.57528 18.7391 8.61814 18.6451 8.63512 18.578C8.6645 18.4596 8.66692 18.4577 8.7184 18.5037C8.74751 18.5296 8.78039 18.5461 8.79144 18.5402C8.80249 18.5345 8.84804 18.455 8.89252 18.3639C8.93699 18.2728 8.98254 18.1987 8.99359 18.199C9.00464 18.1992 9.0138 18.2176 9.0138 18.2401C9.0138 18.2625 9.02593 18.2806 9.04076 18.2806C9.05558 18.2806 9.09251 18.2471 9.12269 18.2063C9.15288 18.1654 9.1952 18.0741 9.21703 18.0035C9.24964 17.8967 9.26554 17.8772 9.31028 17.8886C9.33993 17.8959 9.37335 17.887 9.3844 17.8683C9.39545 17.8499 9.42969 17.7739 9.46041 17.6993C9.50569 17.5901 9.52752 17.5655 9.57496 17.5709C9.60892 17.5747 9.64396 17.5577 9.65798 17.5303C9.67145 17.5044 9.69059 17.4344 9.70029 17.3749C9.71026 17.3154 9.72347 17.2332 9.72994 17.1924C9.73991 17.1289 9.74773 17.1229 9.78411 17.1518C9.81861 17.1794 9.83128 17.1781 9.85096 17.1451C9.86416 17.1226 9.90271 16.9856 9.9364 16.8404C9.97009 16.6952 10.0097 16.5765 10.0245 16.577C10.0423 16.5773 10.0404 16.6955 10.0197 16.922C10.0022 17.1116 9.98707 17.4006 9.98626 17.5641C9.98545 17.7277 10.0094 18.0684 10.0396 18.3212C10.0695 18.574 10.103 19.0333 10.1132 19.3418L10.1323 19.9031C10.304 19.9028 10.3083 19.8977 10.3251 19.7744C10.3345 19.7038 10.3345 19.4878 10.3248 19.2945C10.3151 19.1012 10.2833 18.7362 10.2539 18.4834C10.2218 18.2073 10.2005 17.851 10.2005 17.5912C10.2008 17.3533 10.2189 16.9761 10.241 16.7531C10.2631 16.53 10.2871 16.3413 10.2943 16.334C10.3016 16.3267 10.3124 16.3267 10.3186 16.334C10.3245 16.3413 10.3803 16.5238 10.4423 16.7395C10.5043 16.9553 10.569 17.147 10.5862 17.1656C10.6078 17.1891 10.628 17.1913 10.6512 17.1724C10.6746 17.1535 10.6881 17.1554 10.6959 17.1789C10.7019 17.1975 10.7205 17.2857 10.7374 17.3749C10.7541 17.4641 10.7827 17.5525 10.8005 17.5712C10.8229 17.5947 10.8436 17.5969 10.8668 17.5779C10.8919 17.5577 10.9145 17.5831 10.9555 17.679C10.9859 17.7496 11.0207 17.8256 11.0328 17.848C11.045 17.8705 11.0824 17.8886 11.1161 17.8886C11.1646 17.8886 11.1849 17.9132 11.2153 18.0102C11.2361 18.0773 11.2816 18.1684 11.3164 18.213C11.373 18.286 11.3838 18.2901 11.4234 18.2536C11.4479 18.2311 11.4711 18.2192 11.4749 18.2265C11.4789 18.2338 11.5121 18.3052 11.5484 18.385C11.5848 18.4647 11.6239 18.5348 11.635 18.5404C11.646 18.5461 11.6765 18.5329 11.7023 18.511C11.7457 18.4745 11.7525 18.4804 11.7859 18.5853C11.8058 18.6483 11.8514 18.7391 11.887 18.7875C11.9226 18.8359 11.9638 18.8754 11.9786 18.8754C11.9934 18.8754 12.0115 18.8511 12.019 18.8213C12.0266 18.7916 12.0446 18.7673 12.0595 18.7673C12.0743 18.7673 12.1104 18.8189 12.1395 18.8822C12.1686 18.9454 12.229 19.0398 12.2735 19.0917C12.3516 19.1828 12.3551 19.1842 12.3686 19.1255C12.3764 19.092 12.3921 19.0644 12.4031 19.0644C12.4142 19.0641 12.4689 19.125 12.5244 19.1996C12.5799 19.2739 12.6497 19.3472 12.6794 19.3621C12.7263 19.3856 12.7349 19.3788 12.7468 19.308C12.7543 19.2634 12.7724 19.2269 12.7872 19.2269C12.802 19.2269 12.8141 19.2391 12.8141 19.2539C12.8141 19.2688 12.8778 19.3483 12.9557 19.4307C13.0335 19.5129 13.1063 19.58 13.1174 19.5794C13.1284 19.5789 13.1435 19.5478 13.1511 19.5108C13.1586 19.4735 13.1737 19.4429 13.1848 19.4424C13.1958 19.4418 13.2292 19.4675 13.2589 19.4994C13.2885 19.5316 13.3643 19.5927 13.4273 19.6357C13.4904 19.6784 13.554 19.7135 13.5688 19.7135C13.5837 19.7135 13.5958 19.6954 13.5958 19.673C13.5958 19.6422 13.6136 19.6473 13.6699 19.6943C13.7106 19.7287 13.7925 19.7725 13.8518 19.7917C13.9348 19.819 13.9629 19.8195 13.9731 19.7946C13.9821 19.773 14.045 19.7982 14.1618 19.8701C14.258 19.9293 14.4248 20.0277 14.5324 20.0891C14.6399 20.1502 14.7399 20.2002 14.7548 20.2002C14.7696 20.2002 14.7817 20.1821 14.7817 20.1596C14.7817 20.1372 14.7275 20.0369 14.6615 19.9366C14.5952 19.8363 14.4801 19.6781 14.4054 19.5851C14.3028 19.4572 14.2793 19.4129 14.31 19.4026C14.3429 19.3915 14.3448 19.375 14.3211 19.3148C14.3049 19.2739 14.2564 19.1947 14.2133 19.139C14.1701 19.0833 14.147 19.0376 14.1618 19.0376C14.1766 19.0376 14.1887 19.0195 14.1887 18.9971C14.1887 18.9746 14.116 18.8835 14.027 18.7943C13.8712 18.638 13.8677 18.6315 13.9327 18.6186C13.9776 18.6096 13.9978 18.5893 13.9933 18.5577C13.9896 18.5318 13.9117 18.4618 13.8198 18.4023C13.7281 18.3428 13.6524 18.2849 13.6513 18.2738C13.6505 18.2628 13.6739 18.2474 13.7036 18.2401C13.7332 18.2328 13.7575 18.2084 13.7575 18.186C13.7575 18.1635 13.706 18.1084 13.6429 18.0632C13.5799 18.0181 13.5012 17.9754 13.4678 17.9686C13.4343 17.9618 13.4071 17.944 13.4071 17.9291C13.4071 17.9143 13.4319 17.8929 13.4618 17.8818C13.492 17.8707 13.5125 17.8494 13.5071 17.8345C13.5017 17.8196 13.4618 17.7829 13.4184 17.7526C13.3753 17.7223 13.282 17.6799 13.2114 17.658C13.1411 17.6361 13.0834 17.609 13.0834 17.5979C13.0837 17.5869 13.1079 17.5714 13.1376 17.5641C13.1672 17.5568 13.1915 17.5385 13.1915 17.5236C13.1915 17.5087 13.1581 17.4714 13.1174 17.4406C13.0767 17.41 12.9918 17.3735 12.9287 17.3595C12.8559 17.3435 12.8141 17.3195 12.8141 17.2938C12.8141 17.2667 12.8321 17.2577 12.8681 17.2667C12.9096 17.277 12.9282 17.2616 12.9489 17.1992L12.9759 17.118C13.1742 17.2524 13.2896 17.3132 13.3599 17.3397C13.4303 17.3665 13.5184 17.3884 13.5554 17.3884C13.5925 17.3884 13.6287 17.3762 13.6362 17.3614C13.6438 17.3465 13.6376 17.31 13.6227 17.2803C13.6079 17.2505 13.6049 17.2259 13.616 17.2256C13.627 17.2251 13.7303 17.2678 13.8451 17.3203C13.9599 17.3725 14.0844 17.4154 14.1214 17.4154C14.1798 17.4154 14.1885 17.4041 14.186 17.3276C14.1844 17.2792 14.1842 17.2275 14.1855 17.2127C14.1866 17.1978 14.2211 17.2183 14.2623 17.2584C14.3033 17.2981 14.4036 17.3619 14.4852 17.4C14.5701 17.4395 14.6822 17.469 14.748 17.4692C14.8111 17.4695 14.8626 17.4573 14.8626 17.4425C14.8626 17.4276 14.8353 17.3706 14.8019 17.3154C14.7434 17.2192 14.7432 17.2162 14.7952 17.2321C14.8248 17.2413 14.9219 17.28 15.0108 17.3178C15.0997 17.3557 15.2332 17.4011 15.3073 17.4187C15.3814 17.4363 15.4633 17.4428 15.4892 17.433C15.5342 17.4163 15.5342 17.4108 15.4892 17.3214C15.4633 17.2697 15.4512 17.2211 15.4623 17.2132C15.4733 17.2056 15.5189 17.2173 15.5633 17.2397C15.6078 17.2621 15.7321 17.2924 15.8396 17.3076C15.9471 17.3227 16.0563 17.3287 16.0822 17.3211C16.1081 17.3135 16.1293 17.2951 16.1293 17.2803C16.1293 17.2654 16.1051 17.2105 16.0754 17.1586C16.0385 17.094 16.032 17.064 16.0552 17.0642C16.0738 17.0645 16.1496 17.0829 16.2237 17.1051C16.2978 17.1275 16.4525 17.1456 16.5673 17.1453C16.6883 17.1453 16.7762 17.1337 16.7762 17.118C16.7762 17.1032 16.752 17.0545 16.7223 17.0099L16.6684 16.9288C16.9713 16.9285 17.132 16.9161 17.2209 16.9009C17.3099 16.8861 17.3856 16.8677 17.3894 16.8607C17.3932 16.8536 17.384 16.8233 17.3692 16.7936C17.3449 16.7449 17.3511 16.7395 17.4298 16.7398C17.4781 16.7398 17.5902 16.7206 17.6791 16.6971C17.7681 16.6736 17.8621 16.6433 17.888 16.6295C17.9228 16.6108 17.9282 16.5938 17.9082 16.5638C17.8934 16.5414 17.8904 16.5181 17.9015 16.5119C17.9125 16.5059 18.0794 16.4748 18.2721 16.4435C18.4648 16.4119 18.7195 16.3621 18.8381 16.3329C18.9567 16.3034 19.0877 16.2645 19.1289 16.2458C19.1702 16.2275 19.2039 16.2061 19.2036 16.1988C19.2033 16.1915 19.127 16.1582 19.034 16.1253C18.9411 16.0923 18.768 16.0415 18.6494 16.0125C18.5308 15.9833 18.3247 15.9393 18.1912 15.9144C18.0578 15.8895 17.9336 15.8644 17.915 15.8584C17.8912 15.8506 17.8894 15.8352 17.9082 15.8068C17.9231 15.7843 17.9293 15.7541 17.9217 15.7392C17.9142 15.7243 17.8506 15.6946 17.7802 15.6729C17.7099 15.6513 17.6037 15.6262 17.5444 15.6167C17.4851 15.6075 17.4215 15.5945 17.4029 15.5883C17.3786 15.5802 17.3767 15.5621 17.3961 15.5229C17.4155 15.4837 17.4139 15.4658 17.3894 15.458C17.3708 15.4521 17.2314 15.4339 17.0794 15.4174C16.9274 15.4012 16.791 15.3939 16.7762 15.4012C16.7614 15.4085 16.7371 15.4085 16.7223 15.4012C16.7067 15.3934 16.7177 15.3539 16.7493 15.3066C16.7789 15.262 16.8032 15.2133 16.8032 15.1985C16.8032 15.1836 16.7576 15.1638 16.7021 15.1547C16.6466 15.1455 16.504 15.1528 16.3854 15.1709C16.2668 15.1887 16.1514 15.2141 16.1293 15.2274C16.1072 15.2404 16.0803 15.2423 16.0698 15.2314C16.0593 15.2209 16.0806 15.1693 16.1172 15.1173C16.1536 15.0654 16.1835 15.0135 16.1832 15.0024C16.1832 14.9914 16.0892 14.9824 15.9744 14.983C15.852 14.9835 15.7073 15.0033 15.6248 15.0303C15.5472 15.056 15.4836 15.0676 15.4833 15.0565C15.4827 15.0454 15.5038 15.0005 15.5296 14.957C15.5555 14.9132 15.5668 14.8678 15.5544 14.8556C15.5423 14.8435 15.4876 14.837 15.4332 14.8416C15.3787 14.8459 15.2677 14.8686 15.186 14.8921C15.1043 14.9157 14.9922 14.9578 14.9367 14.9857C14.8812 15.0135 14.8302 15.027 14.8238 15.016C14.817 15.0049 14.8351 14.9592 14.8639 14.9146C14.8927 14.87 14.9162 14.8243 14.9162 14.8132C14.9165 14.8021 14.8892 14.7875 14.8558 14.7807C14.8224 14.774 14.7405 14.7799 14.6739 14.7943C14.6073 14.8083 14.4828 14.8627 14.3976 14.9146C14.3116 14.9673 14.2367 14.9973 14.2292 14.9822C14.2216 14.9673 14.2216 14.9246 14.2292 14.8875C14.241 14.8275 14.2338 14.8199 14.1618 14.8199C14.1173 14.8199 13.9901 14.8564 13.8788 14.9011C13.7677 14.9457 13.6707 14.9759 13.6632 14.9686C13.6556 14.9613 13.6602 14.9338 13.6734 14.9078C13.6888 14.8767 13.8071 14.8278 14.0162 14.7659C14.192 14.714 14.3602 14.6518 14.3903 14.628L14.4448 14.5845C14.3521 14.4422 14.3249 14.3917 14.3243 14.3806C14.3238 14.3695 14.3812 14.3601 14.4515 14.3598C14.5219 14.3595 14.6523 14.34 14.7413 14.3165C14.8302 14.293 14.9696 14.2403 15.0512 14.1992C15.1329 14.1581 15.2208 14.1046 15.2466 14.0802C15.2725 14.0559 15.2938 14.0178 15.2938 13.9953C15.2938 13.9729 15.245 13.9334 15.1852 13.9075C15.1254 13.8815 15.0768 13.8539 15.0774 13.8466C15.0776 13.8393 15.1841 13.8053 15.314 13.7715C15.4437 13.7377 15.6164 13.679 15.6981 13.6414C15.7798 13.6036 15.8679 13.5522 15.8943 13.5273C15.9207 13.5022 15.942 13.4724 15.9415 13.4614C15.9409 13.4503 15.8865 13.4016 15.8202 13.3532C15.7539 13.3048 15.7054 13.2562 15.7124 13.2451C15.7194 13.234 15.7978 13.2248 15.8868 13.2248C15.9757 13.2248 16.1183 13.2029 16.2035 13.1764C16.2886 13.1496 16.4132 13.0966 16.4797 13.0585C16.5463 13.0204 16.6285 12.9542 16.6625 12.9112C16.6962 12.8679 16.7145 12.8241 16.7029 12.8133C16.6913 12.8028 16.6153 12.7709 16.5336 12.7427C16.452 12.7146 16.3824 12.6808 16.3787 12.6676C16.3749 12.6543 16.4536 12.6216 16.5539 12.5951C16.6538 12.5684 16.8571 12.487 17.0053 12.4142C17.1536 12.3412 17.3053 12.2507 17.3422 12.2131C17.3794 12.1752 17.4021 12.1287 17.3932 12.1101C17.384 12.0912 17.308 12.0544 17.2247 12.0284C17.1412 12.0025 17.0727 11.969 17.0727 11.9541C17.0727 11.9392 17.112 11.9195 17.1603 11.9103C17.2085 11.9008 17.3145 11.8592 17.3961 11.8178C17.4778 11.7762 17.5867 11.7102 17.6387 11.6713C17.6907 11.6323 17.7853 11.5491 17.8492 11.4866C17.9128 11.4239 17.9554 11.3633 17.9435 11.3517C17.9314 11.3401 17.8427 11.3085 17.7465 11.2814C17.6503 11.2544 17.5735 11.2211 17.5762 11.2079C17.5786 11.1944 17.6276 11.1652 17.6851 11.143C17.7425 11.1208 17.8554 11.064 17.9363 11.017C18.0171 10.97 18.1562 10.8691 18.2451 10.7929C18.3341 10.7164 18.4252 10.6236 18.4473 10.5866C18.4831 10.5268 18.4831 10.5166 18.4473 10.4944C18.4252 10.4806 18.3645 10.4622 18.3125 10.4536C18.2605 10.4449 18.1999 10.4265 18.1778 10.4127C18.1438 10.3916 18.1484 10.38 18.2047 10.3408C18.2419 10.3151 18.3492 10.2205 18.4435 10.1305C18.5376 10.0404 18.674 9.89093 18.7467 9.79793C18.8192 9.70492 18.8785 9.61678 18.8785 9.60191C18.8785 9.58704 18.8421 9.56866 18.7977 9.56136C18.7532 9.55406 18.7174 9.53865 18.7179 9.52756C18.7187 9.51648 18.7823 9.43996 18.8594 9.35777C18.9367 9.27558 19.0454 9.12039 19.1009 9.01306C19.1564 8.90572 19.202 8.80569 19.202 8.79082C19.202 8.77595 19.1656 8.76378 19.1211 8.76378C19.0766 8.76378 19.0402 8.75162 19.0402 8.73675C19.0402 8.72188 19.0909 8.65185 19.1529 8.58129C19.2149 8.51072 19.3745 8.30687 19.5076 8.12843C19.6408 7.94999 19.8219 7.69449 19.9097 7.56066C19.9979 7.42683 20.099 7.25948 20.1345 7.18891C20.1701 7.11835 20.1992 7.04832 20.1992 7.03345C20.199 7.01543 20.1698 7.01552 20.1116 7.03372C20.0634 7.04886 19.9149 7.11429 19.7814 7.17945C19.648 7.24461 19.3871 7.38601 19.202 7.49361C19.0168 7.60149 18.7589 7.76073 18.6292 7.84806C18.4996 7.93539 18.3875 8.00676 18.3799 8.00676C18.3724 8.00676 18.3667 7.96729 18.367 7.91889C18.3678 7.83319 18.3653 7.83157 18.2794 7.85239C18.2309 7.86401 18.1187 7.90673 18.0303 7.94701C17.9419 7.9873 17.8026 8.07165 17.7204 8.13465C17.6384 8.19737 17.5622 8.24306 17.5511 8.23603C17.5401 8.22873 17.5312 8.19575 17.5317 8.16222C17.532 8.1287 17.5231 8.09274 17.5115 8.08192C17.4999 8.07138 17.4481 8.08517 17.3961 8.11275C17.3441 8.14032 17.2048 8.23576 17.0862 8.32471C16.9676 8.41366 16.822 8.53695 16.7627 8.59859C16.7034 8.66023 16.6458 8.71025 16.6347 8.71025C16.6237 8.70998 16.6021 8.63374 16.587 8.54073C16.5716 8.44773 16.5536 8.36554 16.5468 8.35824C16.5401 8.35094 16.4838 8.38122 16.4221 8.42583C16.3603 8.47044 16.2358 8.58805 16.1455 8.687C16.055 8.78595 15.9326 8.94871 15.8733 9.04848C15.7873 9.19339 15.762 9.21962 15.748 9.17933C15.7383 9.15149 15.7202 9.05253 15.7075 8.95953C15.6949 8.86625 15.6755 8.79028 15.6644 8.79055C15.6534 8.79055 15.5806 8.843 15.5027 8.90681C15.4248 8.97061 15.2976 9.10742 15.2197 9.21097C15.1418 9.31452 15.062 9.44781 15.0423 9.50729C15.0224 9.56677 14.9952 9.61543 14.9817 9.61543C14.9685 9.61543 14.9391 9.5427 14.9167 9.45348C14.8882 9.33966 14.862 9.28964 14.8289 9.28451C14.8008 9.28045 14.7426 9.32425 14.6855 9.39238C14.6327 9.45565 14.5451 9.58028 14.4909 9.6695C14.4367 9.75872 14.3529 9.91986 14.3041 10.0277C14.2556 10.1356 14.2068 10.2267 14.1958 10.2305C14.1847 10.2343 14.1604 10.1613 14.1418 10.0683C14.1157 9.93879 14.0968 9.89931 14.0607 9.89904C14.0348 9.89877 13.9642 9.95041 13.9039 10.0139C13.8435 10.0772 13.7756 10.1597 13.7529 10.1967C13.7303 10.234 13.6874 10.3314 13.6572 10.413C13.6273 10.4947 13.5952 10.6196 13.5858 10.6901C13.5758 10.7658 13.5551 10.8186 13.5351 10.8186C13.5165 10.8186 13.4772 10.7737 13.4475 10.7188C13.4179 10.6642 13.3785 10.6155 13.3599 10.6109C13.3413 10.606 13.299 10.6306 13.2656 10.6655C13.2322 10.7001 13.161 10.8188 13.1074 10.9291C13.0538 11.0392 12.9902 11.1933 12.9659 11.2714C12.9416 11.3495 12.9128 11.4136 12.9017 11.4139C12.8907 11.4144 12.8664 11.3658 12.8478 11.3057C12.8233 11.2263 12.7996 11.1971 12.7602 11.1971C12.7306 11.1971 12.6694 11.2425 12.6241 11.2984C12.5791 11.3541 12.5069 11.4728 12.4638 11.5621C12.4206 11.6513 12.3646 11.8094 12.3392 11.9135C12.3139 12.0176 12.2891 12.109 12.284 12.1163C12.2791 12.1236 12.2476 12.1028 12.2144 12.0695C12.181 12.0365 12.1325 12.009 12.1066 12.0087C12.0805 12.0084 12.0352 12.0506 12.0056 12.1028C11.9759 12.155 11.9333 12.1974 11.9112 12.1974C11.8821 12.1974 11.8757 12.1801 11.8878 12.1366C11.8972 12.1031 11.9805 11.9116 12.0729 11.7108C12.1654 11.5099 12.2487 11.3185 12.2581 11.2849C12.2681 11.249 12.2613 11.2144 12.2414 11.2C12.2228 11.1871 12.1562 11.1687 12.0932 11.1595L11.9786 11.143C12.1638 10.881 12.2546 10.7228 12.3002 10.6225C12.3457 10.5222 12.4026 10.3641 12.4263 10.2711C12.4503 10.1781 12.4624 10.0686 12.4533 10.0277C12.4419 9.97691 12.4198 9.95339 12.3829 9.95339C12.3533 9.95339 12.2861 9.98069 12.2339 10.0142C12.1813 10.0477 12.1328 10.0659 12.126 10.0548C12.119 10.0437 12.174 9.91283 12.2481 9.76413C12.3223 9.61543 12.4072 9.42077 12.4368 9.33155C12.4665 9.24233 12.4907 9.13283 12.4907 9.08822C12.4907 9.04361 12.4756 9.00008 12.457 8.99116C12.4384 8.98251 12.3568 8.98954 12.2751 9.00684C12.1934 9.02414 12.1209 9.03144 12.1134 9.02333C12.1058 9.01522 12.1212 8.98089 12.1473 8.94709C12.1735 8.91302 12.2368 8.83083 12.2883 8.76378C12.3398 8.69673 12.4185 8.55398 12.4632 8.44611C12.508 8.33823 12.5519 8.18007 12.5605 8.09463C12.57 8.00487 12.5643 7.90781 12.547 7.86482L12.5177 7.79047C12.2042 7.9581 12.1069 8.00379 12.0994 8C12.0915 7.99622 12.1322 7.89591 12.1899 7.77695C12.2476 7.65799 12.3204 7.48145 12.3516 7.38493C12.3829 7.28841 12.4268 7.12997 12.4492 7.03345C12.4716 6.93693 12.4902 6.81824 12.4904 6.76985C12.4908 6.71109 12.4752 6.67576 12.4435 6.66386C12.4136 6.65224 12.3347 6.67954 12.2287 6.73821C12.1366 6.78904 12.0546 6.82149 12.0468 6.8104C12.039 6.79932 12.0584 6.73848 12.0897 6.67522C12.1212 6.61195 12.17 6.4692 12.198 6.35754C12.2322 6.22074 12.2487 6.06014 12.2484 5.86413C12.2481 5.60512 12.243 5.57348 12.201 5.57402C12.1751 5.5743 12.0689 5.62918 11.9651 5.69569C11.8614 5.7622 11.7705 5.81059 11.763 5.80302C11.7554 5.79545 11.7705 5.74381 11.7964 5.68812C11.8223 5.63242 11.8627 5.514 11.8864 5.42478C11.9104 5.33556 11.9366 5.11062 11.9447 4.92461C11.9527 4.73887 11.9517 4.55313 11.9422 4.5123C11.9325 4.47148 11.9096 4.43768 11.891 4.43741C11.8724 4.43687 11.7875 4.48554 11.7023 4.54556C11.6172 4.60531 11.5466 4.65127 11.5455 4.64749C11.5444 4.6437 11.5396 4.4704 11.5347 4.26222C11.5298 4.05404 11.5123 3.79854 11.4956 3.69445C11.4792 3.59036 11.4598 3.47167 11.4525 3.43085C11.4455 3.39002 11.4274 3.3565 11.4126 3.3565C11.3978 3.3565 11.3493 3.38083 11.3048 3.41057C11.246 3.45004 11.2207 3.45545 11.2126 3.43085C11.2061 3.41219 11.1929 3.30594 11.183 3.19428C11.173 3.08289 11.1404 2.91229 11.1105 2.81577C11.0805 2.71925 11.0334 2.59434 11.0053 2.53864C10.9773 2.48295 10.9423 2.43726 10.9275 2.43726C10.9126 2.43726 10.8733 2.47349 10.8399 2.5181L10.7792 2.59866C10.6798 1.96033 10.5994 1.5437 10.5364 1.26117C10.4733 0.978642 10.3811 0.626627 10.331 0.478738C10.2811 0.330849 10.2269 0.20567 10.211 0.200533C10.1949 0.195396 10.1563 0.249469 10.1256 0.320575Z" stroke="#578461" stroke-width="0.4" mask="url(#path-1-outside-1_10238_78031)"/>
</svg>
